<mxfile host="65bd71144e" pages="12">
    <diagram id="KhAVEVeGBNZsgOdz26UX" name="Accueil - connexion">
        <mxGraphModel dx="2637" dy="1701" grid="1" gridSize="10" guides="1" tooltips="1" connect="1" arrows="1" fold="1" page="1" pageScale="1" pageWidth="1169" pageHeight="827" math="0" shadow="0">
            <root>
                <mxCell id="qpgFqabyOtMZ8Cn9adf--0"/>
                <mxCell id="qpgFqabyOtMZ8Cn9adf--1" parent="qpgFqabyOtMZ8Cn9adf--0"/>
                <mxCell id="2q_CF3ncoclx0qq8ow7w-0" value="" style="strokeWidth=1;shadow=0;dashed=0;align=center;html=1;shape=mxgraph.mockup.containers.browserWindow;rSize=0;strokeColor=#E6E6E6;strokeColor2=#008cff;strokeColor3=#c4c4c4;mainText=,;recursiveResize=0;" parent="qpgFqabyOtMZ8Cn9adf--1" vertex="1">
                    <mxGeometry x="-1169" y="-827" width="1169" height="827" as="geometry"/>
                </mxCell>
                <mxCell id="2q_CF3ncoclx0qq8ow7w-1" value="Médiathèque" style="strokeWidth=1;shadow=0;dashed=0;align=center;html=1;shape=mxgraph.mockup.containers.anchor;fontSize=17;fontColor=#666666;align=left;" parent="2q_CF3ncoclx0qq8ow7w-0" vertex="1">
                    <mxGeometry x="60" y="12" width="150" height="26" as="geometry"/>
                </mxCell>
                <mxCell id="2q_CF3ncoclx0qq8ow7w-2" value="https://www.mediatheque.fr" style="strokeWidth=1;shadow=0;dashed=0;align=center;html=1;shape=mxgraph.mockup.containers.anchor;rSize=0;fontSize=17;fontColor=#666666;align=left;" parent="2q_CF3ncoclx0qq8ow7w-0" vertex="1">
                    <mxGeometry x="130" y="60" width="250" height="26" as="geometry"/>
                </mxCell>
                <mxCell id="2q_CF3ncoclx0qq8ow7w-4" value="&lt;font style=&quot;font-size: 45px&quot; color=&quot;#a1a1a1&quot;&gt;Médiathèque&lt;/font&gt;" style="rounded=0;whiteSpace=wrap;html=1;strokeColor=#A1A1A1;" parent="2q_CF3ncoclx0qq8ow7w-0" vertex="1">
                    <mxGeometry y="110" width="1169" height="60" as="geometry"/>
                </mxCell>
                <mxCell id="_LC4aU_7HFLrregae4HF-0" value="" style="dashed=0;outlineConnect=0;html=1;align=center;labelPosition=center;verticalLabelPosition=bottom;verticalAlign=top;shape=mxgraph.weblogos.messenger;fontSize=45;fontColor=#A1A1A1;strokeColor=#A1A1A1;fillColor=#A1A1A1;" parent="2q_CF3ncoclx0qq8ow7w-0" vertex="1">
                    <mxGeometry x="524" y="237" width="121" height="123" as="geometry"/>
                </mxCell>
                <mxCell id="_LC4aU_7HFLrregae4HF-1" value="Email" style="fillColor=none;strokeColor=none;align=left;fontSize=14;fontColor=#212529;" parent="2q_CF3ncoclx0qq8ow7w-0" vertex="1">
                    <mxGeometry x="380" y="427" width="59" height="30" as="geometry"/>
                </mxCell>
                <mxCell id="_LC4aU_7HFLrregae4HF-2" value="Veuillez entrer votre adresse mail" style="html=1;shadow=0;dashed=0;shape=mxgraph.bootstrap.rrect;rSize=5;fillColor=none;strokeColor=#999999;align=left;spacing=15;fontSize=14;fontColor=#6C767D;" parent="2q_CF3ncoclx0qq8ow7w-0" vertex="1">
                    <mxGeometry x="439" y="430" width="361" height="27" as="geometry"/>
                </mxCell>
                <mxCell id="_LC4aU_7HFLrregae4HF-3" value="Password" style="fillColor=none;strokeColor=none;align=left;fontSize=14;fontColor=#212529;" parent="2q_CF3ncoclx0qq8ow7w-0" vertex="1">
                    <mxGeometry x="360" y="467" width="79" height="30" as="geometry"/>
                </mxCell>
                <mxCell id="_LC4aU_7HFLrregae4HF-4" value="Veuillez entrer votre mot de passe" style="html=1;shadow=0;dashed=0;shape=mxgraph.bootstrap.rrect;rSize=5;fillColor=none;strokeColor=#999999;align=left;spacing=15;fontSize=14;fontColor=#6C767D;" parent="2q_CF3ncoclx0qq8ow7w-0" vertex="1">
                    <mxGeometry x="439" y="470" width="361" height="27" as="geometry"/>
                </mxCell>
                <mxCell id="_LC4aU_7HFLrregae4HF-11" value="&lt;a href=&quot;data:page/id,yl5hMWLeE0mNzgKsfhri&quot;&gt;Valider&lt;/a&gt;" style="html=1;shadow=0;dashed=0;shape=mxgraph.bootstrap.rrect;rSize=5;fillColor=#0085FC;strokeColor=none;align=center;fontSize=14;fontColor=#FFFFFF;sketch=0;" parent="2q_CF3ncoclx0qq8ow7w-0" vertex="1">
                    <mxGeometry x="575" y="547" width="70" height="40" as="geometry"/>
                </mxCell>
            </root>
        </mxGraphModel>
    </diagram>
    <diagram id="yl5hMWLeE0mNzgKsfhri" name="Accueil_P">
        <mxGraphModel dx="2637" dy="874" grid="1" gridSize="10" guides="1" tooltips="1" connect="1" arrows="1" fold="1" page="1" pageScale="1" pageWidth="1169" pageHeight="827" math="0" shadow="0">
            <root>
                <mxCell id="0"/>
                <mxCell id="1" parent="0"/>
                <mxCell id="hwpM2E2XxFLgyICyP1M_-1" value="" style="strokeWidth=1;shadow=0;dashed=0;align=center;html=1;shape=mxgraph.mockup.containers.browserWindow;rSize=0;strokeColor=#666666;strokeColor2=#008cff;strokeColor3=#c4c4c4;mainText=,;recursiveResize=0;fontSize=16;fontStyle=0" parent="1" vertex="1">
                    <mxGeometry x="-1169" width="1169" height="827" as="geometry"/>
                </mxCell>
                <mxCell id="hwpM2E2XxFLgyICyP1M_-2" value="Médiathèque" style="strokeWidth=1;shadow=0;dashed=0;align=center;html=1;shape=mxgraph.mockup.containers.anchor;fontSize=17;fontColor=#666666;align=left;" parent="hwpM2E2XxFLgyICyP1M_-1" vertex="1">
                    <mxGeometry x="60" y="12" width="150" height="26" as="geometry"/>
                </mxCell>
                <mxCell id="hwpM2E2XxFLgyICyP1M_-3" value="https://www.mediatheque.fr" style="strokeWidth=1;shadow=0;dashed=0;align=center;html=1;shape=mxgraph.mockup.containers.anchor;rSize=0;fontSize=17;fontColor=#666666;align=left;" parent="hwpM2E2XxFLgyICyP1M_-1" vertex="1">
                    <mxGeometry x="130" y="60" width="250" height="26" as="geometry"/>
                </mxCell>
                <mxCell id="hwpM2E2XxFLgyICyP1M_-8" value="&lt;font style=&quot;font-size: 45px&quot; color=&quot;#a1a1a1&quot;&gt;Médiathèque&lt;/font&gt;" style="rounded=0;whiteSpace=wrap;html=1;strokeColor=#A1A1A1;" parent="hwpM2E2XxFLgyICyP1M_-1" vertex="1">
                    <mxGeometry y="110" width="1160" height="60" as="geometry"/>
                </mxCell>
                <mxCell id="2kUuNyUJB9OK22wc0VwA-8" value="Infos pratique" style="rounded=0;whiteSpace=wrap;html=1;fontSize=16;fontColor=#FFFFFF;strokeColor=#666666;fillColor=#C2C2C2;fontStyle=1" parent="hwpM2E2XxFLgyICyP1M_-1" vertex="1">
                    <mxGeometry x="167" y="200" width="151" height="60" as="geometry"/>
                </mxCell>
                <UserObject label="Consulter une ressrouce" link="data:page/id,vRAD9Q63Qiz3Y1zbIMJT" id="2kUuNyUJB9OK22wc0VwA-9">
                    <mxCell style="rounded=0;whiteSpace=wrap;html=1;fontSize=16;strokeColor=#666666;fillColor=#C2C2C2;fontColor=#FFFFFF;fontStyle=1" parent="hwpM2E2XxFLgyICyP1M_-1" vertex="1">
                        <mxGeometry x="318" y="200" width="152" height="60" as="geometry"/>
                    </mxCell>
                </UserObject>
                <mxCell id="2kUuNyUJB9OK22wc0VwA-10" value="Gérer une ressource" style="rounded=0;whiteSpace=wrap;html=1;fontSize=16;strokeColor=#666666;fillColor=#C2C2C2;fontColor=#FFFFFF;fontStyle=1" parent="hwpM2E2XxFLgyICyP1M_-1" vertex="1">
                    <mxGeometry x="470" y="200" width="139" height="60" as="geometry"/>
                </mxCell>
                <mxCell id="2kUuNyUJB9OK22wc0VwA-11" value="Gérer un utilisateur" style="rounded=0;whiteSpace=wrap;html=1;fontSize=16;strokeColor=#666666;fillColor=#C2C2C2;fontColor=#FFFFFF;fontStyle=1" parent="hwpM2E2XxFLgyICyP1M_-1" vertex="1">
                    <mxGeometry x="609" y="200" width="138" height="60" as="geometry"/>
                </mxCell>
                <mxCell id="8kQ3QEMzD5kADTaKjLia-3" value="Actualité" style="rounded=0;whiteSpace=wrap;html=1;fontSize=16;fontColor=#FFFFFF;strokeColor=#666666;fillColor=#A1A1A1;gradientColor=#A1A1A1;fontStyle=1" parent="hwpM2E2XxFLgyICyP1M_-1" vertex="1">
                    <mxGeometry x="18" y="280" width="582" height="520" as="geometry"/>
                </mxCell>
                <mxCell id="8kQ3QEMzD5kADTaKjLia-4" value="" style="shape=image;html=1;verticalAlign=top;verticalLabelPosition=bottom;labelBackgroundColor=#ffffff;imageAspect=0;aspect=fixed;image=https://cdn2.iconfinder.com/data/icons/crystalproject/128x128/apps/cal.png;fontSize=12;fontColor=#FFFFFF;strokeColor=#666666;fillColor=#A1A1A1;gradientColor=#A1A1A1;" parent="hwpM2E2XxFLgyICyP1M_-1" vertex="1">
                    <mxGeometry x="910" y="260" width="180" height="180" as="geometry"/>
                </mxCell>
                <mxCell id="8kQ3QEMzD5kADTaKjLia-5" value="Evènements à venir" style="rounded=0;whiteSpace=wrap;html=1;fontSize=16;fontColor=#FFFFFF;strokeColor=#666666;fillColor=#A1A1A1;gradientColor=#A1A1A1;fontStyle=1" parent="hwpM2E2XxFLgyICyP1M_-1" vertex="1">
                    <mxGeometry x="628" y="280" width="272" height="140" as="geometry"/>
                </mxCell>
                <mxCell id="8kQ3QEMzD5kADTaKjLia-7" value="Les nouveautés de ce mois-ci" style="rounded=0;whiteSpace=wrap;html=1;fontSize=16;fontColor=#FFFFFF;strokeColor=#666666;fillColor=#A1A1A1;gradientColor=#A1A1A1;fontStyle=1" parent="hwpM2E2XxFLgyICyP1M_-1" vertex="1">
                    <mxGeometry x="628" y="440" width="502" height="360" as="geometry"/>
                </mxCell>
                <UserObject label="&amp;nbsp; &amp;nbsp; &amp;nbsp; &amp;nbsp; &amp;nbsp; &amp;nbsp; &amp;nbsp;Mon profil" link="data:page/id,lGLJw4ro3tzLa91ZYzbf" id="7eS42DswP7opID5vfkek-1">
                    <mxCell style="rounded=0;whiteSpace=wrap;html=1;fontSize=16;fontColor=#FFFFFF;strokeColor=#666666;fillColor=#C2C2C2;align=center;fontStyle=1" parent="hwpM2E2XxFLgyICyP1M_-1" vertex="1">
                        <mxGeometry x="1009" y="200" width="151" height="60" as="geometry"/>
                    </mxCell>
                </UserObject>
                <mxCell id="YyFcrugd1PkfDhJ9REQl-3" value="" style="verticalLabelPosition=bottom;shadow=0;dashed=0;align=center;html=1;verticalAlign=top;strokeWidth=1;shape=mxgraph.mockup.containers.userFemale;strokeColor=#666666;strokeColor2=#008cff;fontSize=12;fontColor=#FFFFFF;fillColor=#FFFFFF;gradientColor=#FFFFFF;" parent="hwpM2E2XxFLgyICyP1M_-1" vertex="1">
                    <mxGeometry x="1024" y="215" width="40" height="30" as="geometry"/>
                </mxCell>
                <mxCell id="ko53vkQvorDcL-SV9aA--1" value="Services" style="rounded=0;whiteSpace=wrap;html=1;fontSize=16;strokeColor=#666666;fillColor=#C2C2C2;fontColor=#FFFFFF;fontStyle=1" parent="hwpM2E2XxFLgyICyP1M_-1" vertex="1">
                    <mxGeometry x="747" y="200" width="138" height="60" as="geometry"/>
                </mxCell>
                <mxCell id="qNy6yUwyIaN30i7Qmlq7-1" value="" style="rounded=0;whiteSpace=wrap;html=1;fontSize=12;fontColor=#333333;strokeColor=#666666;fillColor=#C2C2C2;" parent="hwpM2E2XxFLgyICyP1M_-1" vertex="1">
                    <mxGeometry y="200" width="1168" height="60" as="geometry"/>
                </mxCell>
                <UserObject label="Services" link="data:page/id,1y3C5vE3ofAHqLID96lu" id="qNy6yUwyIaN30i7Qmlq7-2">
                    <mxCell style="rounded=0;whiteSpace=wrap;html=1;fontSize=16;fontColor=#FFFFFF;strokeColor=#666666;fillColor=#C2C2C2;fontStyle=1" parent="hwpM2E2XxFLgyICyP1M_-1" vertex="1">
                        <mxGeometry x="565" y="200" width="151" height="60" as="geometry"/>
                    </mxCell>
                </UserObject>
                <UserObject label="Gérer une ressource" link="data:page/id,1-_ZAtHb4YZcZEY1NWBs" id="qNy6yUwyIaN30i7Qmlq7-4">
                    <mxCell style="rounded=0;whiteSpace=wrap;html=1;fontSize=16;strokeColor=#666666;fillColor=#C2C2C2;fontColor=#FFFFFF;fontStyle=1" parent="hwpM2E2XxFLgyICyP1M_-1" vertex="1">
                        <mxGeometry x="150" y="200" width="139" height="60" as="geometry"/>
                    </mxCell>
                </UserObject>
                <UserObject label="Gérer un utilisateur" link="data:page/id,gnByjOrjejcISsql6juy" id="qNy6yUwyIaN30i7Qmlq7-5">
                    <mxCell style="rounded=0;whiteSpace=wrap;html=1;fontSize=16;strokeColor=#666666;fillColor=#C2C2C2;fontColor=#FFFFFF;fontStyle=1" parent="hwpM2E2XxFLgyICyP1M_-1" vertex="1">
                        <mxGeometry x="289" y="200" width="138" height="60" as="geometry"/>
                    </mxCell>
                </UserObject>
                <UserObject label="A propos" link="data:page/id,FaWUZfU0TmcHPQL3xSgL" id="qNy6yUwyIaN30i7Qmlq7-6">
                    <mxCell style="rounded=0;whiteSpace=wrap;html=1;fontSize=16;strokeColor=#666666;fillColor=#C2C2C2;fontColor=#FFFFFF;fontStyle=1" parent="hwpM2E2XxFLgyICyP1M_-1" vertex="1">
                        <mxGeometry x="427" y="200" width="138" height="60" as="geometry"/>
                    </mxCell>
                </UserObject>
                <UserObject label="&amp;nbsp; &amp;nbsp; &amp;nbsp; &amp;nbsp; &amp;nbsp; &amp;nbsp; &amp;nbsp;Mon profil" link="data:page/id,lGLJw4ro3tzLa91ZYzbf" id="qNy6yUwyIaN30i7Qmlq7-7">
                    <mxCell style="rounded=0;whiteSpace=wrap;html=1;fontSize=16;fontColor=#FFFFFF;strokeColor=#666666;fillColor=#C2C2C2;align=center;fontStyle=1" parent="hwpM2E2XxFLgyICyP1M_-1" vertex="1">
                        <mxGeometry x="1005" y="200" width="163" height="60" as="geometry"/>
                    </mxCell>
                </UserObject>
                <mxCell id="qNy6yUwyIaN30i7Qmlq7-8" value="" style="verticalLabelPosition=bottom;shadow=0;dashed=0;align=center;html=1;verticalAlign=top;strokeWidth=1;shape=mxgraph.mockup.containers.userFemale;strokeColor=#666666;strokeColor2=#008cff;fontSize=12;fontColor=#FFFFFF;fillColor=#FFFFFF;gradientColor=#FFFFFF;" parent="hwpM2E2XxFLgyICyP1M_-1" vertex="1">
                    <mxGeometry x="1024" y="215" width="40" height="30" as="geometry"/>
                </mxCell>
                <UserObject label="Accueil" link="data:page/id,yl5hMWLeE0mNzgKsfhri" id="qNy6yUwyIaN30i7Qmlq7-9">
                    <mxCell style="rounded=0;whiteSpace=wrap;html=1;fontSize=16;fontColor=#C2C2C2;strokeColor=#666666;fillColor=#FFFFFF;fontStyle=1" parent="hwpM2E2XxFLgyICyP1M_-1" vertex="1">
                        <mxGeometry y="200" width="150" height="60" as="geometry"/>
                    </mxCell>
                </UserObject>
                <mxCell id="IrZvMxoCYofxvJMMqDIC-1" value="" style="html=1;shadow=0;dashed=0;shape=mxgraph.bootstrap.rrect;rSize=5;strokeColor=#CED4DA;html=1;whiteSpace=wrap;fillColor=#FFFFFF;fontColor=#7D868C;align=left;spacingLeft=0;spacing=15;fontSize=14;" parent="hwpM2E2XxFLgyICyP1M_-1" vertex="1">
                    <mxGeometry x="909" y="123.5" width="227" height="33" as="geometry"/>
                </mxCell>
                <mxCell id="IrZvMxoCYofxvJMMqDIC-2" value="Rechercher" style="html=1;shadow=0;dashed=0;shape=mxgraph.bootstrap.rightButton;strokeColor=#6C757D;gradientColor=inherit;fontColor=inherit;fillColor=inherit;rSize=5;perimeter=none;whiteSpace=wrap;resizeHeight=1;fontSize=14;" parent="IrZvMxoCYofxvJMMqDIC-1" vertex="1">
                    <mxGeometry x="1" width="89" height="33" relative="1" as="geometry">
                        <mxPoint x="-70" as="offset"/>
                    </mxGeometry>
                </mxCell>
                <mxCell id="I9VGXH25nW6fvn07arWQ-3" value="" style="shape=image;html=1;verticalAlign=top;verticalLabelPosition=bottom;labelBackgroundColor=#ffffff;imageAspect=0;aspect=fixed;image=https://cdn4.iconfinder.com/data/icons/ui-office/512/User_Interface-40-128.png;shadow=0;fontSize=31;fontColor=#C2C2C2;strokeColor=#FFFFFF;fillColor=#666666;gradientColor=#000000;fontStyle=1;strokeWidth=2;" parent="hwpM2E2XxFLgyICyP1M_-1" vertex="1">
                    <mxGeometry x="1147" y="240" width="20" height="20" as="geometry"/>
                </mxCell>
                <mxCell id="ehqHapJsMNVJfKHCFS16-1" value="" style="rounded=0;whiteSpace=wrap;html=1;shadow=0;labelBackgroundColor=none;fontSize=29;strokeColor=#FFFFFF;fillColor=#FFFFFF;" parent="hwpM2E2XxFLgyICyP1M_-1" vertex="1">
                    <mxGeometry y="259" width="150" height="1.5" as="geometry"/>
                </mxCell>
            </root>
        </mxGraphModel>
    </diagram>
    <diagram id="1-_ZAtHb4YZcZEY1NWBs" name="Enregistrer une ressource_P">
        <mxGraphModel dx="2637" dy="1701" grid="1" gridSize="10" guides="1" tooltips="1" connect="1" arrows="1" fold="1" page="1" pageScale="1" pageWidth="1169" pageHeight="827" math="0" shadow="0">
            <root>
                <mxCell id="bgrA9T7Ul5SZdm0bwktn-0"/>
                <mxCell id="bgrA9T7Ul5SZdm0bwktn-1" parent="bgrA9T7Ul5SZdm0bwktn-0"/>
                <mxCell id="lHeY-Ja7FgNO6xSykHIZ-0" value="" style="strokeWidth=1;shadow=0;dashed=0;align=center;html=1;shape=mxgraph.mockup.containers.browserWindow;rSize=0;strokeColor=#E6E6E6;strokeColor2=#008cff;strokeColor3=#c4c4c4;mainText=,;recursiveResize=0;" parent="bgrA9T7Ul5SZdm0bwktn-1" vertex="1">
                    <mxGeometry x="-1169" y="-827" width="1169" height="827" as="geometry"/>
                </mxCell>
                <mxCell id="lHeY-Ja7FgNO6xSykHIZ-1" value="" style="strokeWidth=1;shadow=0;dashed=0;align=center;html=1;shape=mxgraph.mockup.containers.marginRect2;rectMarginTop=32;strokeColor=#666666;gradientColor=none;labelBackgroundColor=none;labelBorderColor=none;fontColor=#666666;fontStyle=1" parent="lHeY-Ja7FgNO6xSykHIZ-0" vertex="1">
                    <mxGeometry x="20" y="230" width="1130" height="570" as="geometry"/>
                </mxCell>
                <mxCell id="lHeY-Ja7FgNO6xSykHIZ-2" value="Enregistrer une ressource" style="strokeColor=#000000;fillColor=#FFFFFF;strokeWidth=1;shadow=0;dashed=0;align=center;html=1;shape=mxgraph.mockup.containers.rrect;rSize=0;fontSize=17;gradientColor=none;labelBackgroundColor=none;labelBorderColor=none;fontColor=#C2C2C2;fontStyle=1" parent="lHeY-Ja7FgNO6xSykHIZ-1" vertex="1">
                    <mxGeometry width="220" height="25" relative="1" as="geometry">
                        <mxPoint x="19" as="offset"/>
                    </mxGeometry>
                </mxCell>
                <mxCell id="lHeY-Ja7FgNO6xSykHIZ-3" value="" style="strokeWidth=1;shadow=0;dashed=0;align=center;html=1;shape=mxgraph.mockup.containers.topButton;rSize=5;strokeColor=#666666;fillColor=#FFFFFF;gradientColor=none;resizeWidth=1;movable=0;deletable=1;labelBackgroundColor=none;labelBorderColor=none;fontColor=none;noLabel=1;" parent="lHeY-Ja7FgNO6xSykHIZ-1" vertex="1">
                    <mxGeometry width="1130" height="7" relative="1" as="geometry">
                        <mxPoint y="25" as="offset"/>
                    </mxGeometry>
                </mxCell>
                <mxCell id="lHeY-Ja7FgNO6xSykHIZ-4" value="" style="rounded=0;whiteSpace=wrap;html=1;shadow=0;labelBackgroundColor=#666666;labelBorderColor=none;fontColor=none;strokeColor=#FFFFFF;fillColor=#FFFFFF;" parent="lHeY-Ja7FgNO6xSykHIZ-1" vertex="1">
                    <mxGeometry x="2.017857142857143" y="27" width="1127.982142857143" height="13" as="geometry"/>
                </mxCell>
                <mxCell id="lHeY-Ja7FgNO6xSykHIZ-7" value="ENREGISTRER UNE RESSOURCE" style="fillColor=none;strokeColor=none;align=left;fontSize=22;fontColor=#666666;shadow=0;labelBackgroundColor=none;fontStyle=1;fontFamily=Helvetica;" parent="lHeY-Ja7FgNO6xSykHIZ-1" vertex="1">
                    <mxGeometry x="380.0003571428572" y="57" width="369.2678571428571" height="83" as="geometry"/>
                </mxCell>
                <mxCell id="lHeY-Ja7FgNO6xSykHIZ-39" value="Genre" style="html=1;shadow=0;dashed=0;shape=mxgraph.bootstrap.rrect;rSize=5;fillColor=none;strokeColor=#999999;align=left;spacing=15;fontSize=14;fontColor=#6C767D;labelBackgroundColor=none;" parent="lHeY-Ja7FgNO6xSykHIZ-1" vertex="1">
                    <mxGeometry x="399" y="317" width="310" height="30" as="geometry"/>
                </mxCell>
                <mxCell id="lHeY-Ja7FgNO6xSykHIZ-36" value="Type" style="html=1;shadow=0;dashed=0;shape=mxgraph.bootstrap.rrect;rSize=5;fillColor=none;strokeColor=#999999;align=left;spacing=15;fontSize=14;fontColor=#6C767D;labelBackgroundColor=none;" parent="lHeY-Ja7FgNO6xSykHIZ-1" vertex="1">
                    <mxGeometry x="399" y="260" width="310" height="27" as="geometry"/>
                </mxCell>
                <mxCell id="lHeY-Ja7FgNO6xSykHIZ-42" value="Couleur" style="html=1;shadow=0;dashed=0;shape=mxgraph.bootstrap.rrect;rSize=5;fillColor=none;strokeColor=#999999;align=left;spacing=15;fontSize=14;fontColor=#6C767D;labelBackgroundColor=none;" parent="lHeY-Ja7FgNO6xSykHIZ-1" vertex="1">
                    <mxGeometry x="399" y="377" width="310" height="30" as="geometry"/>
                </mxCell>
                <mxCell id="lHeY-Ja7FgNO6xSykHIZ-43" value="" style="html=1;shadow=0;dashed=0;strokeColor=#6C757D;gradientColor=inherit;fontColor=inherit;fillColor=inherit;perimeter=none;whiteSpace=wrap;resizeHeight=1;fontSize=14;labelBackgroundColor=none;fontFamily=Helvetica;" parent="lHeY-Ja7FgNO6xSykHIZ-1" vertex="1">
                    <mxGeometry x="679" y="377" width="30" height="30" as="geometry"/>
                </mxCell>
                <mxCell id="lHeY-Ja7FgNO6xSykHIZ-44" value="" style="shape=triangle;direction=south;fillColor=#6C767D;strokeColor=none;perimeter=none;shadow=0;labelBackgroundColor=none;fontFamily=Helvetica;fontSize=22;fontColor=#666666;" parent="lHeY-Ja7FgNO6xSykHIZ-43" vertex="1">
                    <mxGeometry x="0.5" y="0.5" width="10" height="5" relative="1" as="geometry">
                        <mxPoint x="-5" y="-2.5" as="offset"/>
                    </mxGeometry>
                </mxCell>
                <mxCell id="lHeY-Ja7FgNO6xSykHIZ-40" value="" style="html=1;shadow=0;dashed=0;strokeColor=#6C757D;gradientColor=inherit;fontColor=inherit;fillColor=inherit;perimeter=none;whiteSpace=wrap;resizeHeight=1;fontSize=14;labelBackgroundColor=none;fontFamily=Helvetica;" parent="lHeY-Ja7FgNO6xSykHIZ-1" vertex="1">
                    <mxGeometry x="679" y="317" width="30" height="30" as="geometry"/>
                </mxCell>
                <mxCell id="lHeY-Ja7FgNO6xSykHIZ-41" value="" style="shape=triangle;direction=south;fillColor=#6C767D;strokeColor=none;perimeter=none;shadow=0;labelBackgroundColor=none;fontFamily=Helvetica;fontSize=22;fontColor=#666666;" parent="lHeY-Ja7FgNO6xSykHIZ-40" vertex="1">
                    <mxGeometry x="0.5" y="0.5" width="10" height="5" relative="1" as="geometry">
                        <mxPoint x="-5" y="-2.5" as="offset"/>
                    </mxGeometry>
                </mxCell>
                <mxCell id="lHeY-Ja7FgNO6xSykHIZ-37" value="" style="html=1;shadow=0;dashed=0;strokeColor=#6C757D;gradientColor=inherit;fontColor=inherit;fillColor=inherit;perimeter=none;whiteSpace=wrap;resizeHeight=1;fontSize=14;labelBackgroundColor=none;fontFamily=Helvetica;" parent="lHeY-Ja7FgNO6xSykHIZ-1" vertex="1">
                    <mxGeometry x="679" y="260" width="30" height="27" as="geometry"/>
                </mxCell>
                <mxCell id="lHeY-Ja7FgNO6xSykHIZ-38" value="" style="shape=triangle;direction=south;fillColor=#6C767D;strokeColor=none;perimeter=none;shadow=0;labelBackgroundColor=none;fontFamily=Helvetica;fontSize=22;fontColor=#666666;" parent="lHeY-Ja7FgNO6xSykHIZ-37" vertex="1">
                    <mxGeometry x="0.5" y="0.5" width="10" height="5" relative="1" as="geometry">
                        <mxPoint x="-5" y="-2.5" as="offset"/>
                    </mxGeometry>
                </mxCell>
                <mxCell id="lHeY-Ja7FgNO6xSykHIZ-32" value="&lt;font style=&quot;font-size: 14px&quot;&gt;Date de l'enregistrement&lt;/font&gt;" style="rounded=1;arcSize=9;fillColor=#F7F8F9;align=left;spacingLeft=5;strokeColor=#DEE1E6;html=1;strokeWidth=2;fontColor=#596780;fontSize=12;sketch=1;hachureGap=4;pointerEvents=0;fontFamily=Helvetica;shadow=0;labelBackgroundColor=none;" parent="lHeY-Ja7FgNO6xSykHIZ-1" vertex="1">
                    <mxGeometry x="399" y="197" width="310" height="33" as="geometry"/>
                </mxCell>
                <mxCell id="lHeY-Ja7FgNO6xSykHIZ-33" value="" style="shape=mxgraph.gmdl.calendar;fillColor=#5A6881;strokeColor=none;sketch=0;hachureGap=4;pointerEvents=0;fontFamily=Architects Daughter;fontSource=https%3A%2F%2Ffonts.googleapis.com%2Fcss%3Ffamily%3DArchitects%2BDaughter;fontSize=20;shadow=0;labelBackgroundColor=none;fontColor=#666666;" parent="lHeY-Ja7FgNO6xSykHIZ-32" vertex="1">
                    <mxGeometry x="1" y="0.5" width="18" height="18" relative="1" as="geometry">
                        <mxPoint x="-29" y="-9" as="offset"/>
                    </mxGeometry>
                </mxCell>
                <mxCell id="lHeY-Ja7FgNO6xSykHIZ-31" value="Côte du document" style="html=1;shadow=0;dashed=0;shape=mxgraph.bootstrap.rrect;rSize=5;fillColor=none;strokeColor=#999999;align=left;spacing=15;fontSize=14;fontColor=#6C767D;labelBackgroundColor=none;" parent="lHeY-Ja7FgNO6xSykHIZ-1" vertex="1">
                    <mxGeometry x="399" y="140" width="310" height="30" as="geometry"/>
                </mxCell>
                <mxCell id="DZqT-3WF1Jc_602R2DJy-1" value="Annuler" style="strokeWidth=1;shadow=0;dashed=0;align=center;html=1;shape=mxgraph.mockup.buttons.button;strokeColor=#666666;fontColor=#ffffff;mainText=;buttonStyle=round;fontSize=17;fontStyle=1;fillColor=#FF9999;whiteSpace=wrap;labelBackgroundColor=none;fontFamily=Helvetica;" parent="lHeY-Ja7FgNO6xSykHIZ-1" vertex="1">
                    <mxGeometry x="593" y="437" width="116" height="52" as="geometry"/>
                </mxCell>
                <mxCell id="DZqT-3WF1Jc_602R2DJy-0" value="Valider" style="strokeWidth=1;shadow=0;dashed=0;align=center;html=1;shape=mxgraph.mockup.buttons.button;strokeColor=#666666;fontColor=#ffffff;mainText=;buttonStyle=round;fontSize=17;fontStyle=1;fillColor=#97D077;whiteSpace=wrap;labelBackgroundColor=none;fontFamily=Helvetica;" parent="lHeY-Ja7FgNO6xSykHIZ-1" vertex="1">
                    <mxGeometry x="399" y="437" width="116" height="52" as="geometry"/>
                </mxCell>
                <UserObject label="Enregistrer un emprunt" link="data:page/id,QXc0wzj-9IYIJqLfSLoC" id="lHeY-Ja7FgNO6xSykHIZ-8">
                    <mxCell style="strokeWidth=1;shadow=0;dashed=0;align=center;html=1;shape=mxgraph.mockup.containers.rrect;rSize=0;fontSize=17;fontColor=#FFFFFF;strokeColor=#666666;fillColor=#C2C2C2;labelBackgroundColor=none;labelBorderColor=none;fontStyle=1" parent="lHeY-Ja7FgNO6xSykHIZ-0" vertex="1">
                        <mxGeometry width="220" height="25" relative="1" as="geometry">
                            <mxPoint x="259" y="230" as="offset"/>
                        </mxGeometry>
                    </mxCell>
                </UserObject>
                <UserObject label="Mise hors service" link="data:page/id,VlvuZ8ZS0cmNUSl1zSAV" id="lHeY-Ja7FgNO6xSykHIZ-9">
                    <mxCell style="strokeColor=#666666;fillColor=#C2C2C2;strokeWidth=1;shadow=0;align=center;html=1;shape=mxgraph.mockup.containers.rrect;rSize=0;fontSize=17;labelBackgroundColor=none;labelBorderColor=none;fontColor=#FFFFFF;fontStyle=1" parent="lHeY-Ja7FgNO6xSykHIZ-0" vertex="1">
                        <mxGeometry width="180" height="25" relative="1" as="geometry">
                            <mxPoint x="479" y="230" as="offset"/>
                        </mxGeometry>
                    </mxCell>
                </UserObject>
                <mxCell id="lHeY-Ja7FgNO6xSykHIZ-10" value="Médiathèque" style="strokeWidth=1;shadow=0;dashed=0;align=center;html=1;shape=mxgraph.mockup.containers.anchor;fontSize=17;fontColor=#666666;align=left;" parent="lHeY-Ja7FgNO6xSykHIZ-0" vertex="1">
                    <mxGeometry x="60" y="12" width="150" height="26" as="geometry"/>
                </mxCell>
                <mxCell id="lHeY-Ja7FgNO6xSykHIZ-11" value="https://www.mediatheque.fr" style="strokeWidth=1;shadow=0;dashed=0;align=center;html=1;shape=mxgraph.mockup.containers.anchor;rSize=0;fontSize=17;fontColor=#666666;align=left;" parent="lHeY-Ja7FgNO6xSykHIZ-0" vertex="1">
                    <mxGeometry x="130" y="60" width="250" height="26" as="geometry"/>
                </mxCell>
                <mxCell id="lHeY-Ja7FgNO6xSykHIZ-12" value="&lt;font style=&quot;font-size: 45px&quot; color=&quot;#a1a1a1&quot;&gt;Médiathèque&lt;/font&gt;" style="rounded=0;whiteSpace=wrap;html=1;strokeColor=#A1A1A1;" parent="lHeY-Ja7FgNO6xSykHIZ-0" vertex="1">
                    <mxGeometry y="110" width="1167" height="60" as="geometry"/>
                </mxCell>
                <mxCell id="lHeY-Ja7FgNO6xSykHIZ-13" value="" style="rounded=0;whiteSpace=wrap;html=1;fontSize=12;fontColor=#333333;strokeColor=#666666;fillColor=#C2C2C2;" parent="lHeY-Ja7FgNO6xSykHIZ-0" vertex="1">
                    <mxGeometry y="170" width="1159" height="60" as="geometry"/>
                </mxCell>
                <UserObject label="&amp;nbsp; &amp;nbsp; &amp;nbsp; &amp;nbsp; &amp;nbsp; &amp;nbsp; &amp;nbsp;Mon profil" id="lHeY-Ja7FgNO6xSykHIZ-14">
                    <mxCell style="rounded=0;whiteSpace=wrap;html=1;fontSize=16;fontColor=#FFFFFF;strokeColor=#666666;fillColor=#C2C2C2;align=center;fontStyle=1" parent="lHeY-Ja7FgNO6xSykHIZ-0" vertex="1">
                        <mxGeometry x="1001" y="170" width="167" height="60" as="geometry"/>
                    </mxCell>
                </UserObject>
                <UserObject label="Services" id="lHeY-Ja7FgNO6xSykHIZ-15">
                    <mxCell style="rounded=0;whiteSpace=wrap;html=1;fontSize=16;fontColor=#FFFFFF;strokeColor=#666666;fillColor=#C2C2C2;fontStyle=1" parent="lHeY-Ja7FgNO6xSykHIZ-0" vertex="1">
                        <mxGeometry x="567" y="170" width="151" height="60" as="geometry"/>
                    </mxCell>
                </UserObject>
                <UserObject label="Gérer un utilisateur" id="lHeY-Ja7FgNO6xSykHIZ-17">
                    <mxCell style="rounded=0;whiteSpace=wrap;html=1;fontSize=16;strokeColor=#666666;fillColor=#C2C2C2;fontColor=#FFFFFF;fontStyle=1" parent="lHeY-Ja7FgNO6xSykHIZ-0" vertex="1">
                        <mxGeometry x="291" y="170" width="138" height="60" as="geometry"/>
                    </mxCell>
                </UserObject>
                <UserObject label="Gérer une ressource" id="lHeY-Ja7FgNO6xSykHIZ-18">
                    <mxCell style="rounded=0;whiteSpace=wrap;html=1;fontSize=16;strokeColor=#666666;fillColor=#FFFFFF;fontColor=#C2C2C2;fontStyle=1" parent="lHeY-Ja7FgNO6xSykHIZ-0" vertex="1">
                        <mxGeometry x="152" y="170" width="139" height="60" as="geometry"/>
                    </mxCell>
                </UserObject>
                <UserObject label="Accueil" id="lHeY-Ja7FgNO6xSykHIZ-19">
                    <mxCell style="rounded=0;whiteSpace=wrap;html=1;fontSize=16;fontColor=#FFFFFF;strokeColor=#666666;fillColor=#C2C2C2;fontStyle=1" parent="lHeY-Ja7FgNO6xSykHIZ-0" vertex="1">
                        <mxGeometry x="1" y="170" width="151" height="60" as="geometry"/>
                    </mxCell>
                </UserObject>
                <mxCell id="lHeY-Ja7FgNO6xSykHIZ-28" value="" style="html=1;shadow=0;dashed=0;shape=mxgraph.bootstrap.rrect;rSize=5;strokeColor=#CED4DA;html=1;whiteSpace=wrap;fillColor=#FFFFFF;fontColor=#7D868C;align=left;spacingLeft=0;spacing=15;fontSize=14;" parent="lHeY-Ja7FgNO6xSykHIZ-0" vertex="1">
                    <mxGeometry x="903" y="123.5" width="227" height="33" as="geometry"/>
                </mxCell>
                <mxCell id="lHeY-Ja7FgNO6xSykHIZ-29" value="Rechercher" style="html=1;shadow=0;dashed=0;shape=mxgraph.bootstrap.rightButton;strokeColor=#6C757D;gradientColor=inherit;fontColor=inherit;fillColor=inherit;rSize=5;perimeter=none;whiteSpace=wrap;resizeHeight=1;fontSize=14;" parent="lHeY-Ja7FgNO6xSykHIZ-28" vertex="1">
                    <mxGeometry x="1" width="89" height="33" relative="1" as="geometry">
                        <mxPoint x="-70" as="offset"/>
                    </mxGeometry>
                </mxCell>
                <mxCell id="lHeY-Ja7FgNO6xSykHIZ-30" value="" style="verticalLabelPosition=bottom;shadow=0;dashed=0;align=center;html=1;verticalAlign=top;strokeWidth=1;shape=mxgraph.mockup.containers.userFemale;strokeColor=#666666;strokeColor2=#008cff;fontSize=12;fontColor=#FFFFFF;fillColor=#FFFFFF;gradientColor=#FFFFFF;" parent="lHeY-Ja7FgNO6xSykHIZ-0" vertex="1">
                    <mxGeometry x="1019.5" y="185" width="40" height="30" as="geometry"/>
                </mxCell>
                <mxCell id="lHeY-Ja7FgNO6xSykHIZ-51" value="" style="shape=image;html=1;verticalAlign=top;verticalLabelPosition=bottom;labelBackgroundColor=#ffffff;imageAspect=0;aspect=fixed;image=https://cdn4.iconfinder.com/data/icons/ui-office/512/User_Interface-40-128.png;shadow=0;fontSize=31;fontColor=#C2C2C2;strokeColor=#FFFFFF;fillColor=#666666;gradientColor=#000000;fontStyle=1;strokeWidth=2;" parent="lHeY-Ja7FgNO6xSykHIZ-0" vertex="1">
                    <mxGeometry x="1139" y="210" width="20" height="20" as="geometry"/>
                </mxCell>
                <UserObject label="A propos" id="lHeY-Ja7FgNO6xSykHIZ-52">
                    <mxCell style="rounded=0;whiteSpace=wrap;html=1;fontSize=16;strokeColor=#666666;fillColor=#C2C2C2;fontColor=#FFFFFF;fontStyle=1" parent="lHeY-Ja7FgNO6xSykHIZ-0" vertex="1">
                        <mxGeometry x="429" y="170" width="138" height="60" as="geometry"/>
                    </mxCell>
                </UserObject>
                <mxCell id="lHeY-Ja7FgNO6xSykHIZ-53" value="" style="rounded=0;whiteSpace=wrap;html=1;shadow=0;labelBackgroundColor=#666666;labelBorderColor=none;fontColor=none;strokeColor=#FFFFFF;fillColor=#FFFFFF;" parent="lHeY-Ja7FgNO6xSykHIZ-0" vertex="1">
                    <mxGeometry x="40.5" y="254" width="217" height="30" as="geometry"/>
                </mxCell>
                <UserObject label="Liste des ressources" link="data:page/id,vTVA_g-5M2A6h_QxmNmf" id="-4kVSIa_ozZF65wtWxGp-0">
                    <mxCell style="strokeColor=#666666;fillColor=#C2C2C2;strokeWidth=1;shadow=0;align=center;html=1;shape=mxgraph.mockup.containers.rrect;rSize=0;fontSize=17;labelBackgroundColor=none;labelBorderColor=none;fontColor=#FFFFFF;fontStyle=1" parent="lHeY-Ja7FgNO6xSykHIZ-0" vertex="1">
                        <mxGeometry x="659" y="230" width="180" height="25" as="geometry"/>
                    </mxCell>
                </UserObject>
            </root>
        </mxGraphModel>
    </diagram>
    <diagram id="QXc0wzj-9IYIJqLfSLoC" name="Enregistrer un emprunt_P">
        <mxGraphModel dx="2637" dy="1701" grid="1" gridSize="10" guides="1" tooltips="1" connect="1" arrows="1" fold="1" page="1" pageScale="1" pageWidth="1169" pageHeight="827" math="0" shadow="0">
            <root>
                <mxCell id="Ht--5LL4SsFFoa6DeJBo-0"/>
                <mxCell id="Ht--5LL4SsFFoa6DeJBo-1" parent="Ht--5LL4SsFFoa6DeJBo-0"/>
                <mxCell id="Ht--5LL4SsFFoa6DeJBo-2" value="" style="strokeWidth=1;shadow=0;dashed=0;align=center;html=1;shape=mxgraph.mockup.containers.browserWindow;rSize=0;strokeColor=#E6E6E6;strokeColor2=#008cff;strokeColor3=#c4c4c4;mainText=,;recursiveResize=0;" parent="Ht--5LL4SsFFoa6DeJBo-1" vertex="1">
                    <mxGeometry x="-1169" y="-827" width="1169" height="827" as="geometry"/>
                </mxCell>
                <mxCell id="7LpQNi-xT5E33smQPcfA-47" value="" style="strokeWidth=1;shadow=0;dashed=0;align=center;html=1;shape=mxgraph.mockup.containers.marginRect2;rectMarginTop=32;strokeColor=#666666;gradientColor=none;labelBackgroundColor=none;labelBorderColor=none;fontColor=#666666;fontStyle=1" parent="Ht--5LL4SsFFoa6DeJBo-2" vertex="1">
                    <mxGeometry x="20" y="230" width="1130" height="570" as="geometry"/>
                </mxCell>
                <UserObject label="Enregistrer une ressource" link="data:page/id,1-_ZAtHb4YZcZEY1NWBs" id="7LpQNi-xT5E33smQPcfA-48">
                    <mxCell style="strokeColor=#000000;fillColor=#C2C2C2;strokeWidth=1;shadow=0;dashed=0;align=center;html=1;shape=mxgraph.mockup.containers.rrect;rSize=0;fontSize=17;gradientColor=none;labelBackgroundColor=none;labelBorderColor=none;fontColor=#FFFFFF;fontStyle=1" parent="7LpQNi-xT5E33smQPcfA-47" vertex="1">
                        <mxGeometry width="220" height="25" relative="1" as="geometry">
                            <mxPoint x="19" as="offset"/>
                        </mxGeometry>
                    </mxCell>
                </UserObject>
                <mxCell id="7LpQNi-xT5E33smQPcfA-51" value="" style="strokeWidth=1;shadow=0;dashed=0;align=center;html=1;shape=mxgraph.mockup.containers.topButton;rSize=5;strokeColor=#666666;fillColor=#FFFFFF;gradientColor=none;resizeWidth=1;movable=0;deletable=1;labelBackgroundColor=none;labelBorderColor=none;fontColor=none;noLabel=1;" parent="7LpQNi-xT5E33smQPcfA-47" vertex="1">
                    <mxGeometry width="1130" height="7" relative="1" as="geometry">
                        <mxPoint y="25" as="offset"/>
                    </mxGeometry>
                </mxCell>
                <mxCell id="7LpQNi-xT5E33smQPcfA-53" value="" style="rounded=0;whiteSpace=wrap;html=1;shadow=0;labelBackgroundColor=#666666;labelBorderColor=none;fontColor=none;strokeColor=#FFFFFF;fillColor=#FFFFFF;" parent="7LpQNi-xT5E33smQPcfA-47" vertex="1">
                    <mxGeometry x="2.017857142857143" y="27" width="1127.982142857143" height="13" as="geometry"/>
                </mxCell>
                <mxCell id="7LpQNi-xT5E33smQPcfA-109" value="&lt;font style=&quot;font-size: 14px&quot;&gt;Date d'emprunt&lt;/font&gt;" style="rounded=1;arcSize=9;fillColor=#F7F8F9;align=left;spacingLeft=5;strokeColor=#DEE1E6;html=1;strokeWidth=2;fontColor=#596780;fontSize=12;sketch=1;hachureGap=4;pointerEvents=0;fontFamily=Helvetica;shadow=0;labelBackgroundColor=none;" parent="7LpQNi-xT5E33smQPcfA-47" vertex="1">
                    <mxGeometry x="433.79464285714283" y="197" width="310" height="33" as="geometry"/>
                </mxCell>
                <mxCell id="7LpQNi-xT5E33smQPcfA-110" value="" style="shape=mxgraph.gmdl.calendar;fillColor=#5A6881;strokeColor=none;sketch=0;hachureGap=4;pointerEvents=0;fontFamily=Architects Daughter;fontSource=https%3A%2F%2Ffonts.googleapis.com%2Fcss%3Ffamily%3DArchitects%2BDaughter;fontSize=20;shadow=0;labelBackgroundColor=none;fontColor=#666666;" parent="7LpQNi-xT5E33smQPcfA-109" vertex="1">
                    <mxGeometry x="1" y="0.5" width="18" height="18" relative="1" as="geometry">
                        <mxPoint x="-29" y="-9" as="offset"/>
                    </mxGeometry>
                </mxCell>
                <mxCell id="BKLH2idrcR65-9ZXg1rD-1" value="Annuler" style="strokeWidth=1;shadow=0;dashed=0;align=center;html=1;shape=mxgraph.mockup.buttons.button;strokeColor=#666666;fontColor=#ffffff;mainText=;buttonStyle=round;fontSize=17;fontStyle=1;fillColor=#FF9999;whiteSpace=wrap;labelBackgroundColor=none;fontFamily=Helvetica;" parent="7LpQNi-xT5E33smQPcfA-47" vertex="1">
                    <mxGeometry x="630" y="437" width="116" height="52" as="geometry"/>
                </mxCell>
                <mxCell id="_7fVCoLBLsspZPEHTTnK-20" value="Valider" style="strokeWidth=1;shadow=0;dashed=0;align=center;html=1;shape=mxgraph.mockup.buttons.button;strokeColor=#666666;fontColor=#ffffff;mainText=;buttonStyle=round;fontSize=17;fontStyle=1;fillColor=#97D077;whiteSpace=wrap;labelBackgroundColor=none;fontFamily=Helvetica;" parent="7LpQNi-xT5E33smQPcfA-47" vertex="1">
                    <mxGeometry x="433.79" y="437" width="116" height="52" as="geometry"/>
                </mxCell>
                <mxCell id="7LpQNi-xT5E33smQPcfA-49" value="Enregistrer un emprunt" style="strokeWidth=1;shadow=0;dashed=0;align=center;html=1;shape=mxgraph.mockup.containers.rrect;rSize=0;fontSize=17;fontColor=#C2C2C2;strokeColor=#666666;fillColor=#FFFFFF;labelBackgroundColor=none;labelBorderColor=none;fontStyle=1" parent="Ht--5LL4SsFFoa6DeJBo-2" vertex="1">
                    <mxGeometry width="220" height="25" relative="1" as="geometry">
                        <mxPoint x="259" y="230" as="offset"/>
                    </mxGeometry>
                </mxCell>
                <UserObject label="Mise hors service" link="data:page/id,VlvuZ8ZS0cmNUSl1zSAV" id="7LpQNi-xT5E33smQPcfA-50">
                    <mxCell style="strokeColor=#666666;fillColor=#C2C2C2;strokeWidth=1;shadow=0;align=center;html=1;shape=mxgraph.mockup.containers.rrect;rSize=0;fontSize=17;labelBackgroundColor=none;labelBorderColor=none;fontColor=#FFFFFF;fontStyle=1" parent="Ht--5LL4SsFFoa6DeJBo-2" vertex="1">
                        <mxGeometry width="180" height="25" relative="1" as="geometry">
                            <mxPoint x="479" y="230" as="offset"/>
                        </mxGeometry>
                    </mxCell>
                </UserObject>
                <mxCell id="Ht--5LL4SsFFoa6DeJBo-3" value="Médiathèque" style="strokeWidth=1;shadow=0;dashed=0;align=center;html=1;shape=mxgraph.mockup.containers.anchor;fontSize=17;fontColor=#666666;align=left;" parent="Ht--5LL4SsFFoa6DeJBo-2" vertex="1">
                    <mxGeometry x="60" y="12" width="150" height="26" as="geometry"/>
                </mxCell>
                <mxCell id="Ht--5LL4SsFFoa6DeJBo-4" value="https://www.mediatheque.fr" style="strokeWidth=1;shadow=0;dashed=0;align=center;html=1;shape=mxgraph.mockup.containers.anchor;rSize=0;fontSize=17;fontColor=#666666;align=left;" parent="Ht--5LL4SsFFoa6DeJBo-2" vertex="1">
                    <mxGeometry x="130" y="60" width="250" height="26" as="geometry"/>
                </mxCell>
                <mxCell id="Ht--5LL4SsFFoa6DeJBo-6" value="&lt;font style=&quot;font-size: 45px&quot; color=&quot;#a1a1a1&quot;&gt;Médiathèque&lt;/font&gt;" style="rounded=0;whiteSpace=wrap;html=1;strokeColor=#A1A1A1;" parent="Ht--5LL4SsFFoa6DeJBo-2" vertex="1">
                    <mxGeometry y="110" width="1167" height="60" as="geometry"/>
                </mxCell>
                <mxCell id="KBh8_yOKl-fqaKT3h4dW-0" value="" style="rounded=0;whiteSpace=wrap;html=1;fontSize=12;fontColor=#333333;strokeColor=#666666;fillColor=#C2C2C2;" parent="Ht--5LL4SsFFoa6DeJBo-2" vertex="1">
                    <mxGeometry y="170" width="1159" height="60" as="geometry"/>
                </mxCell>
                <UserObject label="&amp;nbsp; &amp;nbsp; &amp;nbsp; &amp;nbsp; &amp;nbsp; &amp;nbsp; &amp;nbsp;Mon profil" link="data:page/id,lGLJw4ro3tzLa91ZYzbf" id="KBh8_yOKl-fqaKT3h4dW-1">
                    <mxCell style="rounded=0;whiteSpace=wrap;html=1;fontSize=16;fontColor=#FFFFFF;strokeColor=#666666;fillColor=#C2C2C2;align=center;fontStyle=1" parent="Ht--5LL4SsFFoa6DeJBo-2" vertex="1">
                        <mxGeometry x="1001" y="170" width="167" height="60" as="geometry"/>
                    </mxCell>
                </UserObject>
                <UserObject label="Services" link="data:page/id,1y3C5vE3ofAHqLID96lu" id="KBh8_yOKl-fqaKT3h4dW-2">
                    <mxCell style="rounded=0;whiteSpace=wrap;html=1;fontSize=16;fontColor=#FFFFFF;strokeColor=#666666;fillColor=#C2C2C2;fontStyle=1" parent="Ht--5LL4SsFFoa6DeJBo-2" vertex="1">
                        <mxGeometry x="567" y="170" width="151" height="60" as="geometry"/>
                    </mxCell>
                </UserObject>
                <UserObject label="Gérer un utilisateur" link="data:page/id,gnByjOrjejcISsql6juy" id="KBh8_yOKl-fqaKT3h4dW-4">
                    <mxCell style="rounded=0;whiteSpace=wrap;html=1;fontSize=16;strokeColor=#666666;fillColor=#C2C2C2;fontColor=#FFFFFF;fontStyle=1" parent="Ht--5LL4SsFFoa6DeJBo-2" vertex="1">
                        <mxGeometry x="291" y="170" width="138" height="60" as="geometry"/>
                    </mxCell>
                </UserObject>
                <UserObject label="Gérer une ressource" link="data:page/id,1-_ZAtHb4YZcZEY1NWBs" id="KBh8_yOKl-fqaKT3h4dW-6">
                    <mxCell style="rounded=0;whiteSpace=wrap;html=1;fontSize=16;strokeColor=#666666;fillColor=#FFFFFF;fontColor=#C2C2C2;fontStyle=1" parent="Ht--5LL4SsFFoa6DeJBo-2" vertex="1">
                        <mxGeometry x="152" y="170" width="139" height="60" as="geometry"/>
                    </mxCell>
                </UserObject>
                <UserObject label="Accueil" link="data:page/id,yl5hMWLeE0mNzgKsfhri" id="KBh8_yOKl-fqaKT3h4dW-7">
                    <mxCell style="rounded=0;whiteSpace=wrap;html=1;fontSize=16;fontColor=#FFFFFF;strokeColor=#666666;fillColor=#C2C2C2;fontStyle=1" parent="Ht--5LL4SsFFoa6DeJBo-2" vertex="1">
                        <mxGeometry x="1" y="170" width="151" height="60" as="geometry"/>
                    </mxCell>
                </UserObject>
                <mxCell id="sGBySzM0l9qZKGZRxldf-20" value="ENREGISTRER UN EMPRUNT" style="fillColor=none;strokeColor=none;align=left;fontSize=22;fontColor=#666666;shadow=0;labelBackgroundColor=none;fontStyle=1;fontFamily=Helvetica;" parent="Ht--5LL4SsFFoa6DeJBo-2" vertex="1">
                    <mxGeometry x="454" y="287" width="366" height="83" as="geometry"/>
                </mxCell>
                <mxCell id="sGBySzM0l9qZKGZRxldf-21" value="Côte du document" style="html=1;shadow=0;dashed=0;shape=mxgraph.bootstrap.rrect;rSize=5;fillColor=none;strokeColor=#999999;align=left;spacing=15;fontSize=14;fontColor=#6C767D;labelBackgroundColor=none;" parent="Ht--5LL4SsFFoa6DeJBo-2" vertex="1">
                    <mxGeometry width="310" height="30" relative="1" as="geometry">
                        <mxPoint x="454" y="370" as="offset"/>
                    </mxGeometry>
                </mxCell>
                <mxCell id="sGBySzM0l9qZKGZRxldf-26" value="N° carte lecteur&amp;nbsp;" style="html=1;shadow=0;dashed=0;shape=mxgraph.bootstrap.rrect;rSize=5;fillColor=none;strokeColor=#999999;align=left;spacing=15;fontSize=14;fontColor=#6C767D;labelBackgroundColor=none;" parent="Ht--5LL4SsFFoa6DeJBo-2" vertex="1">
                    <mxGeometry x="454" y="487" width="310" height="30" as="geometry"/>
                </mxCell>
                <mxCell id="_7fVCoLBLsspZPEHTTnK-15" value="Caution&amp;nbsp;" style="html=1;shadow=0;dashed=0;shape=mxgraph.bootstrap.rrect;rSize=5;fillColor=none;strokeColor=#999999;align=left;spacing=15;fontSize=14;fontColor=#6C767D;labelBackgroundColor=none;" parent="Ht--5LL4SsFFoa6DeJBo-2" vertex="1">
                    <mxGeometry x="454" y="607" width="310" height="30" as="geometry"/>
                </mxCell>
                <mxCell id="CV-cXSsjZWBFmhV96nyX-0" value="" style="html=1;shadow=0;dashed=0;shape=mxgraph.bootstrap.rrect;rSize=5;strokeColor=#CED4DA;html=1;whiteSpace=wrap;fillColor=#FFFFFF;fontColor=#7D868C;align=left;spacingLeft=0;spacing=15;fontSize=14;" parent="Ht--5LL4SsFFoa6DeJBo-2" vertex="1">
                    <mxGeometry x="903" y="123.5" width="227" height="33" as="geometry"/>
                </mxCell>
                <mxCell id="CV-cXSsjZWBFmhV96nyX-1" value="Rechercher" style="html=1;shadow=0;dashed=0;shape=mxgraph.bootstrap.rightButton;strokeColor=#6C757D;gradientColor=inherit;fontColor=inherit;fillColor=inherit;rSize=5;perimeter=none;whiteSpace=wrap;resizeHeight=1;fontSize=14;" parent="CV-cXSsjZWBFmhV96nyX-0" vertex="1">
                    <mxGeometry x="1" width="89" height="33" relative="1" as="geometry">
                        <mxPoint x="-70" as="offset"/>
                    </mxGeometry>
                </mxCell>
                <mxCell id="R4OY2BqVAM-rVdvj8eRM-0" value="" style="verticalLabelPosition=bottom;shadow=0;dashed=0;align=center;html=1;verticalAlign=top;strokeWidth=1;shape=mxgraph.mockup.containers.userFemale;strokeColor=#666666;strokeColor2=#008cff;fontSize=12;fontColor=#FFFFFF;fillColor=#FFFFFF;gradientColor=#FFFFFF;" parent="Ht--5LL4SsFFoa6DeJBo-2" vertex="1">
                    <mxGeometry x="1019.5" y="185" width="40" height="30" as="geometry"/>
                </mxCell>
                <mxCell id="zR6T8gIoaZDsLhIaw-FY-42" value="Type" style="html=1;shadow=0;dashed=0;shape=mxgraph.bootstrap.rrect;rSize=5;fillColor=none;strokeColor=#999999;align=left;spacing=15;fontSize=14;fontColor=#6C767D;labelBackgroundColor=none;" parent="Ht--5LL4SsFFoa6DeJBo-2" vertex="1">
                    <mxGeometry x="454" y="547" width="310" height="30" as="geometry"/>
                </mxCell>
                <mxCell id="zR6T8gIoaZDsLhIaw-FY-43" value="" style="html=1;shadow=0;dashed=0;strokeColor=#6C757D;gradientColor=inherit;fontColor=inherit;fillColor=inherit;perimeter=none;whiteSpace=wrap;resizeHeight=1;fontSize=14;labelBackgroundColor=none;fontFamily=Helvetica;" parent="Ht--5LL4SsFFoa6DeJBo-2" vertex="1">
                    <mxGeometry x="734" y="547" width="30" height="30" as="geometry"/>
                </mxCell>
                <mxCell id="zR6T8gIoaZDsLhIaw-FY-44" value="" style="shape=triangle;direction=south;fillColor=#6C767D;strokeColor=none;perimeter=none;shadow=0;labelBackgroundColor=none;fontFamily=Helvetica;fontSize=22;fontColor=#666666;" parent="zR6T8gIoaZDsLhIaw-FY-43" vertex="1">
                    <mxGeometry x="0.5" y="0.5" width="10" height="5" relative="1" as="geometry">
                        <mxPoint x="-5" y="-2.5" as="offset"/>
                    </mxGeometry>
                </mxCell>
                <mxCell id="t1xC8TvSCfxlSAuZGxD9-0" value="" style="shape=image;html=1;verticalAlign=top;verticalLabelPosition=bottom;labelBackgroundColor=#ffffff;imageAspect=0;aspect=fixed;image=https://cdn4.iconfinder.com/data/icons/ui-office/512/User_Interface-40-128.png;shadow=0;fontSize=31;fontColor=#C2C2C2;strokeColor=#FFFFFF;fillColor=#666666;gradientColor=#000000;fontStyle=1;strokeWidth=2;" parent="Ht--5LL4SsFFoa6DeJBo-2" vertex="1">
                    <mxGeometry x="1139" y="210" width="20" height="20" as="geometry"/>
                </mxCell>
                <UserObject label="A propos" link="data:page/id,FaWUZfU0TmcHPQL3xSgL" id="KBh8_yOKl-fqaKT3h4dW-5">
                    <mxCell style="rounded=0;whiteSpace=wrap;html=1;fontSize=16;strokeColor=#666666;fillColor=#C2C2C2;fontColor=#FFFFFF;fontStyle=1" parent="Ht--5LL4SsFFoa6DeJBo-2" vertex="1">
                        <mxGeometry x="429" y="170" width="138" height="60" as="geometry"/>
                    </mxCell>
                </UserObject>
                <mxCell id="7LpQNi-xT5E33smQPcfA-55" value="" style="rounded=0;whiteSpace=wrap;html=1;shadow=0;labelBackgroundColor=#666666;labelBorderColor=none;fontColor=none;strokeColor=#FFFFFF;fillColor=#FFFFFF;" parent="Ht--5LL4SsFFoa6DeJBo-2" vertex="1">
                    <mxGeometry x="260.5" y="251" width="217" height="30" as="geometry"/>
                </mxCell>
                <UserObject label="Liste des ressources" link="data:page/id,vTVA_g-5M2A6h_QxmNmf" id="pNj65ip4nuHlWZwzE8F8-0">
                    <mxCell style="strokeColor=#666666;fillColor=#C2C2C2;strokeWidth=1;shadow=0;align=center;html=1;shape=mxgraph.mockup.containers.rrect;rSize=0;fontSize=17;labelBackgroundColor=none;labelBorderColor=none;fontColor=#FFFFFF;fontStyle=1" parent="Ht--5LL4SsFFoa6DeJBo-1" vertex="1">
                        <mxGeometry x="-510" y="-597" width="180" height="25" as="geometry"/>
                    </mxCell>
                </UserObject>
            </root>
        </mxGraphModel>
    </diagram>
    <diagram id="VlvuZ8ZS0cmNUSl1zSAV" name="Mise hors service_P">
        <mxGraphModel dx="2637" dy="1701" grid="1" gridSize="10" guides="1" tooltips="1" connect="1" arrows="1" fold="1" page="1" pageScale="1" pageWidth="1169" pageHeight="827" math="0" shadow="0">
            <root>
                <mxCell id="DXtaIpAcsTSbSKvwZ36n-0"/>
                <mxCell id="DXtaIpAcsTSbSKvwZ36n-1" parent="DXtaIpAcsTSbSKvwZ36n-0"/>
                <mxCell id="5K3WlaHOZmCgJ8-AgUM8-0" value="" style="strokeWidth=1;shadow=0;dashed=0;align=center;html=1;shape=mxgraph.mockup.containers.browserWindow;rSize=0;strokeColor=#E6E6E6;strokeColor2=#008cff;strokeColor3=#c4c4c4;mainText=,;recursiveResize=0;" parent="DXtaIpAcsTSbSKvwZ36n-1" vertex="1">
                    <mxGeometry x="-1169" y="-827" width="1169" height="827" as="geometry"/>
                </mxCell>
                <mxCell id="5K3WlaHOZmCgJ8-AgUM8-1" value="" style="strokeWidth=1;shadow=0;dashed=0;align=center;html=1;shape=mxgraph.mockup.containers.marginRect2;rectMarginTop=32;strokeColor=#666666;gradientColor=none;labelBackgroundColor=none;labelBorderColor=none;fontColor=#666666;fontStyle=1" parent="5K3WlaHOZmCgJ8-AgUM8-0" vertex="1">
                    <mxGeometry x="20" y="230" width="1130" height="570" as="geometry"/>
                </mxCell>
                <UserObject label="Enregistrer une ressource" link="data:page/id,1-_ZAtHb4YZcZEY1NWBs" id="5K3WlaHOZmCgJ8-AgUM8-2">
                    <mxCell style="strokeColor=#000000;fillColor=#C2C2C2;strokeWidth=1;shadow=0;dashed=0;align=center;html=1;shape=mxgraph.mockup.containers.rrect;rSize=0;fontSize=17;gradientColor=none;labelBackgroundColor=none;labelBorderColor=none;fontColor=#FFFFFF;fontStyle=1" parent="5K3WlaHOZmCgJ8-AgUM8-1" vertex="1">
                        <mxGeometry width="220" height="25" relative="1" as="geometry">
                            <mxPoint x="19" as="offset"/>
                        </mxGeometry>
                    </mxCell>
                </UserObject>
                <mxCell id="5K3WlaHOZmCgJ8-AgUM8-3" value="" style="strokeWidth=1;shadow=0;dashed=0;align=center;html=1;shape=mxgraph.mockup.containers.topButton;rSize=5;strokeColor=#666666;fillColor=#FFFFFF;gradientColor=none;resizeWidth=1;movable=0;deletable=1;labelBackgroundColor=none;labelBorderColor=none;fontColor=none;noLabel=1;" parent="5K3WlaHOZmCgJ8-AgUM8-1" vertex="1">
                    <mxGeometry width="1130" height="7" relative="1" as="geometry">
                        <mxPoint y="25" as="offset"/>
                    </mxGeometry>
                </mxCell>
                <mxCell id="5K3WlaHOZmCgJ8-AgUM8-4" value="" style="rounded=0;whiteSpace=wrap;html=1;shadow=0;labelBackgroundColor=#666666;labelBorderColor=none;fontColor=none;strokeColor=#FFFFFF;fillColor=#FFFFFF;" parent="5K3WlaHOZmCgJ8-AgUM8-1" vertex="1">
                    <mxGeometry x="2.017857142857143" y="27" width="1127.982142857143" height="13" as="geometry"/>
                </mxCell>
                <mxCell id="5K3WlaHOZmCgJ8-AgUM8-48" value="Type" style="html=1;shadow=0;dashed=0;shape=mxgraph.bootstrap.rrect;rSize=5;fillColor=none;strokeColor=#999999;align=left;spacing=15;fontSize=14;fontColor=#6C767D;labelBackgroundColor=none;" parent="5K3WlaHOZmCgJ8-AgUM8-1" vertex="1">
                    <mxGeometry x="398.01" y="260" width="310" height="30" as="geometry"/>
                </mxCell>
                <mxCell id="5K3WlaHOZmCgJ8-AgUM8-23" value="Côte du document" style="html=1;shadow=0;dashed=0;shape=mxgraph.bootstrap.rrect;rSize=5;fillColor=none;strokeColor=#999999;align=left;spacing=15;fontSize=14;fontColor=#6C767D;labelBackgroundColor=none;" parent="5K3WlaHOZmCgJ8-AgUM8-1" vertex="1">
                    <mxGeometry x="398.01" y="200" width="310" height="30" as="geometry"/>
                </mxCell>
                <mxCell id="5K3WlaHOZmCgJ8-AgUM8-22" value="MISE HORS SERVICE" style="fillColor=none;strokeColor=none;align=left;fontSize=22;fontColor=#666666;shadow=0;labelBackgroundColor=none;fontStyle=1;fontFamily=Helvetica;" parent="5K3WlaHOZmCgJ8-AgUM8-1" vertex="1">
                    <mxGeometry x="402.51" y="117" width="331.5" height="83" as="geometry"/>
                </mxCell>
                <mxCell id="5K3WlaHOZmCgJ8-AgUM8-49" value="" style="html=1;shadow=0;dashed=0;strokeColor=#6C757D;gradientColor=inherit;fontColor=inherit;fillColor=inherit;perimeter=none;whiteSpace=wrap;resizeHeight=1;fontSize=14;labelBackgroundColor=none;fontFamily=Helvetica;" parent="5K3WlaHOZmCgJ8-AgUM8-1" vertex="1">
                    <mxGeometry x="678.01" y="260" width="30" height="30" as="geometry"/>
                </mxCell>
                <mxCell id="5K3WlaHOZmCgJ8-AgUM8-50" value="" style="shape=triangle;direction=south;fillColor=#6C767D;strokeColor=none;perimeter=none;shadow=0;labelBackgroundColor=none;fontFamily=Helvetica;fontSize=22;fontColor=#666666;" parent="5K3WlaHOZmCgJ8-AgUM8-49" vertex="1">
                    <mxGeometry x="0.5" y="0.5" width="10" height="5" relative="1" as="geometry">
                        <mxPoint x="-5" y="-2.5" as="offset"/>
                    </mxGeometry>
                </mxCell>
                <mxCell id="0_7W18jsGlc_7ia26yk4-1" value="Annuler" style="strokeWidth=1;shadow=0;dashed=0;align=center;html=1;shape=mxgraph.mockup.buttons.button;strokeColor=#666666;fontColor=#ffffff;mainText=;buttonStyle=round;fontSize=17;fontStyle=1;fillColor=#FF9999;whiteSpace=wrap;labelBackgroundColor=none;fontFamily=Helvetica;" parent="5K3WlaHOZmCgJ8-AgUM8-1" vertex="1">
                    <mxGeometry x="592.01" y="337" width="116" height="52" as="geometry"/>
                </mxCell>
                <mxCell id="0_7W18jsGlc_7ia26yk4-0" value="Valider" style="strokeWidth=1;shadow=0;dashed=0;align=center;html=1;shape=mxgraph.mockup.buttons.button;strokeColor=#666666;fontColor=#ffffff;mainText=;buttonStyle=round;fontSize=17;fontStyle=1;fillColor=#97D077;whiteSpace=wrap;labelBackgroundColor=none;fontFamily=Helvetica;" parent="5K3WlaHOZmCgJ8-AgUM8-1" vertex="1">
                    <mxGeometry x="398.01" y="337" width="116" height="52" as="geometry"/>
                </mxCell>
                <UserObject label="Enregistrer un emprunt" link="data:page/id,QXc0wzj-9IYIJqLfSLoC" id="5K3WlaHOZmCgJ8-AgUM8-8">
                    <mxCell style="strokeWidth=1;shadow=0;dashed=0;align=center;html=1;shape=mxgraph.mockup.containers.rrect;rSize=0;fontSize=17;fontColor=#FFFFFF;strokeColor=#666666;fillColor=#C2C2C2;labelBackgroundColor=none;labelBorderColor=none;fontStyle=1" parent="5K3WlaHOZmCgJ8-AgUM8-0" vertex="1">
                        <mxGeometry width="220" height="25" relative="1" as="geometry">
                            <mxPoint x="259" y="230" as="offset"/>
                        </mxGeometry>
                    </mxCell>
                </UserObject>
                <mxCell id="5K3WlaHOZmCgJ8-AgUM8-9" value="Mise hors service" style="strokeColor=#666666;fillColor=#FFFFFF;strokeWidth=1;shadow=0;align=center;html=1;shape=mxgraph.mockup.containers.rrect;rSize=0;fontSize=17;labelBackgroundColor=none;labelBorderColor=none;fontColor=#C2C2C2;fontStyle=1" parent="5K3WlaHOZmCgJ8-AgUM8-0" vertex="1">
                    <mxGeometry width="180" height="25" relative="1" as="geometry">
                        <mxPoint x="479" y="230" as="offset"/>
                    </mxGeometry>
                </mxCell>
                <mxCell id="5K3WlaHOZmCgJ8-AgUM8-10" value="Médiathèque" style="strokeWidth=1;shadow=0;dashed=0;align=center;html=1;shape=mxgraph.mockup.containers.anchor;fontSize=17;fontColor=#666666;align=left;" parent="5K3WlaHOZmCgJ8-AgUM8-0" vertex="1">
                    <mxGeometry x="60" y="12" width="150" height="26" as="geometry"/>
                </mxCell>
                <mxCell id="5K3WlaHOZmCgJ8-AgUM8-11" value="https://www.mediatheque.fr" style="strokeWidth=1;shadow=0;dashed=0;align=center;html=1;shape=mxgraph.mockup.containers.anchor;rSize=0;fontSize=17;fontColor=#666666;align=left;" parent="5K3WlaHOZmCgJ8-AgUM8-0" vertex="1">
                    <mxGeometry x="130" y="60" width="250" height="26" as="geometry"/>
                </mxCell>
                <mxCell id="5K3WlaHOZmCgJ8-AgUM8-12" value="&lt;font style=&quot;font-size: 45px&quot; color=&quot;#a1a1a1&quot;&gt;Médiathèque&lt;/font&gt;" style="rounded=0;whiteSpace=wrap;html=1;strokeColor=#A1A1A1;" parent="5K3WlaHOZmCgJ8-AgUM8-0" vertex="1">
                    <mxGeometry y="110" width="1167" height="60" as="geometry"/>
                </mxCell>
                <mxCell id="5K3WlaHOZmCgJ8-AgUM8-13" value="" style="rounded=0;whiteSpace=wrap;html=1;fontSize=12;fontColor=#333333;strokeColor=#666666;fillColor=#C2C2C2;" parent="5K3WlaHOZmCgJ8-AgUM8-0" vertex="1">
                    <mxGeometry y="170" width="1159" height="60" as="geometry"/>
                </mxCell>
                <UserObject label="&amp;nbsp; &amp;nbsp; &amp;nbsp; &amp;nbsp; &amp;nbsp; &amp;nbsp; &amp;nbsp;Mon profil" id="5K3WlaHOZmCgJ8-AgUM8-14">
                    <mxCell style="rounded=0;whiteSpace=wrap;html=1;fontSize=16;fontColor=#FFFFFF;strokeColor=#666666;fillColor=#C2C2C2;align=center;fontStyle=1" parent="5K3WlaHOZmCgJ8-AgUM8-0" vertex="1">
                        <mxGeometry x="1001" y="170" width="167" height="60" as="geometry"/>
                    </mxCell>
                </UserObject>
                <UserObject label="Services" id="5K3WlaHOZmCgJ8-AgUM8-15">
                    <mxCell style="rounded=0;whiteSpace=wrap;html=1;fontSize=16;fontColor=#FFFFFF;strokeColor=#666666;fillColor=#C2C2C2;fontStyle=1" parent="5K3WlaHOZmCgJ8-AgUM8-0" vertex="1">
                        <mxGeometry x="567" y="170" width="151" height="60" as="geometry"/>
                    </mxCell>
                </UserObject>
                <UserObject label="Gérer un utilisateur" id="5K3WlaHOZmCgJ8-AgUM8-17">
                    <mxCell style="rounded=0;whiteSpace=wrap;html=1;fontSize=16;strokeColor=#666666;fillColor=#C2C2C2;fontColor=#FFFFFF;fontStyle=1" parent="5K3WlaHOZmCgJ8-AgUM8-0" vertex="1">
                        <mxGeometry x="291" y="170" width="138" height="60" as="geometry"/>
                    </mxCell>
                </UserObject>
                <UserObject label="Gérer une ressource" id="5K3WlaHOZmCgJ8-AgUM8-18">
                    <mxCell style="rounded=0;whiteSpace=wrap;html=1;fontSize=16;strokeColor=#666666;fillColor=#FFFFFF;fontColor=#C2C2C2;fontStyle=1" parent="5K3WlaHOZmCgJ8-AgUM8-0" vertex="1">
                        <mxGeometry x="152" y="170" width="139" height="60" as="geometry"/>
                    </mxCell>
                </UserObject>
                <UserObject label="Accueil" id="5K3WlaHOZmCgJ8-AgUM8-19">
                    <mxCell style="rounded=0;whiteSpace=wrap;html=1;fontSize=16;fontColor=#FFFFFF;strokeColor=#666666;fillColor=#C2C2C2;fontStyle=1" parent="5K3WlaHOZmCgJ8-AgUM8-0" vertex="1">
                        <mxGeometry x="1" y="170" width="151" height="60" as="geometry"/>
                    </mxCell>
                </UserObject>
                <mxCell id="5K3WlaHOZmCgJ8-AgUM8-28" value="" style="html=1;shadow=0;dashed=0;shape=mxgraph.bootstrap.rrect;rSize=5;strokeColor=#CED4DA;html=1;whiteSpace=wrap;fillColor=#FFFFFF;fontColor=#7D868C;align=left;spacingLeft=0;spacing=15;fontSize=14;" parent="5K3WlaHOZmCgJ8-AgUM8-0" vertex="1">
                    <mxGeometry x="903" y="123.5" width="227" height="33" as="geometry"/>
                </mxCell>
                <mxCell id="5K3WlaHOZmCgJ8-AgUM8-29" value="Rechercher" style="html=1;shadow=0;dashed=0;shape=mxgraph.bootstrap.rightButton;strokeColor=#6C757D;gradientColor=inherit;fontColor=inherit;fillColor=inherit;rSize=5;perimeter=none;whiteSpace=wrap;resizeHeight=1;fontSize=14;" parent="5K3WlaHOZmCgJ8-AgUM8-28" vertex="1">
                    <mxGeometry x="1" width="89" height="33" relative="1" as="geometry">
                        <mxPoint x="-70" as="offset"/>
                    </mxGeometry>
                </mxCell>
                <mxCell id="5K3WlaHOZmCgJ8-AgUM8-30" value="" style="verticalLabelPosition=bottom;shadow=0;dashed=0;align=center;html=1;verticalAlign=top;strokeWidth=1;shape=mxgraph.mockup.containers.userFemale;strokeColor=#666666;strokeColor2=#008cff;fontSize=12;fontColor=#FFFFFF;fillColor=#FFFFFF;gradientColor=#FFFFFF;" parent="5K3WlaHOZmCgJ8-AgUM8-0" vertex="1">
                    <mxGeometry x="1019.5" y="185" width="40" height="30" as="geometry"/>
                </mxCell>
                <mxCell id="5K3WlaHOZmCgJ8-AgUM8-51" value="" style="shape=image;html=1;verticalAlign=top;verticalLabelPosition=bottom;labelBackgroundColor=#ffffff;imageAspect=0;aspect=fixed;image=https://cdn4.iconfinder.com/data/icons/ui-office/512/User_Interface-40-128.png;shadow=0;fontSize=31;fontColor=#C2C2C2;strokeColor=#FFFFFF;fillColor=#666666;gradientColor=#000000;fontStyle=1;strokeWidth=2;" parent="5K3WlaHOZmCgJ8-AgUM8-0" vertex="1">
                    <mxGeometry x="1139" y="210" width="20" height="20" as="geometry"/>
                </mxCell>
                <UserObject label="A propos" id="5K3WlaHOZmCgJ8-AgUM8-52">
                    <mxCell style="rounded=0;whiteSpace=wrap;html=1;fontSize=16;strokeColor=#666666;fillColor=#C2C2C2;fontColor=#FFFFFF;fontStyle=1" parent="5K3WlaHOZmCgJ8-AgUM8-0" vertex="1">
                        <mxGeometry x="429" y="170" width="138" height="60" as="geometry"/>
                    </mxCell>
                </UserObject>
                <mxCell id="5K3WlaHOZmCgJ8-AgUM8-53" value="" style="rounded=0;whiteSpace=wrap;html=1;shadow=0;labelBackgroundColor=#666666;labelBorderColor=none;fontColor=none;strokeColor=#FFFFFF;fillColor=#FFFFFF;" parent="5K3WlaHOZmCgJ8-AgUM8-0" vertex="1">
                    <mxGeometry x="479.5" y="251" width="178" height="30" as="geometry"/>
                </mxCell>
                <UserObject label="Liste des ressources" link="data:page/id,vTVA_g-5M2A6h_QxmNmf" id="IvPqCFBMBa1ljd2vXnir-0">
                    <mxCell style="strokeColor=#666666;fillColor=#C2C2C2;strokeWidth=1;shadow=0;align=center;html=1;shape=mxgraph.mockup.containers.rrect;rSize=0;fontSize=17;labelBackgroundColor=none;labelBorderColor=none;fontColor=#FFFFFF;fontStyle=1" parent="DXtaIpAcsTSbSKvwZ36n-1" vertex="1">
                        <mxGeometry x="-510" y="-597" width="180" height="25" as="geometry"/>
                    </mxCell>
                </UserObject>
            </root>
        </mxGraphModel>
    </diagram>
    <diagram id="vTVA_g-5M2A6h_QxmNmf" name="Liste des ressources_P">
        <mxGraphModel dx="2637" dy="1701" grid="1" gridSize="10" guides="1" tooltips="1" connect="1" arrows="1" fold="1" page="1" pageScale="1" pageWidth="1169" pageHeight="827" math="0" shadow="0">
            <root>
                <mxCell id="LlZQarq9VwQ1jcYVB5PJ-0"/>
                <mxCell id="LlZQarq9VwQ1jcYVB5PJ-1" parent="LlZQarq9VwQ1jcYVB5PJ-0"/>
                <mxCell id="4mfoL1ZJCt8i8z7t8F9_-0" value="" style="strokeWidth=1;shadow=0;dashed=0;align=center;html=1;shape=mxgraph.mockup.containers.browserWindow;rSize=0;strokeColor=#E6E6E6;strokeColor2=#008cff;strokeColor3=#c4c4c4;mainText=,;recursiveResize=0;" parent="LlZQarq9VwQ1jcYVB5PJ-1" vertex="1">
                    <mxGeometry x="-1169" y="-827" width="1169" height="827" as="geometry"/>
                </mxCell>
                <mxCell id="4mfoL1ZJCt8i8z7t8F9_-1" value="" style="strokeWidth=1;shadow=0;dashed=0;align=center;html=1;shape=mxgraph.mockup.containers.marginRect2;rectMarginTop=32;strokeColor=#666666;gradientColor=none;labelBackgroundColor=none;labelBorderColor=none;fontColor=#666666;fontStyle=1" parent="4mfoL1ZJCt8i8z7t8F9_-0" vertex="1">
                    <mxGeometry x="20" y="230" width="1130" height="570" as="geometry"/>
                </mxCell>
                <UserObject label="Enregistrer une ressource" link="data:page/id,1-_ZAtHb4YZcZEY1NWBs" id="4mfoL1ZJCt8i8z7t8F9_-2">
                    <mxCell style="strokeColor=#000000;fillColor=#C2C2C2;strokeWidth=1;shadow=0;dashed=0;align=center;html=1;shape=mxgraph.mockup.containers.rrect;rSize=0;fontSize=17;gradientColor=none;labelBackgroundColor=none;labelBorderColor=none;fontColor=#FFFFFF;fontStyle=1" parent="4mfoL1ZJCt8i8z7t8F9_-1" vertex="1">
                        <mxGeometry width="220" height="25" relative="1" as="geometry">
                            <mxPoint x="19" as="offset"/>
                        </mxGeometry>
                    </mxCell>
                </UserObject>
                <mxCell id="4mfoL1ZJCt8i8z7t8F9_-3" value="" style="strokeWidth=1;shadow=0;dashed=0;align=center;html=1;shape=mxgraph.mockup.containers.topButton;rSize=5;strokeColor=#666666;fillColor=#FFFFFF;gradientColor=none;resizeWidth=1;movable=0;deletable=1;labelBackgroundColor=none;labelBorderColor=none;fontColor=none;noLabel=1;" parent="4mfoL1ZJCt8i8z7t8F9_-1" vertex="1">
                    <mxGeometry width="1130" height="7" relative="1" as="geometry">
                        <mxPoint y="25" as="offset"/>
                    </mxGeometry>
                </mxCell>
                <mxCell id="4mfoL1ZJCt8i8z7t8F9_-4" value="" style="rounded=0;whiteSpace=wrap;html=1;shadow=0;labelBackgroundColor=#666666;labelBorderColor=none;fontColor=none;strokeColor=#FFFFFF;fillColor=#FFFFFF;" parent="4mfoL1ZJCt8i8z7t8F9_-1" vertex="1">
                    <mxGeometry x="2.017857142857143" y="27" width="1127.982142857143" height="13" as="geometry"/>
                </mxCell>
                <mxCell id="ypyNhgpiWs7xWqESMbv6-0" value="" style="shape=table;startSize=0;container=1;collapsible=0;childLayout=tableLayout;shadow=0;labelBackgroundColor=none;labelBorderColor=none;strokeColor=#858585;fillColor=#FFFFFF;swimlaneFillColor=default;fontColor=default;" parent="4mfoL1ZJCt8i8z7t8F9_-1" vertex="1">
                    <mxGeometry x="259" y="67" width="760" height="434" as="geometry"/>
                </mxCell>
                <mxCell id="ypyNhgpiWs7xWqESMbv6-1" value="" style="shape=tableRow;horizontal=0;startSize=0;swimlaneHead=0;swimlaneBody=0;top=0;left=0;bottom=0;right=0;collapsible=0;dropTarget=0;fillColor=none;points=[[0,0.5],[1,0.5]];portConstraint=eastwest;shadow=0;labelBackgroundColor=none;labelBorderColor=none;fontColor=default;strokeColor=#FFFFFF;" parent="ypyNhgpiWs7xWqESMbv6-0" vertex="1">
                    <mxGeometry width="760" height="40" as="geometry"/>
                </mxCell>
                <mxCell id="ypyNhgpiWs7xWqESMbv6-2" value="N° côte&lt;span style=&quot;white-space: pre; font-size: 16px;&quot;&gt; &lt;/span&gt;" style="shape=partialRectangle;html=1;whiteSpace=wrap;connectable=0;overflow=hidden;fillColor=#C2C2C2;top=0;left=0;bottom=0;right=0;pointerEvents=1;shadow=0;labelBackgroundColor=none;labelBorderColor=none;fontColor=#FFFFFF;strokeColor=#FFFFFF;strokeWidth=1;gradientColor=none;fontStyle=1;fontSize=16;perimeterSpacing=1;" parent="ypyNhgpiWs7xWqESMbv6-1" vertex="1">
                    <mxGeometry width="130" height="40" as="geometry">
                        <mxRectangle width="130" height="40" as="alternateBounds"/>
                    </mxGeometry>
                </mxCell>
                <mxCell id="ypyNhgpiWs7xWqESMbv6-3" value="Titre" style="shape=partialRectangle;html=1;whiteSpace=wrap;connectable=0;overflow=hidden;fillColor=#C2C2C2;top=0;left=0;bottom=0;right=0;pointerEvents=1;shadow=0;labelBackgroundColor=none;labelBorderColor=none;fontColor=#FFFFFF;strokeColor=#000000;fontStyle=1;fontSize=16;" parent="ypyNhgpiWs7xWqESMbv6-1" vertex="1">
                    <mxGeometry x="130" width="210" height="40" as="geometry">
                        <mxRectangle width="210" height="40" as="alternateBounds"/>
                    </mxGeometry>
                </mxCell>
                <mxCell id="ypyNhgpiWs7xWqESMbv6-4" value="Auteur / date de publication" style="shape=partialRectangle;html=1;whiteSpace=wrap;connectable=0;overflow=hidden;fillColor=#C2C2C2;top=0;left=0;bottom=0;right=0;pointerEvents=1;shadow=0;labelBackgroundColor=none;labelBorderColor=none;fontColor=#FFFFFF;strokeColor=#000000;fontStyle=1;fontSize=16;" parent="ypyNhgpiWs7xWqESMbv6-1" vertex="1">
                    <mxGeometry x="340" width="140" height="40" as="geometry">
                        <mxRectangle width="140" height="40" as="alternateBounds"/>
                    </mxGeometry>
                </mxCell>
                <mxCell id="ypyNhgpiWs7xWqESMbv6-5" value="Type" style="shape=partialRectangle;html=1;whiteSpace=wrap;connectable=0;overflow=hidden;fillColor=#C2C2C2;top=0;left=0;bottom=0;right=0;pointerEvents=1;shadow=0;labelBackgroundColor=none;labelBorderColor=none;fontColor=#FFFFFF;strokeColor=#000000;fontStyle=1;fontSize=16;" parent="ypyNhgpiWs7xWqESMbv6-1" vertex="1">
                    <mxGeometry x="480" width="100" height="40" as="geometry">
                        <mxRectangle width="100" height="40" as="alternateBounds"/>
                    </mxGeometry>
                </mxCell>
                <mxCell id="ypyNhgpiWs7xWqESMbv6-6" value="Etat" style="shape=partialRectangle;html=1;whiteSpace=wrap;connectable=0;overflow=hidden;fillColor=#C2C2C2;top=0;left=0;bottom=0;right=0;pointerEvents=1;shadow=0;labelBackgroundColor=none;labelBorderColor=none;fontColor=#FFFFFF;strokeColor=#000000;fontStyle=1;fontSize=16;" parent="ypyNhgpiWs7xWqESMbv6-1" vertex="1">
                    <mxGeometry x="580" width="90" height="40" as="geometry">
                        <mxRectangle width="90" height="40" as="alternateBounds"/>
                    </mxGeometry>
                </mxCell>
                <mxCell id="aR-VuifSBamQZJh6OWsi-0" value="Fiche" style="shape=partialRectangle;html=1;whiteSpace=wrap;connectable=0;overflow=hidden;fillColor=#C2C2C2;top=0;left=0;bottom=0;right=0;pointerEvents=1;shadow=0;labelBackgroundColor=none;labelBorderColor=none;fontColor=#FFFFFF;strokeColor=#000000;fontStyle=1;fontSize=16;" parent="ypyNhgpiWs7xWqESMbv6-1" vertex="1">
                    <mxGeometry x="670" width="90" height="40" as="geometry">
                        <mxRectangle width="90" height="40" as="alternateBounds"/>
                    </mxGeometry>
                </mxCell>
                <mxCell id="ypyNhgpiWs7xWqESMbv6-7" value="" style="shape=tableRow;horizontal=0;startSize=0;swimlaneHead=0;swimlaneBody=0;top=0;left=0;bottom=0;right=0;collapsible=0;dropTarget=0;fillColor=none;points=[[0,0.5],[1,0.5]];portConstraint=eastwest;shadow=0;labelBackgroundColor=none;labelBorderColor=none;fontColor=default;strokeColor=#FFFFFF;" parent="ypyNhgpiWs7xWqESMbv6-0" vertex="1">
                    <mxGeometry y="40" width="760" height="56" as="geometry"/>
                </mxCell>
                <mxCell id="ypyNhgpiWs7xWqESMbv6-8" value="A5GHLK" style="shape=partialRectangle;html=1;whiteSpace=wrap;connectable=0;overflow=hidden;fillColor=none;top=0;left=0;bottom=0;right=0;pointerEvents=1;shadow=0;labelBackgroundColor=none;labelBorderColor=none;fontColor=default;strokeColor=#FFFFFF;align=left;" parent="ypyNhgpiWs7xWqESMbv6-7" vertex="1">
                    <mxGeometry width="130" height="56" as="geometry">
                        <mxRectangle width="130" height="56" as="alternateBounds"/>
                    </mxGeometry>
                </mxCell>
                <mxCell id="ypyNhgpiWs7xWqESMbv6-9" value="Harry potter et la coupe de feu" style="shape=partialRectangle;html=1;whiteSpace=wrap;connectable=0;overflow=hidden;fillColor=none;top=0;left=0;bottom=0;right=0;pointerEvents=1;shadow=0;labelBackgroundColor=none;labelBorderColor=none;fontColor=default;strokeColor=#FFFFFF;align=left;" parent="ypyNhgpiWs7xWqESMbv6-7" vertex="1">
                    <mxGeometry x="130" width="210" height="56" as="geometry">
                        <mxRectangle width="210" height="56" as="alternateBounds"/>
                    </mxGeometry>
                </mxCell>
                <mxCell id="ypyNhgpiWs7xWqESMbv6-10" value="J.K Rowling" style="shape=partialRectangle;html=1;whiteSpace=wrap;connectable=0;overflow=hidden;fillColor=none;top=0;left=0;bottom=0;right=0;pointerEvents=1;shadow=0;labelBackgroundColor=none;labelBorderColor=none;fontColor=default;strokeColor=#FFFFFF;align=left;" parent="ypyNhgpiWs7xWqESMbv6-7" vertex="1">
                    <mxGeometry x="340" width="140" height="56" as="geometry">
                        <mxRectangle width="140" height="56" as="alternateBounds"/>
                    </mxGeometry>
                </mxCell>
                <mxCell id="ypyNhgpiWs7xWqESMbv6-11" value="Livre" style="shape=partialRectangle;html=1;whiteSpace=wrap;connectable=0;overflow=hidden;fillColor=none;top=0;left=0;bottom=0;right=0;pointerEvents=1;shadow=0;labelBackgroundColor=none;labelBorderColor=none;fontColor=default;strokeColor=#FFFFFF;align=left;" parent="ypyNhgpiWs7xWqESMbv6-7" vertex="1">
                    <mxGeometry x="480" width="100" height="56" as="geometry">
                        <mxRectangle width="100" height="56" as="alternateBounds"/>
                    </mxGeometry>
                </mxCell>
                <mxCell id="ypyNhgpiWs7xWqESMbv6-12" value="&lt;font color=&quot;#009900&quot;&gt;Dispo&lt;/font&gt;" style="shape=partialRectangle;html=1;whiteSpace=wrap;connectable=0;overflow=hidden;fillColor=none;top=0;left=0;bottom=0;right=0;pointerEvents=1;shadow=0;labelBackgroundColor=none;labelBorderColor=none;fontColor=default;strokeColor=#FFFFFF;align=left;" parent="ypyNhgpiWs7xWqESMbv6-7" vertex="1">
                    <mxGeometry x="580" width="90" height="56" as="geometry">
                        <mxRectangle width="90" height="56" as="alternateBounds"/>
                    </mxGeometry>
                </mxCell>
                <mxCell id="aR-VuifSBamQZJh6OWsi-1" style="shape=partialRectangle;html=1;whiteSpace=wrap;connectable=0;overflow=hidden;fillColor=none;top=0;left=0;bottom=0;right=0;pointerEvents=1;shadow=0;labelBackgroundColor=none;labelBorderColor=none;fontColor=default;strokeColor=#FFFFFF;align=left;" parent="ypyNhgpiWs7xWqESMbv6-7" vertex="1">
                    <mxGeometry x="670" width="90" height="56" as="geometry">
                        <mxRectangle width="90" height="56" as="alternateBounds"/>
                    </mxGeometry>
                </mxCell>
                <mxCell id="ypyNhgpiWs7xWqESMbv6-13" value="" style="shape=tableRow;horizontal=0;startSize=0;swimlaneHead=0;swimlaneBody=0;top=0;left=0;bottom=0;right=0;collapsible=0;dropTarget=0;fillColor=none;points=[[0,0.5],[1,0.5]];portConstraint=eastwest;shadow=0;labelBackgroundColor=none;labelBorderColor=none;fontColor=default;strokeColor=#FFFFFF;" parent="ypyNhgpiWs7xWqESMbv6-0" vertex="1">
                    <mxGeometry y="96" width="760" height="56" as="geometry"/>
                </mxCell>
                <mxCell id="ypyNhgpiWs7xWqESMbv6-14" value="B2E47DF" style="shape=partialRectangle;html=1;whiteSpace=wrap;connectable=0;overflow=hidden;fillColor=none;top=0;left=0;bottom=0;right=0;pointerEvents=1;shadow=0;labelBackgroundColor=none;labelBorderColor=none;fontColor=default;strokeColor=#FFFFFF;align=left;" parent="ypyNhgpiWs7xWqESMbv6-13" vertex="1">
                    <mxGeometry width="130" height="56" as="geometry">
                        <mxRectangle width="130" height="56" as="alternateBounds"/>
                    </mxGeometry>
                </mxCell>
                <mxCell id="ypyNhgpiWs7xWqESMbv6-15" value="Les misérables" style="shape=partialRectangle;html=1;whiteSpace=wrap;connectable=0;overflow=hidden;fillColor=none;top=0;left=0;bottom=0;right=0;pointerEvents=1;shadow=0;labelBackgroundColor=none;labelBorderColor=none;fontColor=default;strokeColor=#FFFFFF;align=left;" parent="ypyNhgpiWs7xWqESMbv6-13" vertex="1">
                    <mxGeometry x="130" width="210" height="56" as="geometry">
                        <mxRectangle width="210" height="56" as="alternateBounds"/>
                    </mxGeometry>
                </mxCell>
                <mxCell id="ypyNhgpiWs7xWqESMbv6-16" value="V. Hugo" style="shape=partialRectangle;html=1;whiteSpace=wrap;connectable=0;overflow=hidden;fillColor=none;top=0;left=0;bottom=0;right=0;pointerEvents=1;shadow=0;labelBackgroundColor=none;labelBorderColor=none;fontColor=default;strokeColor=#FFFFFF;align=left;" parent="ypyNhgpiWs7xWqESMbv6-13" vertex="1">
                    <mxGeometry x="340" width="140" height="56" as="geometry">
                        <mxRectangle width="140" height="56" as="alternateBounds"/>
                    </mxGeometry>
                </mxCell>
                <mxCell id="ypyNhgpiWs7xWqESMbv6-17" value="Livre" style="shape=partialRectangle;html=1;whiteSpace=wrap;connectable=0;overflow=hidden;fillColor=none;top=0;left=0;bottom=0;right=0;pointerEvents=1;shadow=0;labelBackgroundColor=none;labelBorderColor=none;fontColor=default;strokeColor=#FFFFFF;align=left;" parent="ypyNhgpiWs7xWqESMbv6-13" vertex="1">
                    <mxGeometry x="480" width="100" height="56" as="geometry">
                        <mxRectangle width="100" height="56" as="alternateBounds"/>
                    </mxGeometry>
                </mxCell>
                <mxCell id="ypyNhgpiWs7xWqESMbv6-18" value="&lt;font color=&quot;#009900&quot;&gt;Dispo&lt;/font&gt;" style="shape=partialRectangle;html=1;whiteSpace=wrap;connectable=0;overflow=hidden;fillColor=none;top=0;left=0;bottom=0;right=0;pointerEvents=1;shadow=0;labelBackgroundColor=none;labelBorderColor=none;fontColor=default;strokeColor=#FFFFFF;align=left;" parent="ypyNhgpiWs7xWqESMbv6-13" vertex="1">
                    <mxGeometry x="580" width="90" height="56" as="geometry">
                        <mxRectangle width="90" height="56" as="alternateBounds"/>
                    </mxGeometry>
                </mxCell>
                <mxCell id="aR-VuifSBamQZJh6OWsi-2" style="shape=partialRectangle;html=1;whiteSpace=wrap;connectable=0;overflow=hidden;fillColor=none;top=0;left=0;bottom=0;right=0;pointerEvents=1;shadow=0;labelBackgroundColor=none;labelBorderColor=none;fontColor=default;strokeColor=#FFFFFF;align=left;" parent="ypyNhgpiWs7xWqESMbv6-13" vertex="1">
                    <mxGeometry x="670" width="90" height="56" as="geometry">
                        <mxRectangle width="90" height="56" as="alternateBounds"/>
                    </mxGeometry>
                </mxCell>
                <mxCell id="ypyNhgpiWs7xWqESMbv6-19" value="" style="shape=tableRow;horizontal=0;startSize=0;swimlaneHead=0;swimlaneBody=0;top=0;left=0;bottom=0;right=0;collapsible=0;dropTarget=0;fillColor=none;points=[[0,0.5],[1,0.5]];portConstraint=eastwest;shadow=0;labelBackgroundColor=none;labelBorderColor=none;fontColor=default;strokeColor=#FFFFFF;" parent="ypyNhgpiWs7xWqESMbv6-0" vertex="1">
                    <mxGeometry y="152" width="760" height="57" as="geometry"/>
                </mxCell>
                <mxCell id="ypyNhgpiWs7xWqESMbv6-20" value="C3EGJ45" style="shape=partialRectangle;html=1;whiteSpace=wrap;connectable=0;overflow=hidden;fillColor=none;top=0;left=0;bottom=0;right=0;pointerEvents=1;shadow=0;labelBackgroundColor=none;labelBorderColor=none;fontColor=default;strokeColor=#FFFFFF;align=left;" parent="ypyNhgpiWs7xWqESMbv6-19" vertex="1">
                    <mxGeometry width="130" height="57" as="geometry">
                        <mxRectangle width="130" height="57" as="alternateBounds"/>
                    </mxGeometry>
                </mxCell>
                <mxCell id="ypyNhgpiWs7xWqESMbv6-21" value="Le Monde" style="shape=partialRectangle;html=1;whiteSpace=wrap;connectable=0;overflow=hidden;fillColor=none;top=0;left=0;bottom=0;right=0;pointerEvents=1;shadow=0;labelBackgroundColor=none;labelBorderColor=none;fontColor=default;strokeColor=#FFFFFF;align=left;" parent="ypyNhgpiWs7xWqESMbv6-19" vertex="1">
                    <mxGeometry x="130" width="210" height="57" as="geometry">
                        <mxRectangle width="210" height="57" as="alternateBounds"/>
                    </mxGeometry>
                </mxCell>
                <mxCell id="ypyNhgpiWs7xWqESMbv6-22" value="15/01/2022" style="shape=partialRectangle;html=1;whiteSpace=wrap;connectable=0;overflow=hidden;fillColor=none;top=0;left=0;bottom=0;right=0;pointerEvents=1;shadow=0;labelBackgroundColor=none;labelBorderColor=none;fontColor=default;strokeColor=#FFFFFF;align=left;" parent="ypyNhgpiWs7xWqESMbv6-19" vertex="1">
                    <mxGeometry x="340" width="140" height="57" as="geometry">
                        <mxRectangle width="140" height="57" as="alternateBounds"/>
                    </mxGeometry>
                </mxCell>
                <mxCell id="ypyNhgpiWs7xWqESMbv6-23" value="Journal" style="shape=partialRectangle;html=1;whiteSpace=wrap;connectable=0;overflow=hidden;fillColor=none;top=0;left=0;bottom=0;right=0;pointerEvents=1;shadow=0;labelBackgroundColor=none;labelBorderColor=none;fontColor=default;strokeColor=#FFFFFF;align=left;" parent="ypyNhgpiWs7xWqESMbv6-19" vertex="1">
                    <mxGeometry x="480" width="100" height="57" as="geometry">
                        <mxRectangle width="100" height="57" as="alternateBounds"/>
                    </mxGeometry>
                </mxCell>
                <mxCell id="ypyNhgpiWs7xWqESMbv6-24" value="&lt;font color=&quot;#009900&quot;&gt;Dispo&lt;/font&gt;" style="shape=partialRectangle;html=1;whiteSpace=wrap;connectable=0;overflow=hidden;fillColor=none;top=0;left=0;bottom=0;right=0;pointerEvents=1;shadow=0;labelBackgroundColor=none;labelBorderColor=none;fontColor=default;strokeColor=#FFFFFF;align=left;" parent="ypyNhgpiWs7xWqESMbv6-19" vertex="1">
                    <mxGeometry x="580" width="90" height="57" as="geometry">
                        <mxRectangle width="90" height="57" as="alternateBounds"/>
                    </mxGeometry>
                </mxCell>
                <mxCell id="aR-VuifSBamQZJh6OWsi-3" style="shape=partialRectangle;html=1;whiteSpace=wrap;connectable=0;overflow=hidden;fillColor=none;top=0;left=0;bottom=0;right=0;pointerEvents=1;shadow=0;labelBackgroundColor=none;labelBorderColor=none;fontColor=default;strokeColor=#FFFFFF;align=left;" parent="ypyNhgpiWs7xWqESMbv6-19" vertex="1">
                    <mxGeometry x="670" width="90" height="57" as="geometry">
                        <mxRectangle width="90" height="57" as="alternateBounds"/>
                    </mxGeometry>
                </mxCell>
                <mxCell id="baUBhM-xzNPlzWLkG0Qt-0" value="" style="shape=tableRow;horizontal=0;startSize=0;swimlaneHead=0;swimlaneBody=0;top=0;left=0;bottom=0;right=0;collapsible=0;dropTarget=0;fillColor=none;points=[[0,0.5],[1,0.5]];portConstraint=eastwest;shadow=0;labelBackgroundColor=none;labelBorderColor=none;fontColor=default;strokeColor=#FFFFFF;" parent="ypyNhgpiWs7xWqESMbv6-0" vertex="1">
                    <mxGeometry y="209" width="760" height="57" as="geometry"/>
                </mxCell>
                <mxCell id="baUBhM-xzNPlzWLkG0Qt-1" value="C3EGJ45" style="shape=partialRectangle;html=1;whiteSpace=wrap;connectable=0;overflow=hidden;fillColor=none;top=0;left=0;bottom=0;right=0;pointerEvents=1;shadow=0;labelBackgroundColor=none;labelBorderColor=none;fontColor=default;strokeColor=#FFFFFF;align=left;" parent="baUBhM-xzNPlzWLkG0Qt-0" vertex="1">
                    <mxGeometry width="130" height="57" as="geometry">
                        <mxRectangle width="130" height="57" as="alternateBounds"/>
                    </mxGeometry>
                </mxCell>
                <mxCell id="baUBhM-xzNPlzWLkG0Qt-2" value="Le Monde" style="shape=partialRectangle;html=1;whiteSpace=wrap;connectable=0;overflow=hidden;fillColor=none;top=0;left=0;bottom=0;right=0;pointerEvents=1;shadow=0;labelBackgroundColor=none;labelBorderColor=none;fontColor=default;strokeColor=#FFFFFF;align=left;" parent="baUBhM-xzNPlzWLkG0Qt-0" vertex="1">
                    <mxGeometry x="130" width="210" height="57" as="geometry">
                        <mxRectangle width="210" height="57" as="alternateBounds"/>
                    </mxGeometry>
                </mxCell>
                <mxCell id="baUBhM-xzNPlzWLkG0Qt-3" value="02/07/2021" style="shape=partialRectangle;html=1;whiteSpace=wrap;connectable=0;overflow=hidden;fillColor=none;top=0;left=0;bottom=0;right=0;pointerEvents=1;shadow=0;labelBackgroundColor=none;labelBorderColor=none;fontColor=default;strokeColor=#FFFFFF;align=left;" parent="baUBhM-xzNPlzWLkG0Qt-0" vertex="1">
                    <mxGeometry x="340" width="140" height="57" as="geometry">
                        <mxRectangle width="140" height="57" as="alternateBounds"/>
                    </mxGeometry>
                </mxCell>
                <mxCell id="baUBhM-xzNPlzWLkG0Qt-4" value="Journal" style="shape=partialRectangle;html=1;whiteSpace=wrap;connectable=0;overflow=hidden;fillColor=none;top=0;left=0;bottom=0;right=0;pointerEvents=1;shadow=0;labelBackgroundColor=none;labelBorderColor=none;fontColor=default;strokeColor=#FFFFFF;align=left;" parent="baUBhM-xzNPlzWLkG0Qt-0" vertex="1">
                    <mxGeometry x="480" width="100" height="57" as="geometry">
                        <mxRectangle width="100" height="57" as="alternateBounds"/>
                    </mxGeometry>
                </mxCell>
                <mxCell id="baUBhM-xzNPlzWLkG0Qt-5" value="&lt;font color=&quot;#ff0000&quot;&gt;HS&lt;/font&gt;" style="shape=partialRectangle;html=1;whiteSpace=wrap;connectable=0;overflow=hidden;fillColor=none;top=0;left=0;bottom=0;right=0;pointerEvents=1;shadow=0;labelBackgroundColor=none;labelBorderColor=none;fontColor=default;strokeColor=#FFFFFF;align=left;" parent="baUBhM-xzNPlzWLkG0Qt-0" vertex="1">
                    <mxGeometry x="580" width="90" height="57" as="geometry">
                        <mxRectangle width="90" height="57" as="alternateBounds"/>
                    </mxGeometry>
                </mxCell>
                <mxCell id="aR-VuifSBamQZJh6OWsi-4" style="shape=partialRectangle;html=1;whiteSpace=wrap;connectable=0;overflow=hidden;fillColor=none;top=0;left=0;bottom=0;right=0;pointerEvents=1;shadow=0;labelBackgroundColor=none;labelBorderColor=none;fontColor=default;strokeColor=#FFFFFF;align=left;" parent="baUBhM-xzNPlzWLkG0Qt-0" vertex="1">
                    <mxGeometry x="670" width="90" height="57" as="geometry">
                        <mxRectangle width="90" height="57" as="alternateBounds"/>
                    </mxGeometry>
                </mxCell>
                <mxCell id="ypyNhgpiWs7xWqESMbv6-25" value="" style="shape=tableRow;horizontal=0;startSize=0;swimlaneHead=0;swimlaneBody=0;top=0;left=0;bottom=0;right=0;collapsible=0;dropTarget=0;fillColor=none;points=[[0,0.5],[1,0.5]];portConstraint=eastwest;shadow=0;labelBackgroundColor=none;labelBorderColor=none;fontColor=default;strokeColor=#FFFFFF;" parent="ypyNhgpiWs7xWqESMbv6-0" vertex="1">
                    <mxGeometry y="266" width="760" height="56" as="geometry"/>
                </mxCell>
                <mxCell id="ypyNhgpiWs7xWqESMbv6-26" value="D4AZG5" style="shape=partialRectangle;html=1;whiteSpace=wrap;connectable=0;overflow=hidden;fillColor=none;top=0;left=0;bottom=0;right=0;pointerEvents=1;shadow=0;labelBackgroundColor=none;labelBorderColor=none;fontColor=default;strokeColor=#FFFFFF;align=left;" parent="ypyNhgpiWs7xWqESMbv6-25" vertex="1">
                    <mxGeometry width="130" height="56" as="geometry">
                        <mxRectangle width="130" height="56" as="alternateBounds"/>
                    </mxGeometry>
                </mxCell>
                <mxCell id="ypyNhgpiWs7xWqESMbv6-27" value="Short Stories in English&lt;span style=&quot;white-space: pre&quot;&gt; &lt;/span&gt;" style="shape=partialRectangle;html=1;whiteSpace=wrap;connectable=0;overflow=hidden;fillColor=none;top=0;left=0;bottom=0;right=0;pointerEvents=1;shadow=0;labelBackgroundColor=none;labelBorderColor=none;fontColor=default;strokeColor=#FFFFFF;align=left;" parent="ypyNhgpiWs7xWqESMbv6-25" vertex="1">
                    <mxGeometry x="130" width="210" height="56" as="geometry">
                        <mxRectangle width="210" height="56" as="alternateBounds"/>
                    </mxGeometry>
                </mxCell>
                <mxCell id="ypyNhgpiWs7xWqESMbv6-28" value="O. Richards" style="shape=partialRectangle;html=1;whiteSpace=wrap;connectable=0;overflow=hidden;fillColor=none;top=0;left=0;bottom=0;right=0;pointerEvents=1;shadow=0;labelBackgroundColor=none;labelBorderColor=none;fontColor=default;strokeColor=#FFFFFF;align=left;" parent="ypyNhgpiWs7xWqESMbv6-25" vertex="1">
                    <mxGeometry x="340" width="140" height="56" as="geometry">
                        <mxRectangle width="140" height="56" as="alternateBounds"/>
                    </mxGeometry>
                </mxCell>
                <mxCell id="ypyNhgpiWs7xWqESMbv6-29" value="CD-ROM" style="shape=partialRectangle;html=1;whiteSpace=wrap;connectable=0;overflow=hidden;fillColor=none;top=0;left=0;bottom=0;right=0;pointerEvents=1;shadow=0;labelBackgroundColor=none;labelBorderColor=none;fontColor=default;strokeColor=#FFFFFF;align=left;" parent="ypyNhgpiWs7xWqESMbv6-25" vertex="1">
                    <mxGeometry x="480" width="100" height="56" as="geometry">
                        <mxRectangle width="100" height="56" as="alternateBounds"/>
                    </mxGeometry>
                </mxCell>
                <mxCell id="ypyNhgpiWs7xWqESMbv6-30" value="&lt;font color=&quot;#3399ff&quot;&gt;Emprunté&lt;/font&gt;" style="shape=partialRectangle;html=1;whiteSpace=wrap;connectable=0;overflow=hidden;fillColor=none;top=0;left=0;bottom=0;right=0;pointerEvents=1;shadow=0;labelBackgroundColor=none;labelBorderColor=none;fontColor=default;strokeColor=#FFFFFF;align=left;" parent="ypyNhgpiWs7xWqESMbv6-25" vertex="1">
                    <mxGeometry x="580" width="90" height="56" as="geometry">
                        <mxRectangle width="90" height="56" as="alternateBounds"/>
                    </mxGeometry>
                </mxCell>
                <mxCell id="aR-VuifSBamQZJh6OWsi-5" style="shape=partialRectangle;html=1;whiteSpace=wrap;connectable=0;overflow=hidden;fillColor=none;top=0;left=0;bottom=0;right=0;pointerEvents=1;shadow=0;labelBackgroundColor=none;labelBorderColor=none;fontColor=default;strokeColor=#FFFFFF;align=left;" parent="ypyNhgpiWs7xWqESMbv6-25" vertex="1">
                    <mxGeometry x="670" width="90" height="56" as="geometry">
                        <mxRectangle width="90" height="56" as="alternateBounds"/>
                    </mxGeometry>
                </mxCell>
                <mxCell id="ypyNhgpiWs7xWqESMbv6-31" value="" style="shape=tableRow;horizontal=0;startSize=0;swimlaneHead=0;swimlaneBody=0;top=0;left=0;bottom=0;right=0;collapsible=0;dropTarget=0;fillColor=none;points=[[0,0.5],[1,0.5]];portConstraint=eastwest;shadow=0;labelBackgroundColor=none;labelBorderColor=none;fontColor=default;strokeColor=#FFFFFF;" parent="ypyNhgpiWs7xWqESMbv6-0" vertex="1">
                    <mxGeometry y="322" width="760" height="56" as="geometry"/>
                </mxCell>
                <mxCell id="ypyNhgpiWs7xWqESMbv6-32" value="E81ASD4" style="shape=partialRectangle;html=1;whiteSpace=wrap;connectable=0;overflow=hidden;fillColor=none;top=0;left=0;bottom=0;right=0;pointerEvents=1;shadow=0;labelBackgroundColor=none;labelBorderColor=none;fontColor=default;strokeColor=#FFFFFF;align=left;" parent="ypyNhgpiWs7xWqESMbv6-31" vertex="1">
                    <mxGeometry width="130" height="56" as="geometry">
                        <mxRectangle width="130" height="56" as="alternateBounds"/>
                    </mxGeometry>
                </mxCell>
                <mxCell id="ypyNhgpiWs7xWqESMbv6-33" value="Le Petit Prince" style="shape=partialRectangle;html=1;whiteSpace=wrap;connectable=0;overflow=hidden;fillColor=none;top=0;left=0;bottom=0;right=0;pointerEvents=1;shadow=0;labelBackgroundColor=none;labelBorderColor=none;fontColor=default;strokeColor=#FFFFFF;align=left;" parent="ypyNhgpiWs7xWqESMbv6-31" vertex="1">
                    <mxGeometry x="130" width="210" height="56" as="geometry">
                        <mxRectangle width="210" height="56" as="alternateBounds"/>
                    </mxGeometry>
                </mxCell>
                <mxCell id="ypyNhgpiWs7xWqESMbv6-34" value="A d. Saint-Exupéry" style="shape=partialRectangle;html=1;whiteSpace=wrap;connectable=0;overflow=hidden;fillColor=none;top=0;left=0;bottom=0;right=0;pointerEvents=1;shadow=0;labelBackgroundColor=none;labelBorderColor=none;fontColor=default;strokeColor=#FFFFFF;align=left;" parent="ypyNhgpiWs7xWqESMbv6-31" vertex="1">
                    <mxGeometry x="340" width="140" height="56" as="geometry">
                        <mxRectangle width="140" height="56" as="alternateBounds"/>
                    </mxGeometry>
                </mxCell>
                <mxCell id="ypyNhgpiWs7xWqESMbv6-35" value="Livre" style="shape=partialRectangle;html=1;whiteSpace=wrap;connectable=0;overflow=hidden;fillColor=none;top=0;left=0;bottom=0;right=0;pointerEvents=1;shadow=0;labelBackgroundColor=none;labelBorderColor=none;fontColor=default;strokeColor=#FFFFFF;align=left;" parent="ypyNhgpiWs7xWqESMbv6-31" vertex="1">
                    <mxGeometry x="480" width="100" height="56" as="geometry">
                        <mxRectangle width="100" height="56" as="alternateBounds"/>
                    </mxGeometry>
                </mxCell>
                <mxCell id="ypyNhgpiWs7xWqESMbv6-36" value="&lt;font color=&quot;#009900&quot;&gt;Dispo&lt;/font&gt;" style="shape=partialRectangle;html=1;whiteSpace=wrap;connectable=0;overflow=hidden;fillColor=none;top=0;left=0;bottom=0;right=0;pointerEvents=1;shadow=0;labelBackgroundColor=none;labelBorderColor=none;fontColor=default;strokeColor=#FFFFFF;align=left;" parent="ypyNhgpiWs7xWqESMbv6-31" vertex="1">
                    <mxGeometry x="580" width="90" height="56" as="geometry">
                        <mxRectangle width="90" height="56" as="alternateBounds"/>
                    </mxGeometry>
                </mxCell>
                <mxCell id="aR-VuifSBamQZJh6OWsi-6" style="shape=partialRectangle;html=1;whiteSpace=wrap;connectable=0;overflow=hidden;fillColor=none;top=0;left=0;bottom=0;right=0;pointerEvents=1;shadow=0;labelBackgroundColor=none;labelBorderColor=none;fontColor=default;strokeColor=#FFFFFF;align=left;" parent="ypyNhgpiWs7xWqESMbv6-31" vertex="1">
                    <mxGeometry x="670" width="90" height="56" as="geometry">
                        <mxRectangle width="90" height="56" as="alternateBounds"/>
                    </mxGeometry>
                </mxCell>
                <mxCell id="ypyNhgpiWs7xWqESMbv6-37" value="" style="shape=tableRow;horizontal=0;startSize=0;swimlaneHead=0;swimlaneBody=0;top=0;left=0;bottom=0;right=0;collapsible=0;dropTarget=0;fillColor=none;points=[[0,0.5],[1,0.5]];portConstraint=eastwest;shadow=0;labelBackgroundColor=none;labelBorderColor=none;fontColor=default;strokeColor=#FFFFFF;" parent="ypyNhgpiWs7xWqESMbv6-0" vertex="1">
                    <mxGeometry y="378" width="760" height="56" as="geometry"/>
                </mxCell>
                <mxCell id="ypyNhgpiWs7xWqESMbv6-38" value="" style="shape=partialRectangle;html=1;whiteSpace=wrap;connectable=0;overflow=hidden;fillColor=none;top=0;left=0;bottom=0;right=0;pointerEvents=1;shadow=0;labelBackgroundColor=none;labelBorderColor=none;fontColor=default;strokeColor=#FFFFFF;" parent="ypyNhgpiWs7xWqESMbv6-37" vertex="1">
                    <mxGeometry width="130" height="56" as="geometry">
                        <mxRectangle width="130" height="56" as="alternateBounds"/>
                    </mxGeometry>
                </mxCell>
                <mxCell id="ypyNhgpiWs7xWqESMbv6-39" value="" style="shape=partialRectangle;html=1;whiteSpace=wrap;connectable=0;overflow=hidden;fillColor=none;top=0;left=0;bottom=0;right=0;pointerEvents=1;shadow=0;labelBackgroundColor=none;labelBorderColor=none;fontColor=default;strokeColor=#FFFFFF;" parent="ypyNhgpiWs7xWqESMbv6-37" vertex="1">
                    <mxGeometry x="130" width="210" height="56" as="geometry">
                        <mxRectangle width="210" height="56" as="alternateBounds"/>
                    </mxGeometry>
                </mxCell>
                <mxCell id="ypyNhgpiWs7xWqESMbv6-40" value="" style="shape=partialRectangle;html=1;whiteSpace=wrap;connectable=0;overflow=hidden;fillColor=none;top=0;left=0;bottom=0;right=0;pointerEvents=1;shadow=0;labelBackgroundColor=none;labelBorderColor=none;fontColor=default;strokeColor=#FFFFFF;" parent="ypyNhgpiWs7xWqESMbv6-37" vertex="1">
                    <mxGeometry x="340" width="140" height="56" as="geometry">
                        <mxRectangle width="140" height="56" as="alternateBounds"/>
                    </mxGeometry>
                </mxCell>
                <mxCell id="ypyNhgpiWs7xWqESMbv6-41" value="" style="shape=partialRectangle;html=1;whiteSpace=wrap;connectable=0;overflow=hidden;fillColor=none;top=0;left=0;bottom=0;right=0;pointerEvents=1;shadow=0;labelBackgroundColor=none;labelBorderColor=none;fontColor=default;strokeColor=#FFFFFF;" parent="ypyNhgpiWs7xWqESMbv6-37" vertex="1">
                    <mxGeometry x="480" width="100" height="56" as="geometry">
                        <mxRectangle width="100" height="56" as="alternateBounds"/>
                    </mxGeometry>
                </mxCell>
                <mxCell id="ypyNhgpiWs7xWqESMbv6-42" value="" style="shape=partialRectangle;html=1;whiteSpace=wrap;connectable=0;overflow=hidden;fillColor=none;top=0;left=0;bottom=0;right=0;pointerEvents=1;shadow=0;labelBackgroundColor=none;labelBorderColor=none;fontColor=default;strokeColor=#FFFFFF;" parent="ypyNhgpiWs7xWqESMbv6-37" vertex="1">
                    <mxGeometry x="580" width="90" height="56" as="geometry">
                        <mxRectangle width="90" height="56" as="alternateBounds"/>
                    </mxGeometry>
                </mxCell>
                <mxCell id="aR-VuifSBamQZJh6OWsi-7" style="shape=partialRectangle;html=1;whiteSpace=wrap;connectable=0;overflow=hidden;fillColor=none;top=0;left=0;bottom=0;right=0;pointerEvents=1;shadow=0;labelBackgroundColor=none;labelBorderColor=none;fontColor=default;strokeColor=#FFFFFF;" parent="ypyNhgpiWs7xWqESMbv6-37" vertex="1">
                    <mxGeometry x="670" width="90" height="56" as="geometry">
                        <mxRectangle width="90" height="56" as="alternateBounds"/>
                    </mxGeometry>
                </mxCell>
                <mxCell id="CRC6oL7lKP2lJfnXrPVl-0" value="Trier par :&amp;nbsp;" style="strokeWidth=1;shadow=0;dashed=0;align=center;html=1;shape=mxgraph.mockup.forms.comboBox;align=left;fillColor2=#aaddff;mainText=;fontSize=17;spacingLeft=3;labelBackgroundColor=default;fillColor=#A1A1A1;strokeColor=#A1A1A1;" parent="4mfoL1ZJCt8i8z7t8F9_-1" vertex="1">
                    <mxGeometry x="99" y="67" width="141" height="27" as="geometry"/>
                </mxCell>
                <mxCell id="KdJYFD8tjFW-i2KU4X2s-0" value="" style="html=1;shadow=0;dashed=0;shape=mxgraph.bootstrap.rrect;rSize=5;strokeColor=#DEE2E6;html=1;whiteSpace=wrap;fillColor=#ffffff;fontColor=#666666;fontSize=14;" parent="4mfoL1ZJCt8i8z7t8F9_-1" vertex="1">
                    <mxGeometry x="484" y="517" width="220" height="30" as="geometry"/>
                </mxCell>
                <mxCell id="KdJYFD8tjFW-i2KU4X2s-1" value="Previous" style="strokeColor=inherit;fillColor=inherit;gradientColor=inherit;fontColor=inherit;html=1;shadow=0;dashed=0;shape=mxgraph.bootstrap.leftButton;rSize=5;perimeter=none;whiteSpace=wrap;resizeHeight=1;fontSize=14;" parent="KdJYFD8tjFW-i2KU4X2s-0" vertex="1">
                    <mxGeometry width="70" height="30" relative="1" as="geometry"/>
                </mxCell>
                <mxCell id="KdJYFD8tjFW-i2KU4X2s-2" value="1" style="strokeColor=inherit;fillColor=inherit;gradientColor=inherit;fontColor=inherit;html=1;shadow=0;dashed=0;perimeter=none;whiteSpace=wrap;resizeHeight=1;fontSize=14;" parent="KdJYFD8tjFW-i2KU4X2s-0" vertex="1">
                    <mxGeometry width="30" height="30" relative="1" as="geometry">
                        <mxPoint x="70" as="offset"/>
                    </mxGeometry>
                </mxCell>
                <mxCell id="KdJYFD8tjFW-i2KU4X2s-3" value="2" style="strokeColor=inherit;fillColor=inherit;gradientColor=inherit;fontColor=inherit;html=1;shadow=0;dashed=0;perimeter=none;whiteSpace=wrap;resizeHeight=1;fontSize=14;" parent="KdJYFD8tjFW-i2KU4X2s-0" vertex="1">
                    <mxGeometry width="30" height="30" relative="1" as="geometry">
                        <mxPoint x="100" as="offset"/>
                    </mxGeometry>
                </mxCell>
                <mxCell id="KdJYFD8tjFW-i2KU4X2s-4" value="..." style="strokeColor=inherit;fillColor=inherit;gradientColor=inherit;fontColor=inherit;html=1;shadow=0;dashed=0;perimeter=none;whiteSpace=wrap;resizeHeight=1;fontSize=14;" parent="KdJYFD8tjFW-i2KU4X2s-0" vertex="1">
                    <mxGeometry width="30" height="30" relative="1" as="geometry">
                        <mxPoint x="130" as="offset"/>
                    </mxGeometry>
                </mxCell>
                <mxCell id="KdJYFD8tjFW-i2KU4X2s-5" value="Next" style="strokeColor=inherit;fillColor=inherit;gradientColor=inherit;fontColor=inherit;html=1;shadow=0;dashed=0;shape=mxgraph.bootstrap.rightButton;rSize=5;perimeter=none;whiteSpace=wrap;resizeHeight=1;fontSize=14;" parent="KdJYFD8tjFW-i2KU4X2s-0" vertex="1">
                    <mxGeometry x="1" width="60" height="30" relative="1" as="geometry">
                        <mxPoint x="-60" as="offset"/>
                    </mxGeometry>
                </mxCell>
                <mxCell id="aR-VuifSBamQZJh6OWsi-12" value="" style="shape=image;html=1;verticalAlign=top;verticalLabelPosition=bottom;labelBackgroundColor=#ffffff;imageAspect=0;aspect=fixed;image=https://cdn2.iconfinder.com/data/icons/essential-web-1-1/50/eye-visible-show-monitor-see-128.png;shadow=0;labelBorderColor=none;fontSize=16;fontColor=#FFFFFF;strokeColor=#F5F5F5;strokeWidth=1;fillColor=#C2C2C2;gradientColor=none;" parent="4mfoL1ZJCt8i8z7t8F9_-1" vertex="1">
                    <mxGeometry x="959" y="177" width="32" height="32" as="geometry"/>
                </mxCell>
                <mxCell id="aR-VuifSBamQZJh6OWsi-13" value="" style="shape=image;html=1;verticalAlign=top;verticalLabelPosition=bottom;labelBackgroundColor=#ffffff;imageAspect=0;aspect=fixed;image=https://cdn2.iconfinder.com/data/icons/essential-web-1-1/50/eye-visible-show-monitor-see-128.png;shadow=0;labelBorderColor=none;fontSize=16;fontColor=#FFFFFF;strokeColor=#F5F5F5;strokeWidth=1;fillColor=#C2C2C2;gradientColor=none;" parent="4mfoL1ZJCt8i8z7t8F9_-1" vertex="1">
                    <mxGeometry x="959" y="237" width="32" height="32" as="geometry"/>
                </mxCell>
                <mxCell id="aR-VuifSBamQZJh6OWsi-14" value="" style="shape=image;html=1;verticalAlign=top;verticalLabelPosition=bottom;labelBackgroundColor=#ffffff;imageAspect=0;aspect=fixed;image=https://cdn2.iconfinder.com/data/icons/essential-web-1-1/50/eye-visible-show-monitor-see-128.png;shadow=0;labelBorderColor=none;fontSize=16;fontColor=#FFFFFF;strokeColor=#F5F5F5;strokeWidth=1;fillColor=#C2C2C2;gradientColor=none;" parent="4mfoL1ZJCt8i8z7t8F9_-1" vertex="1">
                    <mxGeometry x="959" y="287" width="32" height="32" as="geometry"/>
                </mxCell>
                <mxCell id="aR-VuifSBamQZJh6OWsi-15" value="" style="shape=image;html=1;verticalAlign=top;verticalLabelPosition=bottom;labelBackgroundColor=#ffffff;imageAspect=0;aspect=fixed;image=https://cdn2.iconfinder.com/data/icons/essential-web-1-1/50/eye-visible-show-monitor-see-128.png;shadow=0;labelBorderColor=none;fontSize=16;fontColor=#FFFFFF;strokeColor=#F5F5F5;strokeWidth=1;fillColor=#C2C2C2;gradientColor=none;" parent="4mfoL1ZJCt8i8z7t8F9_-1" vertex="1">
                    <mxGeometry x="959" y="347" width="32" height="32" as="geometry"/>
                </mxCell>
                <mxCell id="aR-VuifSBamQZJh6OWsi-16" value="" style="shape=image;html=1;verticalAlign=top;verticalLabelPosition=bottom;labelBackgroundColor=#ffffff;imageAspect=0;aspect=fixed;image=https://cdn2.iconfinder.com/data/icons/essential-web-1-1/50/eye-visible-show-monitor-see-128.png;shadow=0;labelBorderColor=none;fontSize=16;fontColor=#FFFFFF;strokeColor=#F5F5F5;strokeWidth=1;fillColor=#C2C2C2;gradientColor=none;" parent="4mfoL1ZJCt8i8z7t8F9_-1" vertex="1">
                    <mxGeometry x="959" y="397" width="32" height="32" as="geometry"/>
                </mxCell>
                <UserObject label="Enregistrer un emprunt" link="data:page/id,QXc0wzj-9IYIJqLfSLoC" id="4mfoL1ZJCt8i8z7t8F9_-9">
                    <mxCell style="strokeWidth=1;shadow=0;dashed=0;align=center;html=1;shape=mxgraph.mockup.containers.rrect;rSize=0;fontSize=17;fontColor=#FFFFFF;strokeColor=#666666;fillColor=#C2C2C2;labelBackgroundColor=none;labelBorderColor=none;fontStyle=1" parent="4mfoL1ZJCt8i8z7t8F9_-0" vertex="1">
                        <mxGeometry width="220" height="25" relative="1" as="geometry">
                            <mxPoint x="259" y="230" as="offset"/>
                        </mxGeometry>
                    </mxCell>
                </UserObject>
                <UserObject label="Mise hors service" link="data:page/id,VlvuZ8ZS0cmNUSl1zSAV" id="4mfoL1ZJCt8i8z7t8F9_-10">
                    <mxCell style="strokeColor=#666666;fillColor=#C2C2C2;strokeWidth=1;shadow=0;align=center;html=1;shape=mxgraph.mockup.containers.rrect;rSize=0;fontSize=17;labelBackgroundColor=none;labelBorderColor=none;fontColor=#FFFFFF;fontStyle=1" parent="4mfoL1ZJCt8i8z7t8F9_-0" vertex="1">
                        <mxGeometry width="180" height="25" relative="1" as="geometry">
                            <mxPoint x="479" y="230" as="offset"/>
                        </mxGeometry>
                    </mxCell>
                </UserObject>
                <mxCell id="4mfoL1ZJCt8i8z7t8F9_-11" value="Médiathèque" style="strokeWidth=1;shadow=0;dashed=0;align=center;html=1;shape=mxgraph.mockup.containers.anchor;fontSize=17;fontColor=#666666;align=left;" parent="4mfoL1ZJCt8i8z7t8F9_-0" vertex="1">
                    <mxGeometry x="60" y="12" width="150" height="26" as="geometry"/>
                </mxCell>
                <mxCell id="4mfoL1ZJCt8i8z7t8F9_-12" value="https://www.mediatheque.fr" style="strokeWidth=1;shadow=0;dashed=0;align=center;html=1;shape=mxgraph.mockup.containers.anchor;rSize=0;fontSize=17;fontColor=#666666;align=left;" parent="4mfoL1ZJCt8i8z7t8F9_-0" vertex="1">
                    <mxGeometry x="130" y="60" width="250" height="26" as="geometry"/>
                </mxCell>
                <mxCell id="4mfoL1ZJCt8i8z7t8F9_-13" value="&lt;font style=&quot;font-size: 45px&quot; color=&quot;#a1a1a1&quot;&gt;Médiathèque&lt;/font&gt;" style="rounded=0;whiteSpace=wrap;html=1;strokeColor=#A1A1A1;" parent="4mfoL1ZJCt8i8z7t8F9_-0" vertex="1">
                    <mxGeometry y="110" width="1167" height="60" as="geometry"/>
                </mxCell>
                <mxCell id="4mfoL1ZJCt8i8z7t8F9_-14" value="" style="rounded=0;whiteSpace=wrap;html=1;fontSize=12;fontColor=#333333;strokeColor=#666666;fillColor=#C2C2C2;" parent="4mfoL1ZJCt8i8z7t8F9_-0" vertex="1">
                    <mxGeometry y="170" width="1159" height="60" as="geometry"/>
                </mxCell>
                <UserObject label="&amp;nbsp; &amp;nbsp; &amp;nbsp; &amp;nbsp; &amp;nbsp; &amp;nbsp; &amp;nbsp;Mon profil" link="data:page/id,lGLJw4ro3tzLa91ZYzbf" id="4mfoL1ZJCt8i8z7t8F9_-15">
                    <mxCell style="rounded=0;whiteSpace=wrap;html=1;fontSize=16;fontColor=#FFFFFF;strokeColor=#666666;fillColor=#C2C2C2;align=center;fontStyle=1" parent="4mfoL1ZJCt8i8z7t8F9_-0" vertex="1">
                        <mxGeometry x="1001" y="170" width="167" height="60" as="geometry"/>
                    </mxCell>
                </UserObject>
                <UserObject label="Services" link="data:page/id,1y3C5vE3ofAHqLID96lu" id="4mfoL1ZJCt8i8z7t8F9_-16">
                    <mxCell style="rounded=0;whiteSpace=wrap;html=1;fontSize=16;fontColor=#FFFFFF;strokeColor=#666666;fillColor=#C2C2C2;fontStyle=1" parent="4mfoL1ZJCt8i8z7t8F9_-0" vertex="1">
                        <mxGeometry x="567" y="170" width="151" height="60" as="geometry"/>
                    </mxCell>
                </UserObject>
                <UserObject label="Gérer un utilisateur" link="data:page/id,gnByjOrjejcISsql6juy" id="4mfoL1ZJCt8i8z7t8F9_-17">
                    <mxCell style="rounded=0;whiteSpace=wrap;html=1;fontSize=16;strokeColor=#666666;fillColor=#C2C2C2;fontColor=#FFFFFF;fontStyle=1" parent="4mfoL1ZJCt8i8z7t8F9_-0" vertex="1">
                        <mxGeometry x="291" y="170" width="138" height="60" as="geometry"/>
                    </mxCell>
                </UserObject>
                <UserObject label="Gérer une ressource" id="4mfoL1ZJCt8i8z7t8F9_-18">
                    <mxCell style="rounded=0;whiteSpace=wrap;html=1;fontSize=16;strokeColor=#666666;fillColor=#FFFFFF;fontColor=#C2C2C2;fontStyle=1" parent="4mfoL1ZJCt8i8z7t8F9_-0" vertex="1">
                        <mxGeometry x="152" y="170" width="139" height="60" as="geometry"/>
                    </mxCell>
                </UserObject>
                <UserObject label="Accueil" link="data:page/id,yl5hMWLeE0mNzgKsfhri" id="4mfoL1ZJCt8i8z7t8F9_-19">
                    <mxCell style="rounded=0;whiteSpace=wrap;html=1;fontSize=16;fontColor=#FFFFFF;strokeColor=#666666;fillColor=#C2C2C2;fontStyle=1" parent="4mfoL1ZJCt8i8z7t8F9_-0" vertex="1">
                        <mxGeometry x="1" y="170" width="151" height="60" as="geometry"/>
                    </mxCell>
                </UserObject>
                <mxCell id="4mfoL1ZJCt8i8z7t8F9_-24" value="" style="html=1;shadow=0;dashed=0;shape=mxgraph.bootstrap.rrect;rSize=5;strokeColor=#CED4DA;html=1;whiteSpace=wrap;fillColor=#FFFFFF;fontColor=#7D868C;align=left;spacingLeft=0;spacing=15;fontSize=14;" parent="4mfoL1ZJCt8i8z7t8F9_-0" vertex="1">
                    <mxGeometry x="903" y="123.5" width="227" height="33" as="geometry"/>
                </mxCell>
                <mxCell id="4mfoL1ZJCt8i8z7t8F9_-25" value="Rechercher" style="html=1;shadow=0;dashed=0;shape=mxgraph.bootstrap.rightButton;strokeColor=#6C757D;gradientColor=inherit;fontColor=inherit;fillColor=inherit;rSize=5;perimeter=none;whiteSpace=wrap;resizeHeight=1;fontSize=14;" parent="4mfoL1ZJCt8i8z7t8F9_-24" vertex="1">
                    <mxGeometry x="1" width="89" height="33" relative="1" as="geometry">
                        <mxPoint x="-70" as="offset"/>
                    </mxGeometry>
                </mxCell>
                <mxCell id="4mfoL1ZJCt8i8z7t8F9_-26" value="" style="verticalLabelPosition=bottom;shadow=0;dashed=0;align=center;html=1;verticalAlign=top;strokeWidth=1;shape=mxgraph.mockup.containers.userFemale;strokeColor=#666666;strokeColor2=#008cff;fontSize=12;fontColor=#FFFFFF;fillColor=#FFFFFF;gradientColor=#FFFFFF;" parent="4mfoL1ZJCt8i8z7t8F9_-0" vertex="1">
                    <mxGeometry x="1019.5" y="185" width="40" height="30" as="geometry"/>
                </mxCell>
                <mxCell id="4mfoL1ZJCt8i8z7t8F9_-30" value="" style="shape=image;html=1;verticalAlign=top;verticalLabelPosition=bottom;labelBackgroundColor=#ffffff;imageAspect=0;aspect=fixed;image=https://cdn4.iconfinder.com/data/icons/ui-office/512/User_Interface-40-128.png;shadow=0;fontSize=31;fontColor=#C2C2C2;strokeColor=#FFFFFF;fillColor=#666666;gradientColor=#000000;fontStyle=1;strokeWidth=2;" parent="4mfoL1ZJCt8i8z7t8F9_-0" vertex="1">
                    <mxGeometry x="1139" y="210" width="20" height="20" as="geometry"/>
                </mxCell>
                <UserObject label="A propos" link="data:page/id,FaWUZfU0TmcHPQL3xSgL" id="4mfoL1ZJCt8i8z7t8F9_-31">
                    <mxCell style="rounded=0;whiteSpace=wrap;html=1;fontSize=16;strokeColor=#666666;fillColor=#C2C2C2;fontColor=#FFFFFF;fontStyle=1" parent="4mfoL1ZJCt8i8z7t8F9_-0" vertex="1">
                        <mxGeometry x="429" y="170" width="138" height="60" as="geometry"/>
                    </mxCell>
                </UserObject>
                <mxCell id="9yuQ4f5OmyjwVcmOjPWW-3" value="Liste des ressources" style="strokeWidth=1;shadow=0;dashed=0;align=center;html=1;shape=mxgraph.mockup.containers.rrect;rSize=0;fontSize=17;fontColor=#C2C2C2;strokeColor=#666666;fillColor=#FFFFFF;labelBackgroundColor=none;labelBorderColor=none;fontStyle=1" parent="4mfoL1ZJCt8i8z7t8F9_-0" vertex="1">
                    <mxGeometry x="659" y="230" width="191" height="25" as="geometry"/>
                </mxCell>
                <mxCell id="9yuQ4f5OmyjwVcmOjPWW-4" value="" style="rounded=0;whiteSpace=wrap;html=1;shadow=0;labelBackgroundColor=#666666;labelBorderColor=none;fontColor=#FFFFFF;strokeColor=#FFFFFF;fillColor=#FFFFFF;" parent="LlZQarq9VwQ1jcYVB5PJ-1" vertex="1">
                    <mxGeometry x="-509" y="-572" width="189" height="13" as="geometry"/>
                </mxCell>
                <mxCell id="aR-VuifSBamQZJh6OWsi-11" value="" style="shape=image;html=1;verticalAlign=top;verticalLabelPosition=bottom;labelBackgroundColor=#ffffff;imageAspect=0;aspect=fixed;image=https://cdn2.iconfinder.com/data/icons/essential-web-1-1/50/eye-visible-show-monitor-see-128.png;shadow=0;labelBorderColor=none;fontSize=16;fontColor=#FFFFFF;strokeColor=#F5F5F5;strokeWidth=1;fillColor=#C2C2C2;gradientColor=none;" parent="LlZQarq9VwQ1jcYVB5PJ-1" vertex="1">
                    <mxGeometry x="-190" y="-478" width="32" height="32" as="geometry"/>
                </mxCell>
            </root>
        </mxGraphModel>
    </diagram>
    <diagram id="gnByjOrjejcISsql6juy" name="Gérer utilisateurs_P">
        <mxGraphModel dx="2637" dy="1701" grid="1" gridSize="10" guides="1" tooltips="1" connect="1" arrows="1" fold="1" page="1" pageScale="1" pageWidth="1169" pageHeight="827" math="0" shadow="0">
            <root>
                <mxCell id="LD4j2ZtLVPaHVR8_KANe-0"/>
                <mxCell id="LD4j2ZtLVPaHVR8_KANe-1" parent="LD4j2ZtLVPaHVR8_KANe-0"/>
                <mxCell id="9eUd9DhQg92disXK_FVn-0" value="" style="strokeWidth=1;shadow=0;dashed=0;align=center;html=1;shape=mxgraph.mockup.containers.browserWindow;rSize=0;strokeColor=#E6E6E6;strokeColor2=#008cff;strokeColor3=#c4c4c4;mainText=,;recursiveResize=0;" parent="LD4j2ZtLVPaHVR8_KANe-1" vertex="1">
                    <mxGeometry x="-1169" y="-827" width="1169" height="820" as="geometry"/>
                </mxCell>
                <mxCell id="9eUd9DhQg92disXK_FVn-1" value="Médiathèque" style="strokeWidth=1;shadow=0;dashed=0;align=center;html=1;shape=mxgraph.mockup.containers.anchor;fontSize=17;fontColor=#666666;align=left;" parent="9eUd9DhQg92disXK_FVn-0" vertex="1">
                    <mxGeometry x="60" y="12" width="150" height="26" as="geometry"/>
                </mxCell>
                <mxCell id="9eUd9DhQg92disXK_FVn-2" value="https://www.mediatheque.fr" style="strokeWidth=1;shadow=0;dashed=0;align=center;html=1;shape=mxgraph.mockup.containers.anchor;rSize=0;fontSize=17;fontColor=#666666;align=left;" parent="9eUd9DhQg92disXK_FVn-0" vertex="1">
                    <mxGeometry x="130" y="60" width="250" height="26" as="geometry"/>
                </mxCell>
                <mxCell id="9eUd9DhQg92disXK_FVn-4" value="&lt;font style=&quot;font-size: 45px&quot; color=&quot;#a1a1a1&quot;&gt;Médiathèque&lt;/font&gt;" style="rounded=0;whiteSpace=wrap;html=1;strokeColor=#A1A1A1;" parent="9eUd9DhQg92disXK_FVn-0" vertex="1">
                    <mxGeometry y="110" width="1169" height="60" as="geometry"/>
                </mxCell>
                <mxCell id="9PP4STN1xaHmsKIKvc1A-0" value="" style="rounded=0;whiteSpace=wrap;html=1;fontSize=12;fontColor=#333333;strokeColor=#666666;fillColor=#C2C2C2;" parent="9eUd9DhQg92disXK_FVn-0" vertex="1">
                    <mxGeometry y="170" width="1159" height="60" as="geometry"/>
                </mxCell>
                <UserObject label="&amp;nbsp; &amp;nbsp; &amp;nbsp; &amp;nbsp; &amp;nbsp; &amp;nbsp; &amp;nbsp;Mon profil" link="data:page/id,lGLJw4ro3tzLa91ZYzbf" id="9PP4STN1xaHmsKIKvc1A-1">
                    <mxCell style="rounded=0;whiteSpace=wrap;html=1;fontSize=16;fontColor=#FFFFFF;strokeColor=#666666;fillColor=#C2C2C2;align=center;fontStyle=1" parent="9eUd9DhQg92disXK_FVn-0" vertex="1">
                        <mxGeometry x="1001" y="170" width="168" height="60" as="geometry"/>
                    </mxCell>
                </UserObject>
                <UserObject label="Services" link="data:page/id,1y3C5vE3ofAHqLID96lu" id="9PP4STN1xaHmsKIKvc1A-2">
                    <mxCell style="rounded=0;whiteSpace=wrap;html=1;fontSize=16;fontColor=#FFFFFF;strokeColor=#666666;fillColor=#C2C2C2;fontStyle=1" parent="9eUd9DhQg92disXK_FVn-0" vertex="1">
                        <mxGeometry x="567" y="170" width="151" height="60" as="geometry"/>
                    </mxCell>
                </UserObject>
                <UserObject label="Gérer un utilisateur" link="data:page/id,gnByjOrjejcISsql6juy" id="9PP4STN1xaHmsKIKvc1A-4">
                    <mxCell style="rounded=0;whiteSpace=wrap;html=1;fontSize=16;strokeColor=#666666;fillColor=#FFFFFF;fontColor=#C2C2C2;fontStyle=1" parent="9eUd9DhQg92disXK_FVn-0" vertex="1">
                        <mxGeometry x="291" y="170" width="138" height="60" as="geometry"/>
                    </mxCell>
                </UserObject>
                <UserObject label="A propos" link="data:page/id,FaWUZfU0TmcHPQL3xSgL" id="9PP4STN1xaHmsKIKvc1A-5">
                    <mxCell style="rounded=0;whiteSpace=wrap;html=1;fontSize=16;strokeColor=#666666;fillColor=#C2C2C2;fontColor=#FFFFFF;fontStyle=1" parent="9eUd9DhQg92disXK_FVn-0" vertex="1">
                        <mxGeometry x="429" y="170" width="138" height="60" as="geometry"/>
                    </mxCell>
                </UserObject>
                <UserObject label="Gérer une ressource" link="data:page/id,1-_ZAtHb4YZcZEY1NWBs" id="9PP4STN1xaHmsKIKvc1A-6">
                    <mxCell style="rounded=0;whiteSpace=wrap;html=1;fontSize=16;strokeColor=#666666;fillColor=#C2C2C2;fontColor=#FFFFFF;fontStyle=1" parent="9eUd9DhQg92disXK_FVn-0" vertex="1">
                        <mxGeometry x="152" y="170" width="139" height="60" as="geometry"/>
                    </mxCell>
                </UserObject>
                <UserObject label="Accueil" link="data:page/id,yl5hMWLeE0mNzgKsfhri" id="9PP4STN1xaHmsKIKvc1A-7">
                    <mxCell style="rounded=0;whiteSpace=wrap;html=1;fontSize=16;fontColor=#FFFFFF;strokeColor=#666666;fillColor=#C2C2C2;fontStyle=1" parent="9eUd9DhQg92disXK_FVn-0" vertex="1">
                        <mxGeometry x="1" y="170" width="151" height="60" as="geometry"/>
                    </mxCell>
                </UserObject>
                <mxCell id="B8rrEUfGW9plA-PhddZ--0" value="" style="shape=image;html=1;verticalAlign=top;verticalLabelPosition=bottom;labelBackgroundColor=#ffffff;imageAspect=0;aspect=fixed;image=https://cdn4.iconfinder.com/data/icons/ui-office/512/User_Interface-40-128.png;shadow=0;fontSize=31;fontColor=#C2C2C2;strokeColor=#FFFFFF;fillColor=#666666;gradientColor=#000000;fontStyle=1;strokeWidth=2;" parent="9eUd9DhQg92disXK_FVn-0" vertex="1">
                    <mxGeometry x="1140" y="210" width="20" height="20" as="geometry"/>
                </mxCell>
                <mxCell id="ApvJotFb2rtu7axooDdN-0" value="&lt;span style=&quot;color: rgb(102, 102, 102); font-family: helvetica; font-size: 22px; font-style: normal; font-weight: 700; letter-spacing: normal; text-align: left; text-indent: 0px; text-transform: none; word-spacing: 0px; display: inline; float: none;&quot;&gt;ENREGISTRER UN UTILISATEUR&lt;/span&gt;" style="text;whiteSpace=wrap;html=1;fontSize=14;fontFamily=Helvetica;fontColor=#C2C2C2;fontStyle=4;labelBackgroundColor=#C2C2C2;" parent="9eUd9DhQg92disXK_FVn-0" vertex="1">
                    <mxGeometry x="353" y="267" width="360" height="40" as="geometry"/>
                </mxCell>
                <mxCell id="cp_7OS9jH7XJIXIMdQyL-0" value="Email" style="fillColor=none;strokeColor=none;align=left;fontSize=14;shadow=0;labelBackgroundColor=default;fontColor=default;" parent="9eUd9DhQg92disXK_FVn-0" vertex="1">
                    <mxGeometry x="352.5" y="376.5" width="260" height="40" as="geometry"/>
                </mxCell>
                <mxCell id="cp_7OS9jH7XJIXIMdQyL-1" value="Prénom" style="fillColor=none;strokeColor=none;align=left;fontSize=14;shadow=0;labelBackgroundColor=default;fontColor=default;" parent="9eUd9DhQg92disXK_FVn-0" vertex="1">
                    <mxGeometry x="542" y="310" width="260" height="40" as="geometry"/>
                </mxCell>
                <mxCell id="cp_7OS9jH7XJIXIMdQyL-2" value="" style="html=1;shadow=0;dashed=0;shape=mxgraph.bootstrap.rrect;rSize=5;fillColor=none;strokeColor=#999999;align=left;spacing=15;fontSize=14;fontColor=#6C767D;labelBackgroundColor=default;" parent="9eUd9DhQg92disXK_FVn-0" vertex="1">
                    <mxGeometry x="542" y="346.5" width="160" height="30" as="geometry"/>
                </mxCell>
                <mxCell id="cp_7OS9jH7XJIXIMdQyL-3" value="" style="html=1;shadow=0;dashed=0;shape=mxgraph.bootstrap.rrect;rSize=5;fillColor=none;strokeColor=#999999;align=left;spacing=15;fontSize=14;fontColor=#6C767D;labelBackgroundColor=default;" parent="9eUd9DhQg92disXK_FVn-0" vertex="1">
                    <mxGeometry x="352.5" y="533" width="440" height="30" as="geometry"/>
                </mxCell>
                <mxCell id="cp_7OS9jH7XJIXIMdQyL-4" value="" style="html=1;shadow=0;dashed=0;shape=mxgraph.bootstrap.rrect;rSize=5;fillColor=none;strokeColor=#999999;align=left;spacing=15;fontSize=14;fontColor=#6C767D;labelBackgroundColor=default;" parent="9eUd9DhQg92disXK_FVn-0" vertex="1">
                    <mxGeometry x="352.5" y="410" width="440" height="30" as="geometry"/>
                </mxCell>
                <mxCell id="cp_7OS9jH7XJIXIMdQyL-5" value="Adresse" style="fillColor=none;strokeColor=none;align=left;fontSize=14;shadow=0;labelBackgroundColor=default;fontColor=default;" parent="9eUd9DhQg92disXK_FVn-0" vertex="1">
                    <mxGeometry x="352.5" y="500" width="260" height="40" as="geometry"/>
                </mxCell>
                <mxCell id="cp_7OS9jH7XJIXIMdQyL-6" value="" style="html=1;shadow=0;dashed=0;shape=mxgraph.bootstrap.rrect;rSize=5;fillColor=none;strokeColor=#999999;align=left;spacing=15;fontSize=14;fontColor=#6C767D;labelBackgroundColor=default;" parent="9eUd9DhQg92disXK_FVn-0" vertex="1">
                    <mxGeometry x="352.5" y="346.5" width="160" height="30" as="geometry"/>
                </mxCell>
                <mxCell id="cp_7OS9jH7XJIXIMdQyL-7" value="Nom" style="fillColor=none;strokeColor=none;align=left;fontSize=14;shadow=0;labelBackgroundColor=default;fontColor=default;" parent="9eUd9DhQg92disXK_FVn-0" vertex="1">
                    <mxGeometry x="352.5" y="310" width="260" height="40" as="geometry"/>
                </mxCell>
                <mxCell id="cp_7OS9jH7XJIXIMdQyL-8" value="" style="html=1;shadow=0;dashed=0;shape=mxgraph.bootstrap.rrect;rSize=5;fillColor=none;strokeColor=#999999;align=left;spacing=15;fontSize=14;fontColor=#6C767D;labelBackgroundColor=default;" parent="9eUd9DhQg92disXK_FVn-0" vertex="1">
                    <mxGeometry x="352.5" y="470" width="440" height="30" as="geometry"/>
                </mxCell>
                <mxCell id="cp_7OS9jH7XJIXIMdQyL-9" value="N°carte lecteur" style="fillColor=none;strokeColor=none;align=left;fontSize=14;shadow=0;labelBackgroundColor=default;fontColor=default;" parent="9eUd9DhQg92disXK_FVn-0" vertex="1">
                    <mxGeometry x="352.5" y="440" width="260" height="40" as="geometry"/>
                </mxCell>
                <mxCell id="cp_7OS9jH7XJIXIMdQyL-10" value="" style="html=1;shadow=0;dashed=0;shape=mxgraph.bootstrap.rrect;rSize=5;fillColor=none;strokeColor=#999999;align=left;spacing=15;fontSize=14;fontColor=#6C767D;labelBackgroundColor=default;" parent="9eUd9DhQg92disXK_FVn-0" vertex="1">
                    <mxGeometry x="353" y="597" width="127" height="30" as="geometry"/>
                </mxCell>
                <mxCell id="cp_7OS9jH7XJIXIMdQyL-11" value="Code postale" style="fillColor=none;strokeColor=none;align=left;fontSize=14;shadow=0;labelBackgroundColor=default;fontColor=default;" parent="9eUd9DhQg92disXK_FVn-0" vertex="1">
                    <mxGeometry x="352.5" y="563" width="117.5" height="40" as="geometry"/>
                </mxCell>
                <mxCell id="_mSV6Y3WGmbzhhMnDsKS-0" value="" style="rounded=0;whiteSpace=wrap;html=1;shadow=0;labelBackgroundColor=none;fontSize=29;strokeColor=#FFFFFF;fillColor=#FFFFFF;" parent="9eUd9DhQg92disXK_FVn-0" vertex="1">
                    <mxGeometry x="291" y="230" width="137" height="1.5" as="geometry"/>
                </mxCell>
                <mxCell id="LPIWpmVZmikd-TBlqmxW-0" value="" style="verticalLabelPosition=bottom;shadow=0;dashed=0;align=center;html=1;verticalAlign=top;strokeWidth=1;shape=mxgraph.mockup.containers.userFemale;strokeColor=#666666;strokeColor2=#008cff;fontSize=12;fontColor=#FFFFFF;fillColor=#FFFFFF;gradientColor=#FFFFFF;" parent="9eUd9DhQg92disXK_FVn-0" vertex="1">
                    <mxGeometry x="1024.5" y="185" width="40" height="30" as="geometry"/>
                </mxCell>
                <mxCell id="EArcdHLmuZkaOXkF8iBJ-0" value="" style="html=1;shadow=0;dashed=0;shape=mxgraph.bootstrap.rrect;rSize=5;strokeColor=#CED4DA;html=1;whiteSpace=wrap;fillColor=#FFFFFF;fontColor=#7D868C;align=left;spacingLeft=0;spacing=15;fontSize=14;" parent="9eUd9DhQg92disXK_FVn-0" vertex="1">
                    <mxGeometry x="913" y="123.5" width="227" height="33" as="geometry"/>
                </mxCell>
                <mxCell id="EArcdHLmuZkaOXkF8iBJ-1" value="Rechercher" style="html=1;shadow=0;dashed=0;shape=mxgraph.bootstrap.rightButton;strokeColor=#6C757D;gradientColor=inherit;fontColor=inherit;fillColor=inherit;rSize=5;perimeter=none;whiteSpace=wrap;resizeHeight=1;fontSize=14;" parent="EArcdHLmuZkaOXkF8iBJ-0" vertex="1">
                    <mxGeometry x="1" width="89" height="33" relative="1" as="geometry">
                        <mxPoint x="-70" as="offset"/>
                    </mxGeometry>
                </mxCell>
                <mxCell id="YN9koiFaPk0cNDGoxEu1-0" value="Bénévole / Personnel / Lecteur" style="html=1;shadow=0;dashed=0;shape=mxgraph.bootstrap.rrect;rSize=5;fillColor=none;strokeColor=#999999;align=left;spacing=15;fontSize=14;fontColor=#6C767D;labelBackgroundColor=none;" parent="9eUd9DhQg92disXK_FVn-0" vertex="1">
                    <mxGeometry x="352.5" y="665" width="310" height="30" as="geometry"/>
                </mxCell>
                <mxCell id="YN9koiFaPk0cNDGoxEu1-1" value="" style="html=1;shadow=0;dashed=0;strokeColor=#6C757D;gradientColor=inherit;fontColor=inherit;fillColor=inherit;perimeter=none;whiteSpace=wrap;resizeHeight=1;fontSize=14;labelBackgroundColor=none;fontFamily=Helvetica;" parent="9eUd9DhQg92disXK_FVn-0" vertex="1">
                    <mxGeometry x="632.5" y="665" width="30" height="30" as="geometry"/>
                </mxCell>
                <mxCell id="YN9koiFaPk0cNDGoxEu1-2" value="" style="shape=triangle;direction=south;fillColor=#6C767D;strokeColor=none;perimeter=none;shadow=0;labelBackgroundColor=none;fontFamily=Helvetica;fontSize=22;fontColor=#666666;" parent="YN9koiFaPk0cNDGoxEu1-1" vertex="1">
                    <mxGeometry x="0.5" y="0.5" width="10" height="5" relative="1" as="geometry">
                        <mxPoint x="-5" y="-2.5" as="offset"/>
                    </mxGeometry>
                </mxCell>
                <mxCell id="YN9koiFaPk0cNDGoxEu1-3" value="Type d'utilisateur" style="fillColor=none;strokeColor=none;align=left;fontSize=14;shadow=0;labelBackgroundColor=default;fontColor=default;" parent="9eUd9DhQg92disXK_FVn-0" vertex="1">
                    <mxGeometry x="352.5" y="630" width="260" height="40" as="geometry"/>
                </mxCell>
                <mxCell id="YN9koiFaPk0cNDGoxEu1-6" value="" style="html=1;shadow=0;dashed=0;shape=mxgraph.bootstrap.rrect;rSize=5;fillColor=none;strokeColor=#999999;align=left;spacing=15;fontSize=14;fontColor=#6C767D;labelBackgroundColor=default;" parent="9eUd9DhQg92disXK_FVn-0" vertex="1">
                    <mxGeometry x="505.5" y="597" width="127" height="30" as="geometry"/>
                </mxCell>
                <mxCell id="YN9koiFaPk0cNDGoxEu1-7" value="Ville" style="fillColor=none;strokeColor=none;align=left;fontSize=14;shadow=0;labelBackgroundColor=default;fontColor=default;" parent="9eUd9DhQg92disXK_FVn-0" vertex="1">
                    <mxGeometry x="505.5" y="563" width="101" height="40" as="geometry"/>
                </mxCell>
                <mxCell id="YN9koiFaPk0cNDGoxEu1-8" value="" style="html=1;shadow=0;dashed=0;shape=mxgraph.bootstrap.rrect;rSize=5;fillColor=none;strokeColor=#999999;align=left;spacing=15;fontSize=14;fontColor=#6C767D;labelBackgroundColor=default;" parent="9eUd9DhQg92disXK_FVn-0" vertex="1">
                    <mxGeometry x="665.5" y="597" width="127" height="30" as="geometry"/>
                </mxCell>
                <mxCell id="YN9koiFaPk0cNDGoxEu1-9" value="Téléphone" style="fillColor=none;strokeColor=none;align=left;fontSize=14;shadow=0;labelBackgroundColor=default;fontColor=default;" parent="9eUd9DhQg92disXK_FVn-0" vertex="1">
                    <mxGeometry x="662.5" y="563" width="101" height="37" as="geometry"/>
                </mxCell>
                <mxCell id="acwSRArzLWokwU_iInws-0" value="Valider" style="strokeWidth=1;shadow=0;dashed=0;align=center;html=1;shape=mxgraph.mockup.buttons.button;strokeColor=#666666;fontColor=#ffffff;mainText=;buttonStyle=round;fontSize=17;fontStyle=1;fillColor=#97D077;whiteSpace=wrap;labelBackgroundColor=none;fontFamily=Helvetica;" parent="9eUd9DhQg92disXK_FVn-0" vertex="1">
                    <mxGeometry x="352.5" y="727" width="116" height="52" as="geometry"/>
                </mxCell>
                <mxCell id="UWlmWCPshEzVkQlnpzg2-0" value="Annuler" style="strokeWidth=1;shadow=0;dashed=0;align=center;html=1;shape=mxgraph.mockup.buttons.button;strokeColor=#666666;fontColor=#ffffff;mainText=;buttonStyle=round;fontSize=17;fontStyle=1;fillColor=#FF9999;whiteSpace=wrap;labelBackgroundColor=none;fontFamily=Helvetica;" parent="9eUd9DhQg92disXK_FVn-0" vertex="1">
                    <mxGeometry x="686" y="727" width="116" height="52" as="geometry"/>
                </mxCell>
            </root>
        </mxGraphModel>
    </diagram>
    <diagram id="FaWUZfU0TmcHPQL3xSgL" name="A propos_P_U">
        <mxGraphModel dx="2637" dy="1701" grid="1" gridSize="10" guides="1" tooltips="1" connect="1" arrows="1" fold="1" page="1" pageScale="1" pageWidth="1169" pageHeight="827" math="0" shadow="0">
            <root>
                <mxCell id="yO_pulQ1E_DKKTdFIMaO-0"/>
                <mxCell id="yO_pulQ1E_DKKTdFIMaO-1" parent="yO_pulQ1E_DKKTdFIMaO-0"/>
                <mxCell id="6r1gqFElbiCd2Kfrb2qM-0" value="" style="strokeWidth=1;shadow=0;dashed=0;align=center;html=1;shape=mxgraph.mockup.containers.browserWindow;rSize=0;strokeColor=#E6E6E6;strokeColor2=#008cff;strokeColor3=#c4c4c4;mainText=,;recursiveResize=0;" parent="yO_pulQ1E_DKKTdFIMaO-1" vertex="1">
                    <mxGeometry x="-1164" y="-827" width="1159" height="827" as="geometry"/>
                </mxCell>
                <mxCell id="6r1gqFElbiCd2Kfrb2qM-1" value="Médiathèque" style="strokeWidth=1;shadow=0;dashed=0;align=center;html=1;shape=mxgraph.mockup.containers.anchor;fontSize=17;fontColor=#666666;align=left;" parent="6r1gqFElbiCd2Kfrb2qM-0" vertex="1">
                    <mxGeometry x="60" y="12" width="150" height="26" as="geometry"/>
                </mxCell>
                <mxCell id="6r1gqFElbiCd2Kfrb2qM-2" value="https://www.mediatheque.fr" style="strokeWidth=1;shadow=0;dashed=0;align=center;html=1;shape=mxgraph.mockup.containers.anchor;rSize=0;fontSize=17;fontColor=#666666;align=left;" parent="6r1gqFElbiCd2Kfrb2qM-0" vertex="1">
                    <mxGeometry x="130" y="60" width="250" height="26" as="geometry"/>
                </mxCell>
                <mxCell id="6r1gqFElbiCd2Kfrb2qM-4" value="&lt;font style=&quot;font-size: 45px&quot; color=&quot;#a1a1a1&quot;&gt;Médiathèque&lt;/font&gt;" style="rounded=0;whiteSpace=wrap;html=1;strokeColor=#A1A1A1;" parent="6r1gqFElbiCd2Kfrb2qM-0" vertex="1">
                    <mxGeometry y="110" width="1160" height="60" as="geometry"/>
                </mxCell>
                <mxCell id="VFHHFNT7BebBZFPwQx-a-0" value="" style="rounded=0;whiteSpace=wrap;html=1;fontSize=12;fontColor=#333333;strokeColor=#666666;fillColor=#C2C2C2;" parent="6r1gqFElbiCd2Kfrb2qM-0" vertex="1">
                    <mxGeometry y="170" width="1159" height="60" as="geometry"/>
                </mxCell>
                <UserObject label="&amp;nbsp; &amp;nbsp; &amp;nbsp; &amp;nbsp; &amp;nbsp; &amp;nbsp; &amp;nbsp;Mon profil" link="data:page/id,lGLJw4ro3tzLa91ZYzbf" id="VFHHFNT7BebBZFPwQx-a-1">
                    <mxCell style="rounded=0;whiteSpace=wrap;html=1;fontSize=16;fontColor=#FFFFFF;strokeColor=#666666;fillColor=#C2C2C2;align=center;fontStyle=1" parent="6r1gqFElbiCd2Kfrb2qM-0" vertex="1">
                        <mxGeometry x="1001" y="170" width="159" height="60" as="geometry"/>
                    </mxCell>
                </UserObject>
                <UserObject label="Gérer un utilisateur" link="data:page/id,gnByjOrjejcISsql6juy" id="VFHHFNT7BebBZFPwQx-a-4">
                    <mxCell style="rounded=0;whiteSpace=wrap;html=1;fontSize=16;strokeColor=#666666;fillColor=#C2C2C2;fontColor=#FFFFFF;fontStyle=1" parent="6r1gqFElbiCd2Kfrb2qM-0" vertex="1">
                        <mxGeometry x="291" y="170" width="138" height="60" as="geometry"/>
                    </mxCell>
                </UserObject>
                <UserObject label="A propos" link="data:page/id,FaWUZfU0TmcHPQL3xSgL" id="VFHHFNT7BebBZFPwQx-a-5">
                    <mxCell style="rounded=0;whiteSpace=wrap;html=1;fontSize=16;strokeColor=#666666;fillColor=#FFFFFF;fontColor=#C2C2C2;fontStyle=1" parent="6r1gqFElbiCd2Kfrb2qM-0" vertex="1">
                        <mxGeometry x="429" y="170" width="138" height="60" as="geometry"/>
                    </mxCell>
                </UserObject>
                <UserObject label="Gérer une ressource" link="data:page/id,1-_ZAtHb4YZcZEY1NWBs" id="VFHHFNT7BebBZFPwQx-a-6">
                    <mxCell style="rounded=0;whiteSpace=wrap;html=1;fontSize=16;strokeColor=#666666;fillColor=#C2C2C2;fontColor=#FFFFFF;fontStyle=1" parent="6r1gqFElbiCd2Kfrb2qM-0" vertex="1">
                        <mxGeometry x="152" y="170" width="139" height="60" as="geometry"/>
                    </mxCell>
                </UserObject>
                <UserObject label="Accueil" link="data:page/id,yl5hMWLeE0mNzgKsfhri" id="VFHHFNT7BebBZFPwQx-a-7">
                    <mxCell style="rounded=0;whiteSpace=wrap;html=1;fontSize=16;fontColor=#FFFFFF;strokeColor=#666666;fillColor=#C2C2C2;fontStyle=1" parent="6r1gqFElbiCd2Kfrb2qM-0" vertex="1">
                        <mxGeometry x="1" y="170" width="151" height="60" as="geometry"/>
                    </mxCell>
                </UserObject>
                <mxCell id="VFHHFNT7BebBZFPwQx-a-8" value="" style="shape=image;html=1;verticalAlign=top;verticalLabelPosition=bottom;labelBackgroundColor=#ffffff;imageAspect=0;aspect=fixed;image=https://cdn4.iconfinder.com/data/icons/ui-office/512/User_Interface-40-128.png;shadow=0;fontSize=31;fontColor=#C2C2C2;strokeColor=#FFFFFF;fillColor=#666666;gradientColor=#000000;fontStyle=1;strokeWidth=2;" parent="6r1gqFElbiCd2Kfrb2qM-0" vertex="1">
                    <mxGeometry x="1142" y="210" width="20" height="20" as="geometry"/>
                </mxCell>
                <mxCell id="VFHHFNT7BebBZFPwQx-a-9" value="" style="verticalLabelPosition=bottom;shadow=0;dashed=0;align=center;html=1;verticalAlign=top;strokeWidth=1;shape=mxgraph.mockup.containers.userFemale;strokeColor=#666666;strokeColor2=#008cff;fontSize=12;fontColor=#FFFFFF;fillColor=#FFFFFF;gradientColor=#FFFFFF;" parent="6r1gqFElbiCd2Kfrb2qM-0" vertex="1">
                    <mxGeometry x="1024.5" y="185" width="40" height="30" as="geometry"/>
                </mxCell>
                <mxCell id="2K1-wZb0Fqvjtu1zi2Pl-7" value="&lt;h1&gt;Notre histoire&lt;/h1&gt;&lt;p style=&quot;margin: 0px 0px 15px ; padding: 0px ; color: rgb(0 , 0 , 0) ; font-family: &amp;#34;open sans&amp;#34; , &amp;#34;arial&amp;#34; , sans-serif ; background-color: rgb(255 , 255 , 255)&quot;&gt;Proin tincidunt, tellus eu maximus pellentesque, libero mauris mattis dolor, a facilisis lacus ligula et sem. Donec tempor egestas libero, a molestie tortor tincidunt in.&lt;/p&gt;&lt;p style=&quot;margin: 0px 0px 15px ; padding: 0px ; color: rgb(0 , 0 , 0) ; font-family: &amp;#34;open sans&amp;#34; , &amp;#34;arial&amp;#34; , sans-serif ; background-color: rgb(255 , 255 , 255)&quot;&gt;Aliquam et ornare enim. Nulla facilisi. Mauris hendrerit dolor purus, vulputate interdum purus iaculis eget. Curabitur vitae neque eu felis ullamcorper interdum. Praesent eu pretium dolor. Mauris nunc lectus, faucibus quis ligula eget, consequat bibendum orci. Nunc commodo congue eros sit amet fringilla. Suspendisse potenti. Praesent at felis at metus ornare ultricies. Nunc cursus diam laoreet lorem iaculis condimentum.&lt;/p&gt;&lt;p&gt;&lt;span style=&quot;background-color: rgb(255 , 255 , 255) ; color: rgb(0 , 0 , 0) ; font-family: &amp;#34;open sans&amp;#34; , &amp;#34;arial&amp;#34; , sans-serif&quot;&gt;Nam imperdiet mollis augue, vel eleifend odio blandit varius. Nulla imperdiet tincidunt risus. Aliquam eu egestas velit. Fusce sapien mauris, scelerisque nec nisl non, congue tristique felis. Proin lacinia ultricies mi a viverra. Phasellus sagittis turpis in dapibus hendrerit. Aliquam tincidunt risus vel bibendum convallis.&lt;/span&gt;.&lt;/p&gt;" style="text;html=1;strokeColor=none;fillColor=none;spacing=5;spacingTop=-20;whiteSpace=wrap;overflow=hidden;rounded=0;shadow=0;labelBackgroundColor=none;labelBorderColor=default;fontFamily=Helvetica;fontSize=14;fontColor=#C2C2C2;spacingBottom=21;align=left;" parent="6r1gqFElbiCd2Kfrb2qM-0" vertex="1">
                    <mxGeometry x="50" y="330" width="460" height="400" as="geometry"/>
                </mxCell>
                <mxCell id="ISpFY_twQbGpo9RDo1vz-0" value="" style="ellipse;shape=cloud;whiteSpace=wrap;html=1;shadow=0;labelBackgroundColor=none;labelBorderColor=default;fontFamily=Helvetica;fontSize=14;strokeColor=#FFFFFF;strokeWidth=0;fillColor=#C2C2C2;" parent="6r1gqFElbiCd2Kfrb2qM-0" vertex="1">
                    <mxGeometry x="240" y="290" width="120" height="80" as="geometry"/>
                </mxCell>
                <mxCell id="ISpFY_twQbGpo9RDo1vz-1" value="" style="ellipse;shape=cloud;whiteSpace=wrap;html=1;shadow=0;labelBackgroundColor=none;labelBorderColor=default;fontFamily=Helvetica;fontSize=14;strokeColor=#0e8088;strokeWidth=0;fillColor=#C2C2C2;" parent="6r1gqFElbiCd2Kfrb2qM-0" vertex="1">
                    <mxGeometry x="360" y="280" width="60" height="50" as="geometry"/>
                </mxCell>
                <mxCell id="ISpFY_twQbGpo9RDo1vz-2" value="" style="ellipse;shape=cloud;whiteSpace=wrap;html=1;shadow=0;labelBackgroundColor=none;labelBorderColor=default;fontFamily=Helvetica;fontSize=14;strokeColor=#FFFFFF;strokeWidth=0;fillColor=#C2C2C2;" parent="6r1gqFElbiCd2Kfrb2qM-0" vertex="1">
                    <mxGeometry x="430" y="270" width="40" height="30" as="geometry"/>
                </mxCell>
                <mxCell id="ISpFY_twQbGpo9RDo1vz-6" value="" style="shape=image;html=1;verticalAlign=top;verticalLabelPosition=bottom;labelBackgroundColor=#ffffff;imageAspect=0;aspect=fixed;image=https://cdn4.iconfinder.com/data/icons/business-660/512/17_team_group_meeting_business-128.png;shadow=0;labelBorderColor=default;fontFamily=Helvetica;fontSize=14;fontColor=#C2C2C2;strokeColor=#FFFFFF;strokeWidth=0;fillColor=#C2C2C2;gradientColor=#000000;" parent="6r1gqFElbiCd2Kfrb2qM-0" vertex="1">
                    <mxGeometry x="794" y="270" width="114" height="114" as="geometry"/>
                </mxCell>
                <mxCell id="ISpFY_twQbGpo9RDo1vz-8" value="&lt;font style=&quot;font-size: 27px&quot;&gt;NOTRE EQUIPE&lt;/font&gt;" style="text;html=1;strokeColor=none;fillColor=none;align=center;verticalAlign=middle;whiteSpace=wrap;rounded=0;shadow=0;labelBackgroundColor=none;labelBorderColor=none;fontFamily=Helvetica;fontSize=14;fontColor=#C2C2C2;" parent="6r1gqFElbiCd2Kfrb2qM-0" vertex="1">
                    <mxGeometry x="704" y="367" width="281" height="60" as="geometry"/>
                </mxCell>
                <mxCell id="ISpFY_twQbGpo9RDo1vz-10" value="&#10;&#10;&lt;p style=&quot;margin: 0px 0px 15px; padding: 0px; text-align: justify; color: rgb(0, 0, 0); font-family: &amp;quot;open sans&amp;quot;, arial, sans-serif; font-size: 14px; font-style: normal; font-weight: 400; letter-spacing: normal; text-indent: 0px; text-transform: none; word-spacing: 0px; background-color: rgb(255, 255, 255);&quot;&gt;Proin tincidunt, tellus eu maximus pellentesque, libero mauris mattis dolor, a facilisis lacus ligula et sem. Donec tempor egestas libero, a molestie tortor tincidunt in.&lt;/p&gt;&lt;p style=&quot;margin: 0px 0px 15px; padding: 0px; text-align: justify; color: rgb(0, 0, 0); font-family: &amp;quot;open sans&amp;quot;, arial, sans-serif; font-size: 14px; font-style: normal; font-weight: 400; letter-spacing: normal; text-indent: 0px; text-transform: none; word-spacing: 0px; background-color: rgb(255, 255, 255);&quot;&gt;Aliquam et ornare enim. Nulla facilisi. Mauris hendrerit dolor purus, vulputate interdum purus iaculis eget. Curabitur vitae neque eu felis ullamcorper interdum. Praesent eu pretium dolor. Mauris nunc lectus, faucibus quis ligula eget, consequat bibendum orci. Nunc commodo congue eros sit amet fringilla. Suspendisse potenti. Praesent at felis at metus ornare ultricies. Nunc cursus diam laoreet lorem iaculis condimentum.&lt;/p&gt;&lt;p style=&quot;margin: 0px 0px 15px; padding: 0px; text-align: justify; color: rgb(0, 0, 0); font-family: &amp;quot;open sans&amp;quot;, arial, sans-serif; font-size: 14px; font-style: normal; font-weight: 400; letter-spacing: normal; text-indent: 0px; text-transform: none; word-spacing: 0px; background-color: rgb(255, 255, 255);&quot;&gt;Nam imperdiet mollis augue, vel eleifend odio blandit varius. Nulla imperdiet tincidunt risus. Aliquam eu egestas velit. Fusce sapien mauris, scelerisque nec nisl non, congue tristique felis. Proin lacinia ultricies mi a viverra. Phasellus sagittis turpis in dapibus hendrerit. Aliquam tincidunt risus vel bibendum convallis.&lt;/p&gt;&#10;&#10;" style="text;html=1;strokeColor=none;fillColor=none;align=center;verticalAlign=middle;whiteSpace=wrap;rounded=0;shadow=0;labelBackgroundColor=none;labelBorderColor=none;fontFamily=Helvetica;fontSize=27;fontColor=#C2C2C2;" parent="6r1gqFElbiCd2Kfrb2qM-0" vertex="1">
                    <mxGeometry x="580" y="537" width="510" height="30" as="geometry"/>
                </mxCell>
                <mxCell id="ISpFY_twQbGpo9RDo1vz-11" value="" style="dashed=0;outlineConnect=0;html=1;align=center;labelPosition=center;verticalLabelPosition=bottom;verticalAlign=top;shape=mxgraph.webicons.facebook;fillColor=#6294E4;gradientColor=#1A2665;shadow=0;labelBackgroundColor=none;labelBorderColor=none;fontFamily=Helvetica;fontSize=27;fontColor=#C2C2C2;strokeColor=#FFFFFF;strokeWidth=0;" parent="6r1gqFElbiCd2Kfrb2qM-0" vertex="1">
                    <mxGeometry x="716.5" y="707" width="30" height="26" as="geometry"/>
                </mxCell>
                <mxCell id="ISpFY_twQbGpo9RDo1vz-12" value="" style="dashed=0;outlineConnect=0;html=1;align=center;labelPosition=center;verticalLabelPosition=bottom;verticalAlign=top;shape=mxgraph.webicons.gmail;gradientColor=#DFDEDE;shadow=0;labelBackgroundColor=none;labelBorderColor=none;fontFamily=Helvetica;fontSize=27;fontColor=#C2C2C2;strokeColor=#FFFFFF;strokeWidth=0;" parent="6r1gqFElbiCd2Kfrb2qM-0" vertex="1">
                    <mxGeometry x="762.5" y="707" width="30" height="26" as="geometry"/>
                </mxCell>
                <mxCell id="ISpFY_twQbGpo9RDo1vz-13" value="" style="shape=image;html=1;verticalAlign=top;verticalLabelPosition=bottom;labelBackgroundColor=#ffffff;imageAspect=0;image=https://cdn3.iconfinder.com/data/icons/2018-social-media-logotypes/1000/2018_social_media_popular_app_logo_instagram-128.png;shadow=0;labelBorderColor=none;fontFamily=Helvetica;fontSize=27;fontColor=#C2C2C2;strokeColor=#FFFFFF;strokeWidth=0;fillColor=#C2C2C2;gradientColor=#000000;" parent="6r1gqFElbiCd2Kfrb2qM-0" vertex="1">
                    <mxGeometry x="852.5" y="708" width="30" height="26" as="geometry"/>
                </mxCell>
                <mxCell id="ISpFY_twQbGpo9RDo1vz-14" value="" style="shape=image;html=1;verticalAlign=top;verticalLabelPosition=bottom;labelBackgroundColor=#ffffff;imageAspect=0;image=https://cdn3.iconfinder.com/data/icons/modern-social-free/1024/Twitter-128.png;shadow=0;labelBorderColor=none;fontFamily=Helvetica;fontSize=27;fontColor=#C2C2C2;strokeColor=#FFFFFF;strokeWidth=0;fillColor=#C2C2C2;gradientColor=#000000;" parent="6r1gqFElbiCd2Kfrb2qM-0" vertex="1">
                    <mxGeometry x="809.5" y="708.5" width="30" height="26" as="geometry"/>
                </mxCell>
                <mxCell id="ISpFY_twQbGpo9RDo1vz-15" value="" style="dashed=0;outlineConnect=0;html=1;align=center;labelPosition=center;verticalLabelPosition=bottom;verticalAlign=top;shape=mxgraph.weblogos.pinterest;fillColor=#BD081C;strokeColor=none;shadow=0;labelBackgroundColor=none;labelBorderColor=none;fontFamily=Helvetica;fontSize=27;fontColor=#C2C2C2;" parent="6r1gqFElbiCd2Kfrb2qM-0" vertex="1">
                    <mxGeometry x="898.5" y="707" width="30" height="26" as="geometry"/>
                </mxCell>
                <mxCell id="ISpFY_twQbGpo9RDo1vz-16" value="" style="dashed=0;outlineConnect=0;html=1;align=center;labelPosition=center;verticalLabelPosition=bottom;verticalAlign=top;shape=mxgraph.weblogos.tumblr;fillColor=#36465D;strokeColor=none;shadow=0;labelBackgroundColor=none;labelBorderColor=none;fontFamily=Helvetica;fontSize=27;fontColor=#C2C2C2;" parent="6r1gqFElbiCd2Kfrb2qM-0" vertex="1">
                    <mxGeometry x="942.5" y="708.1999999999999" width="30" height="26" as="geometry"/>
                </mxCell>
                <mxCell id="spfWVaVzobuMwMP3B2eM-0" value="" style="rounded=0;whiteSpace=wrap;html=1;shadow=0;labelBackgroundColor=none;fontSize=29;strokeColor=#FFFFFF;fillColor=#FFFFFF;" parent="6r1gqFElbiCd2Kfrb2qM-0" vertex="1">
                    <mxGeometry x="431" y="228.5" width="136" height="1.5" as="geometry"/>
                </mxCell>
                <UserObject label="Services" link="data:page/id,1y3C5vE3ofAHqLID96lu" id="VFHHFNT7BebBZFPwQx-a-2">
                    <mxCell style="rounded=0;whiteSpace=wrap;html=1;fontSize=16;fontColor=#FFFFFF;strokeColor=#666666;fillColor=#C2C2C2;fontStyle=1" parent="6r1gqFElbiCd2Kfrb2qM-0" vertex="1">
                        <mxGeometry x="567" y="170" width="151" height="60" as="geometry"/>
                    </mxCell>
                </UserObject>
                <mxCell id="Jj1t1cLIXk1wosHUK26q-0" value="" style="html=1;shadow=0;dashed=0;shape=mxgraph.bootstrap.rrect;rSize=5;strokeColor=#CED4DA;html=1;whiteSpace=wrap;fillColor=#FFFFFF;fontColor=#7D868C;align=left;spacingLeft=0;spacing=15;fontSize=14;" parent="6r1gqFElbiCd2Kfrb2qM-0" vertex="1">
                    <mxGeometry x="898.5" y="123.5" width="227" height="33" as="geometry"/>
                </mxCell>
                <mxCell id="Jj1t1cLIXk1wosHUK26q-1" value="Rechercher" style="html=1;shadow=0;dashed=0;shape=mxgraph.bootstrap.rightButton;strokeColor=#6C757D;gradientColor=inherit;fontColor=inherit;fillColor=inherit;rSize=5;perimeter=none;whiteSpace=wrap;resizeHeight=1;fontSize=14;" parent="Jj1t1cLIXk1wosHUK26q-0" vertex="1">
                    <mxGeometry x="1" width="89" height="33" relative="1" as="geometry">
                        <mxPoint x="-70" as="offset"/>
                    </mxGeometry>
                </mxCell>
            </root>
        </mxGraphModel>
    </diagram>
    <diagram id="1y3C5vE3ofAHqLID96lu" name="Services_P">
        <mxGraphModel dx="2637" dy="1701" grid="1" gridSize="10" guides="1" tooltips="1" connect="1" arrows="1" fold="1" page="1" pageScale="1" pageWidth="1169" pageHeight="827" math="0" shadow="0">
            <root>
                <mxCell id="-F8ZRrA9U1gFo4p8KeI1-0"/>
                <mxCell id="-F8ZRrA9U1gFo4p8KeI1-1" parent="-F8ZRrA9U1gFo4p8KeI1-0"/>
                <mxCell id="66A47X1ILaRykaAeM31l-0" value="" style="strokeWidth=1;shadow=0;dashed=0;align=center;html=1;shape=mxgraph.mockup.containers.browserWindow;rSize=0;strokeColor=#E6E6E6;strokeColor2=#008cff;strokeColor3=#c4c4c4;mainText=,;recursiveResize=0;" parent="-F8ZRrA9U1gFo4p8KeI1-1" vertex="1">
                    <mxGeometry x="-1169" y="-827" width="1169" height="827" as="geometry"/>
                </mxCell>
                <mxCell id="66A47X1ILaRykaAeM31l-1" value="Médiathèque" style="strokeWidth=1;shadow=0;dashed=0;align=center;html=1;shape=mxgraph.mockup.containers.anchor;fontSize=17;fontColor=#666666;align=left;" parent="66A47X1ILaRykaAeM31l-0" vertex="1">
                    <mxGeometry x="60" y="12" width="150" height="26" as="geometry"/>
                </mxCell>
                <mxCell id="66A47X1ILaRykaAeM31l-2" value="https://www.mediatheque.fr" style="strokeWidth=1;shadow=0;dashed=0;align=center;html=1;shape=mxgraph.mockup.containers.anchor;rSize=0;fontSize=17;fontColor=#666666;align=left;" parent="66A47X1ILaRykaAeM31l-0" vertex="1">
                    <mxGeometry x="130" y="60" width="250" height="26" as="geometry"/>
                </mxCell>
                <mxCell id="66A47X1ILaRykaAeM31l-4" value="&lt;font style=&quot;font-size: 45px&quot; color=&quot;#a1a1a1&quot;&gt;Médiathèque&lt;/font&gt;" style="rounded=0;whiteSpace=wrap;html=1;strokeColor=#A1A1A1;" parent="66A47X1ILaRykaAeM31l-0" vertex="1">
                    <mxGeometry y="110" width="1169" height="60" as="geometry"/>
                </mxCell>
                <mxCell id="3GkGw933uDDyQRS5xqGZ-0" value="" style="rounded=0;whiteSpace=wrap;html=1;fontSize=12;fontColor=#333333;strokeColor=#666666;fillColor=#C2C2C2;" parent="66A47X1ILaRykaAeM31l-0" vertex="1">
                    <mxGeometry y="170" width="1159" height="60" as="geometry"/>
                </mxCell>
                <UserObject label="&amp;nbsp; &amp;nbsp; &amp;nbsp; &amp;nbsp; &amp;nbsp; &amp;nbsp; &amp;nbsp;Mon profil" link="data:page/id,lGLJw4ro3tzLa91ZYzbf" id="3GkGw933uDDyQRS5xqGZ-1">
                    <mxCell style="rounded=0;whiteSpace=wrap;html=1;fontSize=16;fontColor=#FFFFFF;strokeColor=#666666;fillColor=#C2C2C2;align=center;fontStyle=1" parent="66A47X1ILaRykaAeM31l-0" vertex="1">
                        <mxGeometry x="1001" y="170" width="168" height="60" as="geometry"/>
                    </mxCell>
                </UserObject>
                <UserObject label="Services" link="data:page/id,1y3C5vE3ofAHqLID96lu" id="3GkGw933uDDyQRS5xqGZ-2">
                    <mxCell style="rounded=0;whiteSpace=wrap;html=1;fontSize=16;fontColor=#C2C2C2;strokeColor=#666666;fillColor=#FFFFFF;fontStyle=1" parent="66A47X1ILaRykaAeM31l-0" vertex="1">
                        <mxGeometry x="567" y="170" width="151" height="60" as="geometry"/>
                    </mxCell>
                </UserObject>
                <UserObject label="Gérer un utilisateur" link="data:page/id,gnByjOrjejcISsql6juy" id="3GkGw933uDDyQRS5xqGZ-4">
                    <mxCell style="rounded=0;whiteSpace=wrap;html=1;fontSize=16;strokeColor=#666666;fillColor=#C2C2C2;fontColor=#FFFFFF;fontStyle=1" parent="66A47X1ILaRykaAeM31l-0" vertex="1">
                        <mxGeometry x="291" y="170" width="138" height="60" as="geometry"/>
                    </mxCell>
                </UserObject>
                <UserObject label="A propos" link="data:page/id,FaWUZfU0TmcHPQL3xSgL" id="3GkGw933uDDyQRS5xqGZ-5">
                    <mxCell style="rounded=0;whiteSpace=wrap;html=1;fontSize=16;strokeColor=#666666;fillColor=#C2C2C2;fontColor=#FFFFFF;fontStyle=1" parent="66A47X1ILaRykaAeM31l-0" vertex="1">
                        <mxGeometry x="429" y="170" width="138" height="60" as="geometry"/>
                    </mxCell>
                </UserObject>
                <UserObject label="Gérer une ressource" link="data:page/id,1-_ZAtHb4YZcZEY1NWBs" id="3GkGw933uDDyQRS5xqGZ-6">
                    <mxCell style="rounded=0;whiteSpace=wrap;html=1;fontSize=16;strokeColor=#666666;fillColor=#C2C2C2;fontColor=#FFFFFF;fontStyle=1" parent="66A47X1ILaRykaAeM31l-0" vertex="1">
                        <mxGeometry x="152" y="170" width="139" height="60" as="geometry"/>
                    </mxCell>
                </UserObject>
                <UserObject label="Accueil" link="data:page/id,yl5hMWLeE0mNzgKsfhri" id="3GkGw933uDDyQRS5xqGZ-7">
                    <mxCell style="rounded=0;whiteSpace=wrap;html=1;fontSize=16;fontColor=#FFFFFF;strokeColor=#666666;fillColor=#C2C2C2;fontStyle=1" parent="66A47X1ILaRykaAeM31l-0" vertex="1">
                        <mxGeometry x="1" y="170" width="151" height="60" as="geometry"/>
                    </mxCell>
                </UserObject>
                <mxCell id="3GkGw933uDDyQRS5xqGZ-8" value="" style="shape=image;html=1;verticalAlign=top;verticalLabelPosition=bottom;labelBackgroundColor=#ffffff;imageAspect=0;aspect=fixed;image=https://cdn4.iconfinder.com/data/icons/ui-office/512/User_Interface-40-128.png;shadow=0;fontSize=31;fontColor=#C2C2C2;strokeColor=#FFFFFF;fillColor=#666666;gradientColor=#000000;fontStyle=1;strokeWidth=2;" parent="66A47X1ILaRykaAeM31l-0" vertex="1">
                    <mxGeometry x="1148" y="210" width="20" height="20" as="geometry"/>
                </mxCell>
                <mxCell id="3GkGw933uDDyQRS5xqGZ-9" value="" style="verticalLabelPosition=bottom;shadow=0;dashed=0;align=center;html=1;verticalAlign=top;strokeWidth=1;shape=mxgraph.mockup.containers.userFemale;strokeColor=#666666;strokeColor2=#008cff;fontSize=12;fontColor=#FFFFFF;fillColor=#FFFFFF;gradientColor=#FFFFFF;" parent="66A47X1ILaRykaAeM31l-0" vertex="1">
                    <mxGeometry x="1024.5" y="185" width="40" height="30" as="geometry"/>
                </mxCell>
            </root>
        </mxGraphModel>
    </diagram>
    <diagram id="lGLJw4ro3tzLa91ZYzbf" name="Profil_P">
        <mxGraphModel dx="2637" dy="1701" grid="1" gridSize="10" guides="1" tooltips="1" connect="1" arrows="1" fold="1" page="1" pageScale="1" pageWidth="1169" pageHeight="827" math="0" shadow="0">
            <root>
                <mxCell id="8LJmpXoluB1Rz5WYtLZZ-0"/>
                <mxCell id="8LJmpXoluB1Rz5WYtLZZ-1" parent="8LJmpXoluB1Rz5WYtLZZ-0"/>
                <mxCell id="As_-dO1jrNgRpWuWa4fp-0" value="&#10;&#10;&lt;span style=&quot;color: rgb(255, 255, 255); font-family: helvetica; font-size: 16px; font-style: normal; font-weight: 700; letter-spacing: normal; text-align: center; text-indent: 0px; text-transform: none; word-spacing: 0px; background-color: rgb(248, 249, 250); display: inline; float: none;&quot;&gt;Infos pratique&lt;/span&gt;&#10;&#10;" style="strokeWidth=1;shadow=0;dashed=0;align=center;html=1;shape=mxgraph.mockup.containers.browserWindow;rSize=0;strokeColor=#666666;strokeColor2=#008cff;strokeColor3=#c4c4c4;mainText=,;recursiveResize=0;" parent="8LJmpXoluB1Rz5WYtLZZ-1" vertex="1">
                    <mxGeometry x="-1169" y="-827" width="1169" height="827" as="geometry"/>
                </mxCell>
                <mxCell id="As_-dO1jrNgRpWuWa4fp-1" value="Médiathèque" style="strokeWidth=1;shadow=0;dashed=0;align=center;html=1;shape=mxgraph.mockup.containers.anchor;fontSize=17;fontColor=#666666;align=left;" parent="As_-dO1jrNgRpWuWa4fp-0" vertex="1">
                    <mxGeometry x="60" y="12" width="150" height="26" as="geometry"/>
                </mxCell>
                <mxCell id="As_-dO1jrNgRpWuWa4fp-2" value="https://www.mediatheque.fr" style="strokeWidth=1;shadow=0;dashed=0;align=center;html=1;shape=mxgraph.mockup.containers.anchor;rSize=0;fontSize=17;fontColor=#666666;align=left;" parent="As_-dO1jrNgRpWuWa4fp-0" vertex="1">
                    <mxGeometry x="130" y="60" width="250" height="26" as="geometry"/>
                </mxCell>
                <mxCell id="As_-dO1jrNgRpWuWa4fp-4" value="&lt;font style=&quot;font-size: 29px;&quot; color=&quot;#a1a1a1&quot;&gt;Médiathèque&lt;/font&gt;" style="rounded=0;whiteSpace=wrap;html=1;strokeColor=#A1A1A1;fontSize=29;" parent="As_-dO1jrNgRpWuWa4fp-0" vertex="1">
                    <mxGeometry y="110" width="1169" height="70" as="geometry"/>
                </mxCell>
                <mxCell id="5h7HqcyKkBHY31chbrXu-2" value="" style="verticalLabelPosition=bottom;shadow=0;dashed=0;align=center;html=1;verticalAlign=top;strokeWidth=1;shape=mxgraph.mockup.containers.userFemale;strokeColor=#666666;strokeColor2=#008cff;labelBackgroundColor=default;fontColor=default;fillColor=#FFFFFF;gradientColor=#000000;" parent="As_-dO1jrNgRpWuWa4fp-0" vertex="1">
                    <mxGeometry x="512" y="280" width="141" height="143" as="geometry"/>
                </mxCell>
                <mxCell id="5h7HqcyKkBHY31chbrXu-51" value="Mon profil" style="fillColor=none;strokeColor=none;align=left;fontSize=14;shadow=0;labelBackgroundColor=default;fontColor=default;" parent="As_-dO1jrNgRpWuWa4fp-0" vertex="1">
                    <mxGeometry x="545" y="413" width="260" height="40" as="geometry"/>
                </mxCell>
                <mxCell id="5h7HqcyKkBHY31chbrXu-67" value="Email" style="fillColor=none;strokeColor=none;align=left;fontSize=14;shadow=0;labelBackgroundColor=default;fontColor=default;" parent="As_-dO1jrNgRpWuWa4fp-0" vertex="1">
                    <mxGeometry x="359.5" y="497" width="260" height="40" as="geometry"/>
                </mxCell>
                <mxCell id="5h7HqcyKkBHY31chbrXu-68" value="Prénom" style="fillColor=none;strokeColor=none;align=left;fontSize=14;shadow=0;labelBackgroundColor=default;fontColor=default;" parent="As_-dO1jrNgRpWuWa4fp-0" vertex="1">
                    <mxGeometry x="558.5" y="457" width="260" height="40" as="geometry"/>
                </mxCell>
                <mxCell id="5h7HqcyKkBHY31chbrXu-52" value="name@exemple.com" style="html=1;shadow=0;dashed=0;shape=mxgraph.bootstrap.rrect;rSize=5;fillColor=none;strokeColor=#999999;align=left;spacing=15;fontSize=14;fontColor=#6C767D;labelBackgroundColor=default;" parent="As_-dO1jrNgRpWuWa4fp-0" vertex="1">
                    <mxGeometry width="440" height="30" relative="1" as="geometry">
                        <mxPoint x="360" y="527" as="offset"/>
                    </mxGeometry>
                </mxCell>
                <mxCell id="5h7HqcyKkBHY31chbrXu-53" value="Nom" style="fillColor=none;strokeColor=none;align=left;fontSize=14;shadow=0;labelBackgroundColor=default;fontColor=default;" parent="As_-dO1jrNgRpWuWa4fp-0" vertex="1">
                    <mxGeometry width="260" height="40" relative="1" as="geometry">
                        <mxPoint x="360" y="453" as="offset"/>
                    </mxGeometry>
                </mxCell>
                <mxCell id="5h7HqcyKkBHY31chbrXu-73" value="" style="html=1;shadow=0;dashed=0;shape=mxgraph.bootstrap.rrect;rSize=5;fillColor=none;strokeColor=#999999;align=left;spacing=15;fontSize=14;fontColor=#6C767D;labelBackgroundColor=default;" parent="As_-dO1jrNgRpWuWa4fp-0" vertex="1">
                    <mxGeometry x="359.5" y="597" width="440" height="30" as="geometry"/>
                </mxCell>
                <mxCell id="5h7HqcyKkBHY31chbrXu-74" value="Password" style="fillColor=none;strokeColor=none;align=left;fontSize=14;shadow=0;labelBackgroundColor=default;fontColor=default;" parent="As_-dO1jrNgRpWuWa4fp-0" vertex="1">
                    <mxGeometry x="359.5" y="567" width="260" height="40" as="geometry"/>
                </mxCell>
                <mxCell id="5h7HqcyKkBHY31chbrXu-75" value="" style="shape=image;html=1;verticalAlign=top;verticalLabelPosition=bottom;labelBackgroundColor=#ffffff;imageAspect=0;aspect=fixed;image=https://cdn2.iconfinder.com/data/icons/bitsies/128/Pen-128.png;shadow=0;fontSize=19;fontColor=#FFFFFF;strokeColor=#A1A1A1;fillColor=#A1A1A1;gradientColor=#000000;" parent="As_-dO1jrNgRpWuWa4fp-0" vertex="1">
                    <mxGeometry x="805" y="527" width="21" height="21" as="geometry"/>
                </mxCell>
                <mxCell id="vsVgw4xQnE7lXd5vycfk-0" value="" style="rounded=0;whiteSpace=wrap;html=1;fontSize=12;fontColor=#333333;strokeColor=#666666;fillColor=#C2C2C2;" parent="As_-dO1jrNgRpWuWa4fp-0" vertex="1">
                    <mxGeometry y="180" width="1159" height="60" as="geometry"/>
                </mxCell>
                <UserObject label="&amp;nbsp; &amp;nbsp; &amp;nbsp; &amp;nbsp; &amp;nbsp; &amp;nbsp; &amp;nbsp;Mon profil" link="data:page/id,lGLJw4ro3tzLa91ZYzbf" id="CZ2nGs9EubUqlX-m7-kD-0">
                    <mxCell style="rounded=0;whiteSpace=wrap;html=1;fontSize=16;fontColor=#666666;strokeColor=#666666;fillColor=#FFFFFF;align=center;" parent="As_-dO1jrNgRpWuWa4fp-0" vertex="1">
                        <mxGeometry x="1000" y="180" width="169" height="60" as="geometry"/>
                    </mxCell>
                </UserObject>
                <mxCell id="lhSVIgbtmwpnUgxzdQ_j-0" value="" style="verticalLabelPosition=bottom;shadow=0;dashed=0;align=center;html=1;verticalAlign=top;strokeWidth=1;shape=mxgraph.mockup.containers.userFemale;strokeColor=#666666;strokeColor2=#008cff;fontSize=12;fontColor=#FFFFFF;fillColor=#FFFFFF;gradientColor=#FFFFFF;" parent="As_-dO1jrNgRpWuWa4fp-0" vertex="1">
                    <mxGeometry x="1019" y="193" width="40" height="30" as="geometry"/>
                </mxCell>
                <mxCell id="lhSVIgbtmwpnUgxzdQ_j-1" value="" style="rounded=0;whiteSpace=wrap;html=1;shadow=0;labelBackgroundColor=none;fontSize=19;strokeColor=#FFFFFF;fillColor=#FFFFFF;" parent="As_-dO1jrNgRpWuWa4fp-0" vertex="1">
                    <mxGeometry x="1001" y="240" width="167" height="60" as="geometry"/>
                </mxCell>
                <UserObject label="Services" link="data:page/id,1y3C5vE3ofAHqLID96lu" id="ceErqrxS1LlgIkAPSpwJ-0">
                    <mxCell style="rounded=0;whiteSpace=wrap;html=1;fontSize=16;fontColor=#FFFFFF;strokeColor=#666666;fillColor=#C2C2C2;fontStyle=1" parent="As_-dO1jrNgRpWuWa4fp-0" vertex="1">
                        <mxGeometry x="565" y="180" width="151" height="60" as="geometry"/>
                    </mxCell>
                </UserObject>
                <UserObject label="Gérer une ressource" link="data:page/id,1-_ZAtHb4YZcZEY1NWBs" id="ceErqrxS1LlgIkAPSpwJ-2">
                    <mxCell style="rounded=0;whiteSpace=wrap;html=1;fontSize=16;strokeColor=#666666;fillColor=#C2C2C2;fontColor=#FFFFFF;fontStyle=1" parent="As_-dO1jrNgRpWuWa4fp-0" vertex="1">
                        <mxGeometry x="150" y="180" width="139" height="60" as="geometry"/>
                    </mxCell>
                </UserObject>
                <UserObject label="Gérer un utilisateur" link="data:page/id,gnByjOrjejcISsql6juy" id="ceErqrxS1LlgIkAPSpwJ-3">
                    <mxCell style="rounded=0;whiteSpace=wrap;html=1;fontSize=16;strokeColor=#666666;fillColor=#C2C2C2;fontColor=#FFFFFF;fontStyle=1" parent="As_-dO1jrNgRpWuWa4fp-0" vertex="1">
                        <mxGeometry x="289" y="180" width="138" height="60" as="geometry"/>
                    </mxCell>
                </UserObject>
                <UserObject label="A propos" link="data:page/id,FaWUZfU0TmcHPQL3xSgL" id="ceErqrxS1LlgIkAPSpwJ-4">
                    <mxCell style="rounded=0;whiteSpace=wrap;html=1;fontSize=16;strokeColor=#666666;fillColor=#C2C2C2;fontColor=#FFFFFF;fontStyle=1" parent="As_-dO1jrNgRpWuWa4fp-0" vertex="1">
                        <mxGeometry x="427" y="180" width="138" height="60" as="geometry"/>
                    </mxCell>
                </UserObject>
                <UserObject label="Accueil" link="data:page/id,yl5hMWLeE0mNzgKsfhri" id="ceErqrxS1LlgIkAPSpwJ-5">
                    <mxCell style="rounded=0;whiteSpace=wrap;html=1;fontSize=16;fontColor=#FFFFFF;strokeColor=#666666;fillColor=#C2C2C2;fontStyle=1" parent="As_-dO1jrNgRpWuWa4fp-0" vertex="1">
                        <mxGeometry y="180" width="151" height="60" as="geometry"/>
                    </mxCell>
                </UserObject>
                <mxCell id="2lIaT7nK3l-5wtwddNYD-0" value="" style="html=1;shadow=0;dashed=0;shape=mxgraph.bootstrap.rrect;rSize=5;strokeColor=#CED4DA;html=1;whiteSpace=wrap;fillColor=#FFFFFF;fontColor=#7D868C;align=left;spacingLeft=0;spacing=15;fontSize=14;" parent="As_-dO1jrNgRpWuWa4fp-0" vertex="1">
                    <mxGeometry x="908" y="128.5" width="227" height="33" as="geometry"/>
                </mxCell>
                <mxCell id="2lIaT7nK3l-5wtwddNYD-1" value="Rechercher" style="html=1;shadow=0;dashed=0;shape=mxgraph.bootstrap.rightButton;strokeColor=#6C757D;gradientColor=inherit;fontColor=inherit;fillColor=inherit;rSize=5;perimeter=none;whiteSpace=wrap;resizeHeight=1;fontSize=14;" parent="2lIaT7nK3l-5wtwddNYD-0" vertex="1">
                    <mxGeometry x="1" width="89" height="33" relative="1" as="geometry">
                        <mxPoint x="-70" as="offset"/>
                    </mxGeometry>
                </mxCell>
                <mxCell id="G6cqPtPBhhUeEpHGt4u_-0" value="" style="shape=image;html=1;verticalAlign=top;verticalLabelPosition=bottom;labelBackgroundColor=#ffffff;imageAspect=0;aspect=fixed;image=https://cdn4.iconfinder.com/data/icons/ui-office/512/User_Interface-40-128.png;shadow=0;fontSize=31;fontColor=#C2C2C2;strokeColor=#FFFFFF;fillColor=#666666;gradientColor=#000000;fontStyle=1;strokeWidth=2;" parent="As_-dO1jrNgRpWuWa4fp-0" vertex="1">
                    <mxGeometry x="1136" y="220" width="20" height="20" as="geometry"/>
                </mxCell>
            </root>
        </mxGraphModel>
    </diagram>
    <diagram id="vRAD9Q63Qiz3Y1zbIMJT" name="Consulter document_U">
        <mxGraphModel dx="2637" dy="1701" grid="1" gridSize="10" guides="1" tooltips="1" connect="1" arrows="1" fold="1" page="1" pageScale="1" pageWidth="1169" pageHeight="827" math="0" shadow="0">
            <root>
                <mxCell id="6pEGalEXN988fHv8bkiI-0"/>
                <mxCell id="6pEGalEXN988fHv8bkiI-1" parent="6pEGalEXN988fHv8bkiI-0"/>
                <mxCell id="jw-sKJdZKyoYY7lRWgD9-2" value="" style="ellipse;whiteSpace=wrap;html=1;aspect=fixed;shadow=0;labelBackgroundColor=default;strokeColor=#FFFF33;fillColor=#FFFF33;" parent="6pEGalEXN988fHv8bkiI-1" vertex="1">
                    <mxGeometry x="-525" y="-288" width="13" height="13" as="geometry"/>
                </mxCell>
                <mxCell id="6PWRT6hDFYkpvlV65UBd-0" value="" style="strokeWidth=1;shadow=0;dashed=0;align=center;html=1;shape=mxgraph.mockup.containers.browserWindow;rSize=0;strokeColor=#E6E6E6;strokeColor2=#008cff;strokeColor3=#c4c4c4;mainText=,;recursiveResize=0;" parent="6pEGalEXN988fHv8bkiI-1" vertex="1">
                    <mxGeometry x="-1169" y="-827" width="1169" height="827" as="geometry"/>
                </mxCell>
                <mxCell id="6PWRT6hDFYkpvlV65UBd-1" value="Médiathèque" style="strokeWidth=1;shadow=0;dashed=0;align=center;html=1;shape=mxgraph.mockup.containers.anchor;fontSize=17;fontColor=#666666;align=left;" parent="6PWRT6hDFYkpvlV65UBd-0" vertex="1">
                    <mxGeometry x="60" y="12" width="150" height="26" as="geometry"/>
                </mxCell>
                <mxCell id="6PWRT6hDFYkpvlV65UBd-2" value="https://www.mediatheque.fr" style="strokeWidth=1;shadow=0;dashed=0;align=center;html=1;shape=mxgraph.mockup.containers.anchor;rSize=0;fontSize=17;fontColor=#666666;align=left;" parent="6PWRT6hDFYkpvlV65UBd-0" vertex="1">
                    <mxGeometry x="130" y="60" width="250" height="26" as="geometry"/>
                </mxCell>
                <mxCell id="6PWRT6hDFYkpvlV65UBd-4" value="" style="rounded=0;whiteSpace=wrap;html=1;strokeColor=#A1A1A1;" parent="6PWRT6hDFYkpvlV65UBd-0" vertex="1">
                    <mxGeometry y="110" width="1160" height="60" as="geometry"/>
                </mxCell>
                <mxCell id="v8ZEa6mfONF1BPQ4MSxp-20" value="" style="html=1;shadow=0;dashed=0;shape=mxgraph.bootstrap.rrect;rSize=5;strokeColor=#CED4DA;html=1;whiteSpace=wrap;fillColor=#FFFFFF;fontColor=#7D868C;align=left;spacingLeft=0;spacing=15;fontSize=14;" parent="6PWRT6hDFYkpvlV65UBd-0" vertex="1">
                    <mxGeometry x="900" y="177" width="227" height="33" as="geometry"/>
                </mxCell>
                <mxCell id="v8ZEa6mfONF1BPQ4MSxp-21" value="Rechercher" style="html=1;shadow=0;dashed=0;shape=mxgraph.bootstrap.rightButton;strokeColor=#6C757D;gradientColor=inherit;fontColor=inherit;fillColor=inherit;rSize=5;perimeter=none;whiteSpace=wrap;resizeHeight=1;fontSize=14;" parent="v8ZEa6mfONF1BPQ4MSxp-20" vertex="1">
                    <mxGeometry x="1" width="89" height="33" relative="1" as="geometry">
                        <mxPoint x="-70" as="offset"/>
                    </mxGeometry>
                </mxCell>
                <mxCell id="v8ZEa6mfONF1BPQ4MSxp-18" value="&lt;b style=&quot;color: rgb(108 , 118 , 125)&quot;&gt;&lt;font style=&quot;font-size: 20px&quot;&gt;Les Misérables&amp;nbsp;&lt;/font&gt;&lt;font style=&quot;font-size: 12px&quot;&gt;V. Hugo&lt;/font&gt;&lt;br&gt;&lt;br style=&quot;font-size: 10px&quot;&gt;&lt;/b&gt;&lt;span style=&quot;font-family: &amp;#34;open sans&amp;#34; , &amp;#34;arial&amp;#34; , sans-serif ; text-align: justify ; background-color: rgb(255 , 255 , 255)&quot;&gt;Lorem ipsum dolor sit amet, consectetur adipiscing elit. Nam pretium elit vel malesuada mollis. Orci varius natoque penatibus et magnis dis parturient montes.&amp;nbsp;&lt;/span&gt;&lt;br&gt;&lt;br&gt;&lt;font color=&quot;#999999&quot;&gt;&lt;span style=&quot;font-size: 12px&quot;&gt;Type: Livre&amp;nbsp; &amp;nbsp; &amp;nbsp; &amp;nbsp; &amp;nbsp; &amp;nbsp; Genre: Dramatique&amp;nbsp; &amp;nbsp; &amp;nbsp; &amp;nbsp; &amp;nbsp; Etat: dispo&lt;/span&gt;&lt;/font&gt;" style="html=1;shadow=0;dashed=0;shape=mxgraph.bootstrap.rrect;rSize=5;strokeColor=#DFDFDF;html=1;whiteSpace=wrap;fillColor=#ffffff;fontColor=#000000;verticalAlign=top;align=left;spacing=20;fontSize=14;spacingLeft=170;" parent="6PWRT6hDFYkpvlV65UBd-0" vertex="1">
                    <mxGeometry x="279" y="594" width="591" height="180" as="geometry"/>
                </mxCell>
                <mxCell id="v8ZEa6mfONF1BPQ4MSxp-19" value="Image" style="html=1;shadow=0;dashed=0;shape=mxgraph.bootstrap.leftButton;rSize=5;perimeter=none;whiteSpace=wrap;fillColor=#C2C2C2;strokeColor=#DFDFDF;fontColor=#DEE2E6;resizeWidth=1;fontSize=18;" parent="v8ZEa6mfONF1BPQ4MSxp-18" vertex="1">
                    <mxGeometry width="131.15" height="180" relative="1" as="geometry"/>
                </mxCell>
                <mxCell id="jw-sKJdZKyoYY7lRWgD9-3" value="" style="ellipse;whiteSpace=wrap;html=1;aspect=fixed;shadow=0;labelBackgroundColor=default;strokeColor=#3333FF;fillColor=#3333FF;" parent="v8ZEa6mfONF1BPQ4MSxp-18" vertex="1">
                    <mxGeometry x="389" y="134" width="13" height="13" as="geometry"/>
                </mxCell>
                <mxCell id="v8ZEa6mfONF1BPQ4MSxp-16" value="&lt;b style=&quot;color: rgb(108 , 118 , 125)&quot;&gt;&lt;font style=&quot;font-size: 20px&quot;&gt;Le Petit Prince &lt;/font&gt;&lt;font style=&quot;font-size: 12px&quot;&gt;A d. Saint-Exupéry&lt;/font&gt;&lt;br&gt;&lt;br style=&quot;font-size: 10px&quot;&gt;&lt;/b&gt;&lt;span style=&quot;font-family: &amp;#34;open sans&amp;#34; , &amp;#34;arial&amp;#34; , sans-serif ; text-align: justify ; background-color: rgb(255 , 255 , 255)&quot;&gt;Lorem ipsum dolor sit amet, consectetur adipiscing elit. Nam pretium elit vel malesuada mollis. Orci varius natoque penatibus et magnis dis parturient montes.&amp;nbsp;&lt;/span&gt;&lt;br&gt;&lt;br&gt;&lt;font color=&quot;#999999&quot;&gt;&lt;span style=&quot;font-size: 12px&quot;&gt;Type: Livre&amp;nbsp; &amp;nbsp; &amp;nbsp; &amp;nbsp; &amp;nbsp; &amp;nbsp; Genre: Roman&amp;nbsp; &amp;nbsp; &amp;nbsp; &amp;nbsp; &amp;nbsp; &amp;nbsp; &amp;nbsp; Etat: dispo&lt;/span&gt;&lt;/font&gt;" style="html=1;shadow=0;dashed=0;shape=mxgraph.bootstrap.rrect;rSize=5;strokeColor=#DFDFDF;html=1;whiteSpace=wrap;fillColor=#ffffff;fontColor=#000000;verticalAlign=top;align=left;spacing=20;fontSize=14;spacingLeft=170;" parent="6PWRT6hDFYkpvlV65UBd-0" vertex="1">
                    <mxGeometry x="279" y="404" width="591" height="180" as="geometry"/>
                </mxCell>
                <mxCell id="v8ZEa6mfONF1BPQ4MSxp-17" value="Image" style="html=1;shadow=0;dashed=0;shape=mxgraph.bootstrap.leftButton;rSize=5;perimeter=none;whiteSpace=wrap;fillColor=#C2C2C2;strokeColor=#DFDFDF;fontColor=#DEE2E6;resizeWidth=1;fontSize=18;" parent="v8ZEa6mfONF1BPQ4MSxp-16" vertex="1">
                    <mxGeometry width="130" height="180" relative="1" as="geometry"/>
                </mxCell>
                <mxCell id="NNoTAnvwdr5aqvqmSrYG-0" value="" style="ellipse;whiteSpace=wrap;html=1;aspect=fixed;shadow=0;labelBackgroundColor=default;strokeColor=#FFB366;fillColor=#FF9933;" parent="v8ZEa6mfONF1BPQ4MSxp-16" vertex="1">
                    <mxGeometry x="365" y="135" width="13" height="13" as="geometry"/>
                </mxCell>
                <mxCell id="v8ZEa6mfONF1BPQ4MSxp-8" value="&lt;b style=&quot;color: rgb(108 , 118 , 125)&quot;&gt;&lt;span style=&quot;font-size: 20px&quot;&gt;Harry Potter et la coupe de feu&lt;/span&gt;&lt;br&gt;&lt;font style=&quot;font-size: 12px&quot;&gt;J.K Rowling&lt;/font&gt;&lt;br&gt;&lt;br style=&quot;font-size: 10px&quot;&gt;&lt;/b&gt;&lt;span style=&quot;font-family: &amp;#34;open sans&amp;#34; , &amp;#34;arial&amp;#34; , sans-serif ; text-align: justify ; background-color: rgb(255 , 255 , 255)&quot;&gt;Lorem ipsum dolor sit amet, consectetur adipiscing elit. Nam pretium elit vel malesuada mollis. Orci varius natoque penatibus et magnis dis parturient montes.&amp;nbsp;&lt;/span&gt;&lt;br&gt;&lt;br&gt;&lt;font color=&quot;#999999&quot;&gt;&lt;span style=&quot;font-size: 12px&quot;&gt;Type: Livre&amp;nbsp; &amp;nbsp; &amp;nbsp; &amp;nbsp; &amp;nbsp; &amp;nbsp; Genre: Fantastique&amp;nbsp; &amp;nbsp; &amp;nbsp; &amp;nbsp; &amp;nbsp; Etat: dispo&lt;/span&gt;&lt;/font&gt;" style="html=1;shadow=0;dashed=0;shape=mxgraph.bootstrap.rrect;rSize=5;strokeColor=#DFDFDF;html=1;whiteSpace=wrap;fillColor=#ffffff;fontColor=#000000;verticalAlign=top;align=left;spacing=20;fontSize=14;spacingLeft=170;" parent="6PWRT6hDFYkpvlV65UBd-0" vertex="1">
                    <mxGeometry x="279" y="214" width="591" height="180" as="geometry"/>
                </mxCell>
                <mxCell id="v8ZEa6mfONF1BPQ4MSxp-9" value="Image" style="html=1;shadow=0;dashed=0;shape=mxgraph.bootstrap.leftButton;rSize=5;perimeter=none;whiteSpace=wrap;fillColor=#C2C2C2;strokeColor=#DFDFDF;fontColor=#DEE2E6;resizeWidth=1;fontSize=18;" parent="v8ZEa6mfONF1BPQ4MSxp-8" vertex="1">
                    <mxGeometry width="131.15" height="180" relative="1" as="geometry"/>
                </mxCell>
                <mxCell id="jw-sKJdZKyoYY7lRWgD9-1" value="" style="ellipse;whiteSpace=wrap;html=1;aspect=fixed;shadow=0;labelBackgroundColor=default;strokeColor=#33FF33;fillColor=#66FF66;" parent="v8ZEa6mfONF1BPQ4MSxp-8" vertex="1">
                    <mxGeometry x="390" y="151" width="13" height="13" as="geometry"/>
                </mxCell>
                <mxCell id="oddmXd4pqLXdKhyzwtCt-15" value="Trier par :&amp;nbsp;" style="strokeWidth=1;shadow=0;dashed=0;align=center;html=1;shape=mxgraph.mockup.forms.comboBox;align=left;fillColor2=#aaddff;mainText=;fontSize=17;spacingLeft=3;labelBackgroundColor=default;fillColor=#A1A1A1;strokeColor=#A1A1A1;" parent="6PWRT6hDFYkpvlV65UBd-0" vertex="1">
                    <mxGeometry x="279" y="180" width="141" height="27" as="geometry"/>
                </mxCell>
                <mxCell id="oddmXd4pqLXdKhyzwtCt-16" value="" style="shape=image;html=1;verticalAlign=top;verticalLabelPosition=bottom;labelBackgroundColor=#ffffff;imageAspect=0;aspect=fixed;image=https://cdn2.iconfinder.com/data/icons/font-awesome/1792/sort-alpha-asc-128.png;shadow=0;fontColor=default;strokeColor=#A1A1A1;fillColor=#A1A1A1;gradientColor=#000000;" parent="6PWRT6hDFYkpvlV65UBd-0" vertex="1">
                    <mxGeometry x="356" y="182" width="24" height="24" as="geometry"/>
                </mxCell>
                <mxCell id="oddmXd4pqLXdKhyzwtCt-5" value="" style="html=1;shadow=0;dashed=0;shape=mxgraph.bootstrap.rrect;rSize=5;strokeColor=#DEE2E6;html=1;whiteSpace=wrap;fillColor=#ffffff;fontColor=#666666;fontSize=14;" parent="6PWRT6hDFYkpvlV65UBd-0" vertex="1">
                    <mxGeometry x="489" y="787" width="220" height="30" as="geometry"/>
                </mxCell>
                <mxCell id="oddmXd4pqLXdKhyzwtCt-6" value="Previous" style="strokeColor=inherit;fillColor=inherit;gradientColor=inherit;fontColor=inherit;html=1;shadow=0;dashed=0;shape=mxgraph.bootstrap.leftButton;rSize=5;perimeter=none;whiteSpace=wrap;resizeHeight=1;fontSize=14;" parent="oddmXd4pqLXdKhyzwtCt-5" vertex="1">
                    <mxGeometry width="70" height="30" relative="1" as="geometry"/>
                </mxCell>
                <mxCell id="oddmXd4pqLXdKhyzwtCt-7" value="1" style="strokeColor=inherit;fillColor=inherit;gradientColor=inherit;fontColor=inherit;html=1;shadow=0;dashed=0;perimeter=none;whiteSpace=wrap;resizeHeight=1;fontSize=14;" parent="oddmXd4pqLXdKhyzwtCt-5" vertex="1">
                    <mxGeometry width="30" height="30" relative="1" as="geometry">
                        <mxPoint x="70" as="offset"/>
                    </mxGeometry>
                </mxCell>
                <mxCell id="oddmXd4pqLXdKhyzwtCt-8" value="2" style="strokeColor=inherit;fillColor=inherit;gradientColor=inherit;fontColor=inherit;html=1;shadow=0;dashed=0;perimeter=none;whiteSpace=wrap;resizeHeight=1;fontSize=14;" parent="oddmXd4pqLXdKhyzwtCt-5" vertex="1">
                    <mxGeometry width="30" height="30" relative="1" as="geometry">
                        <mxPoint x="100" as="offset"/>
                    </mxGeometry>
                </mxCell>
                <mxCell id="oddmXd4pqLXdKhyzwtCt-9" value="..." style="strokeColor=inherit;fillColor=inherit;gradientColor=inherit;fontColor=inherit;html=1;shadow=0;dashed=0;perimeter=none;whiteSpace=wrap;resizeHeight=1;fontSize=14;" parent="oddmXd4pqLXdKhyzwtCt-5" vertex="1">
                    <mxGeometry width="30" height="30" relative="1" as="geometry">
                        <mxPoint x="130" as="offset"/>
                    </mxGeometry>
                </mxCell>
                <mxCell id="oddmXd4pqLXdKhyzwtCt-10" value="Next" style="strokeColor=inherit;fillColor=inherit;gradientColor=inherit;fontColor=inherit;html=1;shadow=0;dashed=0;shape=mxgraph.bootstrap.rightButton;rSize=5;perimeter=none;whiteSpace=wrap;resizeHeight=1;fontSize=14;" parent="oddmXd4pqLXdKhyzwtCt-5" vertex="1">
                    <mxGeometry x="1" width="60" height="30" relative="1" as="geometry">
                        <mxPoint x="-60" as="offset"/>
                    </mxGeometry>
                </mxCell>
                <mxCell id="pBbfcT14cwRcgGWVus7V-0" value="" style="rounded=0;whiteSpace=wrap;html=1;fontSize=12;fontColor=#333333;strokeColor=#666666;fillColor=#C2C2C2;" parent="6PWRT6hDFYkpvlV65UBd-0" vertex="1">
                    <mxGeometry y="110" width="1159" height="60" as="geometry"/>
                </mxCell>
                <UserObject label="&amp;nbsp; &amp;nbsp; &amp;nbsp; &amp;nbsp; &amp;nbsp; &amp;nbsp; &amp;nbsp;Mon profil" link="data:page/id,lGLJw4ro3tzLa91ZYzbf" id="pBbfcT14cwRcgGWVus7V-6">
                    <mxCell style="rounded=0;whiteSpace=wrap;html=1;fontSize=16;fontColor=#FFFFFF;strokeColor=#666666;fillColor=#C2C2C2;align=center;fontStyle=1" parent="6PWRT6hDFYkpvlV65UBd-0" vertex="1">
                        <mxGeometry x="1001" y="110" width="169" height="60" as="geometry"/>
                    </mxCell>
                </UserObject>
                <mxCell id="wp-OK01ZfuuvIfivFxu2-0" value="" style="verticalLabelPosition=bottom;shadow=0;dashed=0;align=center;html=1;verticalAlign=top;strokeWidth=1;shape=mxgraph.mockup.containers.userFemale;strokeColor=#666666;strokeColor2=#008cff;fontSize=12;fontColor=#FFFFFF;fillColor=#FFFFFF;gradientColor=#FFFFFF;" parent="6PWRT6hDFYkpvlV65UBd-0" vertex="1">
                    <mxGeometry x="1019" y="125" width="40" height="30" as="geometry"/>
                </mxCell>
                <UserObject label="Services" link="data:page/id,1y3C5vE3ofAHqLID96lu" id="6Hn4dbaK_-GFJlBOqGNE-6">
                    <mxCell style="rounded=0;whiteSpace=wrap;html=1;fontSize=16;fontColor=#FFFFFF;strokeColor=#666666;fillColor=#C2C2C2;fontStyle=1" parent="6PWRT6hDFYkpvlV65UBd-0" vertex="1">
                        <mxGeometry x="442" y="110" width="151" height="60" as="geometry"/>
                    </mxCell>
                </UserObject>
                <UserObject label="Consulter un document" link="data:page/id,vRAD9Q63Qiz3Y1zbIMJT" id="6Hn4dbaK_-GFJlBOqGNE-7">
                    <mxCell style="rounded=0;whiteSpace=wrap;html=1;fontSize=16;strokeColor=#666666;fillColor=#FFFFFF;fontColor=#C2C2C2;fontStyle=1" parent="6PWRT6hDFYkpvlV65UBd-0" vertex="1">
                        <mxGeometry x="152" y="110" width="152" height="60" as="geometry"/>
                    </mxCell>
                </UserObject>
                <mxCell id="6Hn4dbaK_-GFJlBOqGNE-12" value="" style="rounded=0;whiteSpace=wrap;html=1;shadow=0;labelBackgroundColor=none;fontSize=29;strokeColor=#FFFFFF;fillColor=#FFFFFF;" parent="6PWRT6hDFYkpvlV65UBd-0" vertex="1">
                    <mxGeometry x="152" y="168.5" width="155" height="1.5" as="geometry"/>
                </mxCell>
                <UserObject label="Accueil" link="data:page/id,yl5hMWLeE0mNzgKsfhri" id="6Hn4dbaK_-GFJlBOqGNE-11">
                    <mxCell style="rounded=0;whiteSpace=wrap;html=1;fontSize=16;fontColor=#FFFFFF;strokeColor=#666666;fillColor=#C2C2C2;fontStyle=1" parent="6PWRT6hDFYkpvlV65UBd-0" vertex="1">
                        <mxGeometry x="1" y="110" width="151" height="60" as="geometry"/>
                    </mxCell>
                </UserObject>
                <mxCell id="i4k-yJCXX20UQQmHrJsQ-0" value="" style="shape=image;html=1;verticalAlign=top;verticalLabelPosition=bottom;labelBackgroundColor=#ffffff;imageAspect=0;aspect=fixed;image=https://cdn4.iconfinder.com/data/icons/ui-office/512/User_Interface-40-128.png;shadow=0;fontSize=31;fontColor=#C2C2C2;strokeColor=#FFFFFF;fillColor=#666666;gradientColor=#000000;fontStyle=1;strokeWidth=2;" parent="6PWRT6hDFYkpvlV65UBd-0" vertex="1">
                    <mxGeometry x="1140" y="148.5" width="20" height="20" as="geometry"/>
                </mxCell>
                <UserObject label="A propos" link="data:page/id,FaWUZfU0TmcHPQL3xSgL" id="6Hn4dbaK_-GFJlBOqGNE-10">
                    <mxCell style="rounded=0;whiteSpace=wrap;html=1;fontSize=16;strokeColor=#666666;fillColor=#C2C2C2;fontColor=#FFFFFF;fontStyle=1" parent="6PWRT6hDFYkpvlV65UBd-0" vertex="1">
                        <mxGeometry x="304" y="110" width="138" height="60" as="geometry"/>
                    </mxCell>
                </UserObject>
            </root>
        </mxGraphModel>
    </diagram>
    <diagram id="Nm4BjlRvvzA-6sA9UBoJ" name="Accueil_U">
        <mxGraphModel dx="2637" dy="874" grid="1" gridSize="10" guides="1" tooltips="1" connect="1" arrows="1" fold="1" page="1" pageScale="1" pageWidth="1169" pageHeight="827" math="0" shadow="0">
            <root>
                <mxCell id="QYjR0A7eHPFPmUG47aKk-0"/>
                <mxCell id="QYjR0A7eHPFPmUG47aKk-1" parent="QYjR0A7eHPFPmUG47aKk-0"/>
                <mxCell id="cVY4USXrBCcLiTn0JRrk-0" value="" style="strokeWidth=1;shadow=0;dashed=0;align=center;html=1;shape=mxgraph.mockup.containers.browserWindow;rSize=0;strokeColor=#666666;strokeColor2=#008cff;strokeColor3=#c4c4c4;mainText=,;recursiveResize=0;fontSize=16;fontStyle=0" parent="QYjR0A7eHPFPmUG47aKk-1" vertex="1">
                    <mxGeometry x="-1169" width="1169" height="827" as="geometry"/>
                </mxCell>
                <mxCell id="cVY4USXrBCcLiTn0JRrk-1" value="Médiathèque" style="strokeWidth=1;shadow=0;dashed=0;align=center;html=1;shape=mxgraph.mockup.containers.anchor;fontSize=17;fontColor=#666666;align=left;" parent="cVY4USXrBCcLiTn0JRrk-0" vertex="1">
                    <mxGeometry x="60" y="12" width="150" height="26" as="geometry"/>
                </mxCell>
                <mxCell id="cVY4USXrBCcLiTn0JRrk-2" value="https://www.mediatheque.fr" style="strokeWidth=1;shadow=0;dashed=0;align=center;html=1;shape=mxgraph.mockup.containers.anchor;rSize=0;fontSize=17;fontColor=#666666;align=left;" parent="cVY4USXrBCcLiTn0JRrk-0" vertex="1">
                    <mxGeometry x="130" y="60" width="250" height="26" as="geometry"/>
                </mxCell>
                <mxCell id="cVY4USXrBCcLiTn0JRrk-3" value="&lt;font style=&quot;font-size: 45px&quot; color=&quot;#a1a1a1&quot;&gt;Médiathèque&lt;/font&gt;" style="rounded=0;whiteSpace=wrap;html=1;strokeColor=#A1A1A1;" parent="cVY4USXrBCcLiTn0JRrk-0" vertex="1">
                    <mxGeometry y="110" width="1160" height="60" as="geometry"/>
                </mxCell>
                <mxCell id="cVY4USXrBCcLiTn0JRrk-4" value="Infos pratique" style="rounded=0;whiteSpace=wrap;html=1;fontSize=16;fontColor=#FFFFFF;strokeColor=#666666;fillColor=#C2C2C2;fontStyle=1" parent="cVY4USXrBCcLiTn0JRrk-0" vertex="1">
                    <mxGeometry x="167" y="200" width="151" height="60" as="geometry"/>
                </mxCell>
                <UserObject label="Consulter une ressrouce" id="cVY4USXrBCcLiTn0JRrk-5">
                    <mxCell style="rounded=0;whiteSpace=wrap;html=1;fontSize=16;strokeColor=#666666;fillColor=#C2C2C2;fontColor=#FFFFFF;fontStyle=1" parent="cVY4USXrBCcLiTn0JRrk-0" vertex="1">
                        <mxGeometry x="318" y="200" width="152" height="60" as="geometry"/>
                    </mxCell>
                </UserObject>
                <mxCell id="cVY4USXrBCcLiTn0JRrk-6" value="Gérer une ressource" style="rounded=0;whiteSpace=wrap;html=1;fontSize=16;strokeColor=#666666;fillColor=#C2C2C2;fontColor=#FFFFFF;fontStyle=1" parent="cVY4USXrBCcLiTn0JRrk-0" vertex="1">
                    <mxGeometry x="470" y="200" width="139" height="60" as="geometry"/>
                </mxCell>
                <mxCell id="cVY4USXrBCcLiTn0JRrk-7" value="Gérer un utilisateur" style="rounded=0;whiteSpace=wrap;html=1;fontSize=16;strokeColor=#666666;fillColor=#C2C2C2;fontColor=#FFFFFF;fontStyle=1" parent="cVY4USXrBCcLiTn0JRrk-0" vertex="1">
                    <mxGeometry x="609" y="200" width="138" height="60" as="geometry"/>
                </mxCell>
                <mxCell id="cVY4USXrBCcLiTn0JRrk-8" value="Actualité" style="rounded=0;whiteSpace=wrap;html=1;fontSize=16;fontColor=#FFFFFF;strokeColor=#666666;fillColor=#A1A1A1;gradientColor=#A1A1A1;fontStyle=1" parent="cVY4USXrBCcLiTn0JRrk-0" vertex="1">
                    <mxGeometry x="18" y="280" width="582" height="520" as="geometry"/>
                </mxCell>
                <mxCell id="cVY4USXrBCcLiTn0JRrk-9" value="" style="shape=image;html=1;verticalAlign=top;verticalLabelPosition=bottom;labelBackgroundColor=#ffffff;imageAspect=0;aspect=fixed;image=https://cdn2.iconfinder.com/data/icons/crystalproject/128x128/apps/cal.png;fontSize=12;fontColor=#FFFFFF;strokeColor=#666666;fillColor=#A1A1A1;gradientColor=#A1A1A1;" parent="cVY4USXrBCcLiTn0JRrk-0" vertex="1">
                    <mxGeometry x="910" y="260" width="180" height="180" as="geometry"/>
                </mxCell>
                <mxCell id="cVY4USXrBCcLiTn0JRrk-10" value="Evènements à venir" style="rounded=0;whiteSpace=wrap;html=1;fontSize=16;fontColor=#FFFFFF;strokeColor=#666666;fillColor=#A1A1A1;gradientColor=#A1A1A1;fontStyle=1" parent="cVY4USXrBCcLiTn0JRrk-0" vertex="1">
                    <mxGeometry x="628" y="280" width="272" height="140" as="geometry"/>
                </mxCell>
                <mxCell id="cVY4USXrBCcLiTn0JRrk-11" value="Les nouveautés de ce mois-ci" style="rounded=0;whiteSpace=wrap;html=1;fontSize=16;fontColor=#FFFFFF;strokeColor=#666666;fillColor=#A1A1A1;gradientColor=#A1A1A1;fontStyle=1" parent="cVY4USXrBCcLiTn0JRrk-0" vertex="1">
                    <mxGeometry x="628" y="440" width="502" height="360" as="geometry"/>
                </mxCell>
                <UserObject label="&amp;nbsp; &amp;nbsp; &amp;nbsp; &amp;nbsp; &amp;nbsp; &amp;nbsp; &amp;nbsp;Mon profil" id="cVY4USXrBCcLiTn0JRrk-12">
                    <mxCell style="rounded=0;whiteSpace=wrap;html=1;fontSize=16;fontColor=#FFFFFF;strokeColor=#666666;fillColor=#C2C2C2;align=center;fontStyle=1" parent="cVY4USXrBCcLiTn0JRrk-0" vertex="1">
                        <mxGeometry x="1009" y="200" width="151" height="60" as="geometry"/>
                    </mxCell>
                </UserObject>
                <mxCell id="cVY4USXrBCcLiTn0JRrk-13" value="" style="verticalLabelPosition=bottom;shadow=0;dashed=0;align=center;html=1;verticalAlign=top;strokeWidth=1;shape=mxgraph.mockup.containers.userFemale;strokeColor=#666666;strokeColor2=#008cff;fontSize=12;fontColor=#FFFFFF;fillColor=#FFFFFF;gradientColor=#FFFFFF;" parent="cVY4USXrBCcLiTn0JRrk-0" vertex="1">
                    <mxGeometry x="1024" y="215" width="40" height="30" as="geometry"/>
                </mxCell>
                <mxCell id="cVY4USXrBCcLiTn0JRrk-14" value="Services" style="rounded=0;whiteSpace=wrap;html=1;fontSize=16;strokeColor=#666666;fillColor=#C2C2C2;fontColor=#FFFFFF;fontStyle=1" parent="cVY4USXrBCcLiTn0JRrk-0" vertex="1">
                    <mxGeometry x="747" y="200" width="138" height="60" as="geometry"/>
                </mxCell>
                <mxCell id="cVY4USXrBCcLiTn0JRrk-15" value="" style="rounded=0;whiteSpace=wrap;html=1;fontSize=12;fontColor=#333333;strokeColor=#666666;fillColor=#C2C2C2;" parent="cVY4USXrBCcLiTn0JRrk-0" vertex="1">
                    <mxGeometry y="200" width="1168" height="60" as="geometry"/>
                </mxCell>
                <UserObject label="Services" id="cVY4USXrBCcLiTn0JRrk-16">
                    <mxCell style="rounded=0;whiteSpace=wrap;html=1;fontSize=16;fontColor=#FFFFFF;strokeColor=#666666;fillColor=#C2C2C2;fontStyle=1" parent="cVY4USXrBCcLiTn0JRrk-0" vertex="1">
                        <mxGeometry x="440" y="200.5" width="151" height="60" as="geometry"/>
                    </mxCell>
                </UserObject>
                <UserObject label="A propos" id="cVY4USXrBCcLiTn0JRrk-19">
                    <mxCell style="rounded=0;whiteSpace=wrap;html=1;fontSize=16;strokeColor=#666666;fillColor=#C2C2C2;fontColor=#FFFFFF;fontStyle=1" parent="cVY4USXrBCcLiTn0JRrk-0" vertex="1">
                        <mxGeometry x="302" y="200.5" width="138" height="60" as="geometry"/>
                    </mxCell>
                </UserObject>
                <UserObject label="&amp;nbsp; &amp;nbsp; &amp;nbsp; &amp;nbsp; &amp;nbsp; &amp;nbsp; &amp;nbsp;Mon profil" id="cVY4USXrBCcLiTn0JRrk-20">
                    <mxCell style="rounded=0;whiteSpace=wrap;html=1;fontSize=16;fontColor=#FFFFFF;strokeColor=#666666;fillColor=#C2C2C2;align=center;fontStyle=1" parent="cVY4USXrBCcLiTn0JRrk-0" vertex="1">
                        <mxGeometry x="1005" y="200" width="163" height="60" as="geometry"/>
                    </mxCell>
                </UserObject>
                <mxCell id="cVY4USXrBCcLiTn0JRrk-21" value="" style="verticalLabelPosition=bottom;shadow=0;dashed=0;align=center;html=1;verticalAlign=top;strokeWidth=1;shape=mxgraph.mockup.containers.userFemale;strokeColor=#666666;strokeColor2=#008cff;fontSize=12;fontColor=#FFFFFF;fillColor=#FFFFFF;gradientColor=#FFFFFF;" parent="cVY4USXrBCcLiTn0JRrk-0" vertex="1">
                    <mxGeometry x="1024" y="215" width="40" height="30" as="geometry"/>
                </mxCell>
                <UserObject label="Accueil" id="cVY4USXrBCcLiTn0JRrk-22">
                    <mxCell style="rounded=0;whiteSpace=wrap;html=1;fontSize=16;fontColor=#C2C2C2;strokeColor=#666666;fillColor=#FFFFFF;fontStyle=1" parent="cVY4USXrBCcLiTn0JRrk-0" vertex="1">
                        <mxGeometry y="200" width="150" height="60" as="geometry"/>
                    </mxCell>
                </UserObject>
                <mxCell id="cVY4USXrBCcLiTn0JRrk-23" value="" style="html=1;shadow=0;dashed=0;shape=mxgraph.bootstrap.rrect;rSize=5;strokeColor=#CED4DA;html=1;whiteSpace=wrap;fillColor=#FFFFFF;fontColor=#7D868C;align=left;spacingLeft=0;spacing=15;fontSize=14;" parent="cVY4USXrBCcLiTn0JRrk-0" vertex="1">
                    <mxGeometry x="909" y="123.5" width="227" height="33" as="geometry"/>
                </mxCell>
                <mxCell id="cVY4USXrBCcLiTn0JRrk-24" value="Rechercher" style="html=1;shadow=0;dashed=0;shape=mxgraph.bootstrap.rightButton;strokeColor=#6C757D;gradientColor=inherit;fontColor=inherit;fillColor=inherit;rSize=5;perimeter=none;whiteSpace=wrap;resizeHeight=1;fontSize=14;" parent="cVY4USXrBCcLiTn0JRrk-23" vertex="1">
                    <mxGeometry x="1" width="89" height="33" relative="1" as="geometry">
                        <mxPoint x="-70" as="offset"/>
                    </mxGeometry>
                </mxCell>
                <mxCell id="cVY4USXrBCcLiTn0JRrk-25" value="" style="shape=image;html=1;verticalAlign=top;verticalLabelPosition=bottom;labelBackgroundColor=#ffffff;imageAspect=0;aspect=fixed;image=https://cdn4.iconfinder.com/data/icons/ui-office/512/User_Interface-40-128.png;shadow=0;fontSize=31;fontColor=#C2C2C2;strokeColor=#FFFFFF;fillColor=#666666;gradientColor=#000000;fontStyle=1;strokeWidth=2;" parent="cVY4USXrBCcLiTn0JRrk-0" vertex="1">
                    <mxGeometry x="1147" y="240" width="20" height="20" as="geometry"/>
                </mxCell>
                <mxCell id="cVY4USXrBCcLiTn0JRrk-26" value="" style="rounded=0;whiteSpace=wrap;html=1;shadow=0;labelBackgroundColor=none;fontSize=29;strokeColor=#FFFFFF;fillColor=#FFFFFF;" parent="cVY4USXrBCcLiTn0JRrk-0" vertex="1">
                    <mxGeometry y="259" width="150" height="1.5" as="geometry"/>
                </mxCell>
                <UserObject label="Consulter un document" id="gp3COIUOKo-t2iKEXMq9-0">
                    <mxCell style="rounded=0;whiteSpace=wrap;html=1;fontSize=16;strokeColor=#666666;fillColor=#C2C2C2;fontColor=#FFFFFF;fontStyle=1" parent="cVY4USXrBCcLiTn0JRrk-0" vertex="1">
                        <mxGeometry x="150" y="200" width="152" height="60.5" as="geometry"/>
                    </mxCell>
                </UserObject>
            </root>
        </mxGraphModel>
    </diagram>
</mxfile>